<?xml version="1.0" standalone="no"?>
<!DOCTYPE svg PUBLIC "-//W3C//DTD SVG 1.1//EN" "http://www.w3.org/Graphics/SVG/1.1/DTD/svg11.dtd" >
<svg xmlns="http://www.w3.org/2000/svg" xmlns:xlink="http://www.w3.org/1999/xlink" version="1.1">
<metadata>
Created by FontForge 20170731 at Mon Dec 14 17:02:46 2020
 By Aleksey,,,
2009 Albert-Jan Pool published by FSI FontShop International GmbH
</metadata>
<defs>
<font id="DINPro-CondensedBoldItalic" horiz-adv-x="765" >
  <font-face 
    font-family="DIN Pro Cond Bold"
    font-weight="700"
    font-style="italic"
    font-stretch="condensed"
    units-per-em="2048"
    panose-1="2 11 8 6 2 1 1 2 1 2"
    ascent="1638"
    descent="-410"
    x-height="1079"
    cap-height="1458"
    bbox="-305 -434 2079 2271"
    underline-thickness="157"
    underline-position="-390"
    slope="-11.31"
    unicode-range="U+000D-FEFF"
  />
<missing-glyph horiz-adv-x="808" 
d="M-6 0l291 1458h608l-291 -1458h-608zM176 158h307l230 1142h-310z" />
    <glyph glyph-name=".notdef" horiz-adv-x="808" 
d="M-6 0l291 1458h608l-291 -1458h-608zM176 158h307l230 1142h-310z" />
    <glyph glyph-name=".null" horiz-adv-x="0" 
 />
    <glyph glyph-name=".null" horiz-adv-x="0" 
 />
    <glyph glyph-name="nonmarkingreturn" horiz-adv-x="682" 
 />
    <glyph glyph-name="CR" unicode="&#xd;" horiz-adv-x="346" 
 />
    <glyph glyph-name="space" unicode=" " horiz-adv-x="346" 
 />
    <glyph glyph-name="exclam" unicode="!" horiz-adv-x="497" 
d="M150 406l188 1052h233l-217 -1052h-204zM47 0l49 250h236l-49 -250h-236z" />
    <glyph glyph-name="quotedbl" unicode="&#x22;" horiz-adv-x="845" 
d="M242 1049l82 409h196l-82 -409h-196zM610 1049l82 409h197l-82 -409h-197z" />
    <glyph glyph-name="numbersign" unicode="#" horiz-adv-x="1177" 
d="M53 0l146 420h-131l38 192h162l94 269h-145l39 194h172l133 383h217l-135 -383h209l135 383h215l-135 -383h125l-39 -194h-154l-92 -269h137l-38 -192h-168l-146 -420h-215l146 420h-211l-144 -420h-215zM483 612h207l92 269h-207z" />
    <glyph glyph-name="dollar" unicode="$" horiz-adv-x="856" 
d="M41 397h217q-12 -65 -12 -102q0 -53 24 -80q29 -37 88 -37q67 0 111 41q28 27 42.5 60t29.5 106q14 66 14 129q0 82 -98 127l-135 66q-83 40 -117.5 94.5t-34.5 134.5q0 84 16 160q39 192 129 278q78 78 189 94l37 183h194l-39 -191q68 -18 127 -74q26 -26 42 -72.5
t16 -103.5q0 -58 -15 -147h-217q13 61 13 106q0 51 -23 80q-23 31 -74 31q-59 0 -96 -37q-46 -44 -66 -147q-10 -52 -10 -99q0 -77 80 -116l117 -56q105 -51 146.5 -106.5t41.5 -143.5q0 -89 -20 -192q-24 -122 -53.5 -188t-77.5 -113q-82 -79 -207 -90l-43 -225h-195
l45 229q-81 16 -137 76q-65 68 -65 178q0 53 16 147z" />
    <glyph glyph-name="percent" unicode="%" horiz-adv-x="1421" 
d="M340 965q-8 -40 -8 -54q0 -63 69 -63q78 0 97 100l55 273q8 36 8 53q0 63 -69 63q-78 0 -97 -100zM176 963l53 266q27 132 97 189t182 57q101 0 159 -53t58 -134q0 -29 -8 -65l-53 -267q-26 -131 -93.5 -188t-185.5 -57q-101 0 -159 52.5t-58 133.5q0 30 8 66zM283 0
l774 1458h160l-777 -1458h-157zM944 238q-8 -40 -8 -54q0 -63 70 -63q77 0 96 100l55 273q8 36 8 53q0 63 -69 63q-78 0 -97 -100zM780 236l54 266q27 132 96.5 189t181.5 57q101 0 159 -53t58 -134q0 -29 -8 -65l-53 -267q-26 -131 -93.5 -188t-185.5 -57q-101 0 -159 52.5
t-58 133.5q0 30 8 66z" />
    <glyph glyph-name="ampersand" unicode="&#x26;" horiz-adv-x="966" 
d="M18 281q0 155 76 275.5t225 240.5q-92 220 -92 323q0 156 86 254.5t238 98.5q125 0 192.5 -75t67.5 -194q0 -86 -31.5 -160.5t-78.5 -130t-128 -127.5l-26 -24l112 -273q65 104 109 277h176q-29 -124 -85.5 -253.5t-119.5 -219.5l119 -293h-213l-53 125
q-138 -141 -299 -141q-136 0 -205.5 83.5t-69.5 213.5zM219 324q0 -70 30.5 -108t84.5 -38q88 0 190 119l-135 326q-170 -155 -170 -299zM477 934l27 22q117 105 117 226q0 102 -82 102q-49 0 -80 -46t-31 -110q0 -79 49 -194z" />
    <glyph glyph-name="quotesingle" unicode="'" horiz-adv-x="475" 
d="M242 1049l82 409h196l-82 -409h-196z" />
    <glyph glyph-name="parenleft" unicode="(" horiz-adv-x="516" 
d="M20 111q0 58 17 143l190 960q19 94 38 147.5t59 111.5q51 75 182 178l115 -150q-60 -54 -85 -78.5t-44 -52.5q-44 -63 -62 -168l-190 -958q-15 -76 -15 -109q0 -48 21 -90t69 -104l-157 -131q-76 97 -107 165.5t-31 135.5z" />
    <glyph glyph-name="parenright" unicode=")" horiz-adv-x="512" 
d="M571 1350q0 -64 -16 -144l-190 -960q-19 -94 -38 -147t-59 -111q-51 -75 -182 -178l-115 149q60 54 85 78.5t44 52.5q44 63 62 168l190 959q15 77 15 108q0 48 -21.5 90t-69.5 105l158 131q75 -97 106 -165.5t31 -135.5z" />
    <glyph glyph-name="asterisk" unicode="*" horiz-adv-x="804" 
d="M375 741l57 250l-237 -92l-50 129l248 78l-196 168l94 104l180 -176l43 254l135 -24l-57 -252l235 92l52 -129l-248 -78l196 -168l-94 -102l-180 174l-43 -252z" />
    <glyph glyph-name="plus" unicode="+" horiz-adv-x="886" 
d="M281 213l55 281h-258l39 194h258l55 281h197l-54 -281h258l-38 -194h-258l-58 -281h-196z" />
    <glyph glyph-name="comma" unicode="," horiz-adv-x="442" 
d="M-59 -305l112 557h223l-77 -383z" />
    <glyph glyph-name="hyphen" unicode="-" horiz-adv-x="563" 
d="M78 494l39 194h391l-39 -194h-391z" />
    <glyph glyph-name="period" unicode="." horiz-adv-x="452" 
d="M2 0l49 250h236l-49 -250h-236z" />
    <glyph glyph-name="slash" unicode="/" horiz-adv-x="583" 
d="M-127 -152l713 1762h192l-715 -1762h-190z" />
    <glyph glyph-name="zero" unicode="0" horiz-adv-x="776" 
d="M205 1147q31 173 125 252q91 76 229 76q141 0 205 -74q35 -39 48 -78.5t13 -93.5q0 -45 -12 -103l-162 -815q-36 -176 -127 -252q-87 -75 -227 -75q-141 0 -207 73q-61 64 -61 172q0 45 12 103zM410 1155l-168 -842q-6 -34 -6 -61q0 -40 22.5 -63t60.5 -23q43 0 77 32.5
t48 104.5l168 842q6 35 6 61q0 40 -22.5 63t-60.5 23q-43 0 -77 -32.5t-48 -104.5z" />
    <glyph glyph-name="one" unicode="1" horiz-adv-x="776" 
d="M229 0l240 1206l-242 -176l52 252l241 176h205l-291 -1458h-205z" />
    <glyph glyph-name="two" unicode="2" horiz-adv-x="776" 
d="M-16 0l32 172l484 719q116 175 116 307q0 94 -77 94q-94 0 -121 -137l-17 -88h-204l14 82q35 186 137 262q85 64 207 64q144 0 211 -84q57 -69 57 -181q0 -166 -157 -397l-428 -631h393l-35 -182h-612z" />
    <glyph glyph-name="three" unicode="3" horiz-adv-x="776" 
d="M186 1063l19 88q18 95 47.5 155t85.5 105q84 64 211 64q144 0 207 -80q49 -65 49 -154q0 -65 -19 -162q-20 -94 -36.5 -142t-44.5 -83q-38 -50 -93 -80q88 -53 88 -172q0 -52 -26 -186q-32 -160 -58.5 -228.5t-80.5 -121.5q-82 -82 -238 -82q-68 0 -127 22.5t-92 63.5
q-51 64 -51 155q0 57 10 111l12 59h205l-12 -67q-9 -52 -9 -66q0 -46 22 -71t60 -25q47 0 80 33q23 25 37.5 67t36.5 150q27 138 27 178t-21 64t-61 24h-68l37 180h57q46 0 72 29q25 26 36.5 59t31.5 125q20 94 20 139q0 35 -18 56.5t-54 21.5q-42 0 -72.5 -31t-43.5 -96
l-21 -102h-205z" />
    <glyph glyph-name="four" unicode="4" horiz-adv-x="776" 
d="M-20 227l36 183l564 1048h204l-551 -1048h173l53 268h205l-54 -268h95l-37 -183h-95l-45 -227h-204l45 227h-389z" />
    <glyph glyph-name="five" unicode="5" horiz-adv-x="776" 
d="M49 381h205l-10 -49q-8 -39 -8 -70q0 -44 21 -70t60 -26q45 0 82 37q24 26 42.5 81.5t43.5 188.5q33 175 33 217q0 43 -19.5 69.5t-60.5 26.5q-45 0 -81.5 -36t-49.5 -99l-6 -33h-195l170 840h592l-37 -182h-407l-76 -387q29 33 74 55q52 25 110 25q96 0 148 -62
q47 -56 47 -145q0 -98 -37 -289q-40 -198 -68.5 -274.5t-82.5 -130.5q-84 -84 -242 -84q-148 0 -217 84q-53 67 -53 157q0 49 12 107z" />
    <glyph glyph-name="six" unicode="6" horiz-adv-x="776" 
d="M31 242q0 73 26 200q40 204 119 344l375 672h221l-342 -588q33 23 84 23q96 0 146.5 -63.5t50.5 -159.5q0 -67 -31 -228q-30 -157 -57 -228.5t-72 -119.5q-51 -56 -112.5 -83t-147.5 -27q-137 0 -207 86q-53 70 -53 172zM236 262q0 -96 77 -96q48 0 82 37q26 29 42 79
t40 164q25 132 25 181q0 40 -19 65t-59 25q-48 0 -82 -37q-43 -47 -80 -234q-26 -127 -26 -184z" />
    <glyph glyph-name="seven" unicode="7" horiz-adv-x="776" 
d="M47 0l606 1276h-245l-41 -199h-191l76 381h647l-35 -170l-606 -1288h-211z" />
    <glyph glyph-name="eight" unicode="8" horiz-adv-x="776" 
d="M195 1081q26 131 55 199.5t76 112.5q82 82 225 82q148 0 215 -82q49 -62 49 -154q0 -81 -18 -174q-32 -157 -76 -219q-43 -59 -98 -96q29 -26 47 -56q26 -48 26 -108q0 -67 -22 -174q-32 -164 -57 -227t-76 -113q-91 -88 -242 -88q-70 0 -128 22.5t-91 63.5
q-51 67 -51 157q0 83 22 185q25 122 42.5 176t45.5 92q37 51 105 96q-31 31 -45 58q-21 44 -21 102q0 64 17 145zM592 1073q20 113 20 129q0 43 -20 66q-18 24 -55 24q-44 0 -72 -32q-38 -41 -68 -187q-20 -113 -20 -131q0 -42 20 -65q19 -25 56 -25q42 0 71 33
q38 41 68 188zM471 418q25 134 25 160q0 45 -21 69q-24 27 -63 27q-45 0 -80 -35q-23 -25 -38.5 -70t-37.5 -151q-23 -124 -23 -156q0 -45 21 -69q24 -27 63 -27q45 0 80 35q23 25 37.5 67.5t36.5 149.5z" />
    <glyph glyph-name="nine" unicode="9" horiz-adv-x="776" 
d="M821 1217q0 -74 -26 -201q-40 -204 -119 -344l-375 -672h-221l342 588q-33 -23 -84 -23q-96 0 -146.5 63.5t-50.5 159.5q0 67 31 228q30 157 57 228.5t72 119.5q52 56 113 83.5t147 27.5q137 0 207 -86q53 -70 53 -172zM616 1196q0 96 -77 96q-48 0 -82 -37
q-26 -29 -42 -79t-40 -164q-25 -132 -25 -181q0 -40 19 -65t59 -25q48 0 82 37q43 47 80 234q26 127 26 184z" />
    <glyph glyph-name="colon" unicode=":" horiz-adv-x="497" 
d="M47 0l49 250h236l-49 -250h-236zM174 643l49 250h236l-49 -250h-236z" />
    <glyph glyph-name="semicolon" unicode=";" horiz-adv-x="497" 
d="M-8 -305l112 557h224l-78 -383zM174 641l49 250h236l-49 -250h-236z" />
    <glyph glyph-name="less" unicode="&#x3c;" horiz-adv-x="776" 
d="M63 522l31 158l725 397l-51 -252l-444 -239l350 -242l-45 -221z" />
    <glyph glyph-name="equal" unicode="=" horiz-adv-x="886" 
d="M41 307l39 195h715l-39 -195h-715zM115 668l39 194h712l-39 -194h-712z" />
    <glyph glyph-name="greater" unicode="&#x3e;" horiz-adv-x="776" 
d="M739 666l-30 -158l-725 -397l51 251l444 240l-350 242l45 221z" />
    <glyph glyph-name="question" unicode="?" horiz-adv-x="825" 
d="M305 406l29 145q10 51 32 93.5t74 98.5l140 156q41 45 59 83.5t29 96.5q12 74 12 103q0 50 -25 75q-28 31 -73 31q-50 0 -93 -37q-42 -40 -67 -166h-203q25 120 55.5 190t83.5 114q93 81 244 81q162 0 234 -94q49 -67 49 -164q0 -60 -15 -139q-20 -93 -48 -151.5
t-77 -112.5l-137 -152q-61 -66 -73 -131l-25 -120h-205zM213 0l49 250h236l-49 -250h-236z" />
    <glyph glyph-name="at" unicode="@" horiz-adv-x="1177" 
d="M92 -25q-67 82 -67 185q0 47 12 108l170 854q37 180 133 258q93 78 260 78h295q182 0 250 -88q53 -66 53 -160q0 -46 -12 -108l-219 -1102h-191l12 74q-39 -42 -73 -60q-51 -30 -123 -30q-106 0 -162 86q-31 51 -31 110q0 55 13 121l77 387q32 158 105 234q82 82 201 82
q55 0 100 -31q34 -21 53 -62l37 174q6 33 6 74q0 117 -121 117h-264q-172 0 -211 -184l-162 -816q-6 -30 -6 -61q0 -49 35 -96zM612 252q0 -41 21 -63.5t55 -22.5q48 0 86.5 34t50.5 93l78 401q6 24 6 43q0 37 -24.5 60.5t-61.5 23.5q-45 0 -80.5 -32.5t-46.5 -94.5
l-80 -401q-4 -24 -4 -41z" />
    <glyph glyph-name="A" unicode="A" horiz-adv-x="907" 
d="M791 0h-218l2 295h-321l-119 -295h-231l628 1458h213zM573 489l5 635l-246 -635h241z" />
    <glyph glyph-name="B" unicode="B" horiz-adv-x="913" 
d="M8 0l291 1458h324q91 0 148.5 -20t94.5 -68q54 -69 54 -174q0 -56 -17 -137q-20 -97 -42 -149.5t-73 -98.5q-37 -34 -81 -51q38 -14 65 -53q41 -56 41 -138q0 -72 -16 -151q-27 -135 -61 -210t-87 -124q-54 -48 -120 -66t-175 -18h-346zM264 195h107q93 0 139 50.5
t72 180.5q12 64 12 109q0 69 -32 101t-101 32h-103zM395 852h92q85 0 131 48t68 155q12 53 12 94q0 59 -27.5 87t-95.5 28h-98z" />
    <glyph glyph-name="C" unicode="C" horiz-adv-x="866" 
d="M55 301q0 112 62 428q46 224 79 346t65.5 186t80.5 111q103 103 270 103q163 0 242 -97q61 -77 61 -204q0 -58 -6 -95h-217q6 31 6 82q0 119 -102 119q-64 0 -104 -43q-43 -44 -72.5 -140.5t-85.5 -367.5q-62 -312 -62 -426q0 -125 105 -125q69 0 112 53q47 56 68 150
h219q-24 -112 -61 -185t-99 -128q-96 -84 -260 -84q-178 0 -252 116q-27 44 -38 89t-11 112z" />
    <glyph glyph-name="D" unicode="D" horiz-adv-x="915" 
d="M264 195h123q82 0 129 57q37 46 66 153t73 326q66 310 66 410q0 56 -29 88q-27 35 -86 35h-129zM8 0l291 1458h342q94 0 151 -29.5t97 -91.5q49 -79 49 -196q0 -83 -66 -410q-63 -313 -103.5 -435.5t-109.5 -189.5q-57 -55 -125.5 -80.5t-162.5 -25.5h-363z" />
    <glyph glyph-name="E" unicode="E" horiz-adv-x="768" 
d="M8 0l291 1458h582l-39 -194h-365l-86 -433h314l-39 -192h-314l-88 -444h365l-39 -195h-582z" />
    <glyph glyph-name="F" unicode="F" horiz-adv-x="753" 
d="M8 0l291 1458h582l-39 -194h-365l-86 -433h314l-39 -194h-314l-127 -637h-217z" />
    <glyph glyph-name="G" unicode="G" horiz-adv-x="882" 
d="M850 793l-80 -404q-41 -209 -143 -307t-275 -98q-174 0 -248 116q-27 44 -38 89t-11 112q0 112 62 428q46 224 79 346t65.5 186t80.5 111q103 103 270 103q163 0 242 -97q61 -77 61 -204q0 -58 -6 -95h-217q6 31 6 82q0 119 -102 119q-64 0 -104 -43
q-43 -44 -72.5 -140.5t-85.5 -367.5q-62 -312 -62 -426q0 -125 103 -125q136 0 176 195l49 243h-133l33 177h350z" />
    <glyph glyph-name="H" unicode="H" horiz-adv-x="935" 
d="M8 0l291 1458h217l-123 -620h271l124 620h218l-291 -1458h-217l129 645h-273l-129 -645h-217z" />
    <glyph glyph-name="I" unicode="I" horiz-adv-x="448" 
d="M8 0l291 1458h217l-291 -1458h-217z" />
    <glyph glyph-name="J" unicode="J" horiz-adv-x="755" 
d="M-61 119l165 123q47 -64 115 -64q140 0 184 211l213 1069h218l-216 -1075q-41 -211 -133 -297q-110 -102 -272 -102q-193 0 -274 135z" />
    <glyph glyph-name="K" unicode="K" horiz-adv-x="909" 
d="M8 0l291 1458h217l-129 -647l414 647h237l-399 -604l152 -854h-220l-106 618l-166 -243l-74 -375h-217z" />
    <glyph glyph-name="L" unicode="L" horiz-adv-x="741" 
d="M8 0l291 1458h217l-252 -1263h365l-39 -195h-582z" />
    <glyph glyph-name="M" unicode="M" horiz-adv-x="1155" 
d="M8 0l291 1458h197l114 -753l418 753h197l-291 -1458h-217l180 905l-303 -579h-121l-65 583l-183 -909h-217z" />
    <glyph glyph-name="N" unicode="N" horiz-adv-x="944" 
d="M8 0l291 1458h182l148 -883l168 883h217l-291 -1458h-174l-148 883l-176 -883h-217z" />
    <glyph glyph-name="O" unicode="O" horiz-adv-x="894" 
d="M117 729q69 332 111.5 454t113.5 191q54 53 118.5 77t151.5 24q184 0 256 -121q28 -43 39 -86.5t11 -108.5q0 -119 -64 -430q-67 -332 -110 -454t-115 -191q-100 -100 -269 -100q-187 0 -258 120q-26 42 -36.5 86t-10.5 109q0 114 62 430zM637 729q63 313 63 424
q0 127 -108 127q-60 0 -103 -43q-40 -40 -70.5 -140t-84.5 -368q-64 -318 -64 -424q0 -127 109 -127q59 0 102 43q40 40 71 141t85 367z" />
    <glyph glyph-name="P" unicode="P" horiz-adv-x="888" 
d="M8 0l291 1458h330q85 0 140 -18t95 -58q68 -68 68 -198q0 -76 -17 -170q-27 -132 -66 -220t-94 -137t-119 -68.5t-151 -19.5h-147l-113 -569h-217zM377 764h119q84 0 129 56t73 194q17 87 17 127q0 63 -29 93t-96 30h-113z" />
    <glyph glyph-name="Q" unicode="Q" horiz-adv-x="894" 
d="M854 729q-54 -264 -88.5 -383.5t-77.5 -185.5l86 -90l-115 -117l-84 86q-88 -55 -215 -55q-187 0 -258 120q-26 42 -36.5 86t-10.5 109q0 129 62 430q46 227 78.5 347.5t65 185t81.5 112.5q54 53 118.5 77t151.5 24q184 0 256 -121q28 -43 39 -86.5t11 -108.5
q0 -119 -64 -430zM381 178q34 0 61 15l-69 75l106 109l56 -60q35 78 102 412q63 313 63 424q0 127 -108 127q-60 0 -103 -43q-40 -40 -70.5 -140t-84.5 -368q-62 -308 -62 -424q0 -127 109 -127z" />
    <glyph glyph-name="R" unicode="R" horiz-adv-x="925" 
d="M8 0l291 1458h342q152 0 223.5 -70t71.5 -194q0 -72 -18 -166q-25 -124 -59.5 -201.5t-75.5 -116.5t-105 -67l78 -643h-217l-66 604h-127l-121 -604h-217zM383 793h131q76 0 119.5 59t66.5 176q15 81 15 117q0 59 -26 89t-89 30h-123z" />
    <glyph glyph-name="S" unicode="S" horiz-adv-x="856" 
d="M41 397h217q-12 -65 -12 -102q0 -53 24 -80q29 -37 88 -37q67 0 111 41q28 27 42.5 60t29.5 106q14 66 14 129q0 82 -98 127l-135 66q-83 40 -117.5 94.5t-34.5 134.5q0 84 16 160q39 192 129 278q101 101 265 101q88 0 142.5 -21.5t100.5 -67.5q26 -26 42 -72.5
t16 -103.5q0 -58 -15 -147h-217q13 61 13 106q0 51 -23 80q-23 31 -74 31q-59 0 -96 -37q-46 -44 -66 -147q-10 -52 -10 -99q0 -77 80 -116l117 -56q105 -51 146.5 -106.5t41.5 -143.5q0 -89 -20 -192q-24 -122 -53.5 -188t-77.5 -113q-52 -50 -119.5 -73t-167.5 -23
q-170 0 -250 86q-65 68 -65 178q0 53 16 147z" />
    <glyph glyph-name="T" unicode="T" horiz-adv-x="759" 
d="M166 0l252 1264h-232l39 194h680l-39 -194h-231l-252 -1264h-217z" />
    <glyph glyph-name="U" unicode="U" horiz-adv-x="913" 
d="M72 375l217 1083h217l-221 -1102q-6 -30 -6 -63q0 -56 28 -85.5t82 -29.5q61 0 106 44t60 122l221 1114h217l-221 -1116q-36 -174 -141 -268q-100 -90 -271 -90q-147 0 -229 88q-70 73 -70 198q0 56 11 105z" />
    <glyph glyph-name="V" unicode="V" horiz-adv-x="847" 
d="M205 0l-12 1458h237l-45 -1112l401 1112h238l-594 -1458h-225z" />
    <glyph glyph-name="W" unicode="W" horiz-adv-x="1396" 
d="M158 0l41 1458h229l-74 -1120l410 1120h237l-20 -1120l356 1120h230l-527 -1458h-243l16 1108l-412 -1108h-243z" />
    <glyph glyph-name="X" unicode="X" horiz-adv-x="835" 
d="M-78 0l410 764l-111 694h234l45 -479l231 479h246l-399 -708l129 -750h-236l-61 518l-242 -518h-246z" />
    <glyph glyph-name="Y" unicode="Y" horiz-adv-x="753" 
d="M162 0l114 582l-83 876h225l22 -590l250 590h238l-439 -897l-110 -561h-217z" />
    <glyph glyph-name="Z" unicode="Z" horiz-adv-x="722" 
d="M-47 0l31 158l596 1106h-357l39 194h588l-33 -158l-594 -1105h379l-39 -195h-610z" />
    <glyph glyph-name="bracketleft" unicode="[" horiz-adv-x="544" 
d="M-35 -152l352 1762h388l-37 -183h-181l-278 -1396h180l-37 -183h-387z" />
    <glyph glyph-name="backslash" unicode="\" horiz-adv-x="587" 
d="M250 -152l-35 1762h201l35 -1762h-201z" />
    <glyph glyph-name="bracketright" unicode="]" horiz-adv-x="544" 
d="M655 1610l-352 -1762h-387l37 183h180l279 1396h-181l37 183h387z" />
    <glyph glyph-name="asciicircum" unicode="^" horiz-adv-x="884" 
d="M156 889l385 579h180l153 -579h-186l-90 371l-233 -371h-209z" />
    <glyph glyph-name="underscore" unicode="_" horiz-adv-x="886" 
d="M-137 -156h885l-31 -157h-885z" />
    <glyph glyph-name="grave" unicode="`" 
d="M449 1198l-107 283h168l84 -283h-145z" />
    <glyph glyph-name="a" unicode="a" horiz-adv-x="770" 
d="M29 76q-33 50 -33 141q0 39 12 107q14 71 51 135t88 104q46 37 101 52.5t141 15.5h103l26 139q8 36 8 59q0 39 -20.5 61.5t-59.5 22.5q-43 0 -75 -28q-36 -36 -49 -109h-205q34 165 125 244q82 76 227 76q153 0 215 -82q47 -58 47 -162q0 -46 -12 -104l-148 -748h-194
l18 90q-34 -46 -76 -72q-50 -34 -118 -34q-118 0 -172 92zM207 264q0 -46 22 -72t64 -26q51 0 87 42t48 109l35 168h-66q-46 0 -69.5 -7t-48.5 -27q-32 -27 -52 -80.5t-20 -106.5z" />
    <glyph glyph-name="b" unicode="b" horiz-adv-x="788" 
d="M723 541q-46 -234 -79.5 -332t-80.5 -143q-85 -82 -196 -82q-65 0 -105 32q-38 27 -55 66l-17 -82h-196l291 1458h204l-88 -444q35 38 64 53q56 29 106 29q119 0 166 -84q33 -54 33 -142q0 -104 -47 -329zM518 541q43 215 43 276q0 50 -20 70q-23 26 -58 26
q-44 0 -75 -28q-43 -43 -56 -113l-92 -465q-6 -34 -6 -55q0 -41 22 -66q17 -20 58 -20q43 0 78 35q30 28 53.5 110.5t52.5 229.5z" />
    <glyph glyph-name="c" unicode="c" horiz-adv-x="743" 
d="M70 541q40 201 74 298t85 156q91 101 252 101q165 0 224 -109q34 -58 34 -147q0 -43 -6 -74h-201q5 34 5 59q0 42 -21 66q-19 22 -57 22q-52 0 -88 -45q-27 -34 -45.5 -101.5t-51.5 -225.5q-45 -221 -45 -283q0 -49 25 -74q21 -18 55 -18q43 0 76 29q36 34 57 118h203
q-36 -151 -104 -229q-90 -100 -254 -100q-155 0 -219 102q-41 65 -41 164q0 76 43 291z" />
    <glyph glyph-name="d" unicode="d" horiz-adv-x="788" 
d="M68 541q46 231 79.5 329t79.5 144q85 82 199 82q62 0 102 -31q36 -29 52 -55l88 448h204l-290 -1458h-197l14 78q-12 -17 -34 -37t-39 -29q-51 -28 -107 -28q-117 0 -166 84q-33 62 -33 141q0 99 48 332zM272 541q-41 -208 -41 -279q0 -47 19 -69q21 -27 59 -27
q47 0 76 29q39 39 53 112l92 465q7 40 7 55q0 41 -21 66q-17 20 -57 20q-46 0 -80 -34q-30 -28 -54 -111t-53 -227z" />
    <glyph glyph-name="e" unicode="e" horiz-adv-x="761" 
d="M61 96q-32 55 -32 154q0 86 41 291q42 204 75.5 300t83.5 154q87 101 256 101q146 0 209 -92q41 -59 41 -168t-49 -357h-424q-33 -165 -33 -221q0 -44 23 -70q19 -22 57 -22q47 0 76 29q37 34 57 118h205q-20 -83 -44.5 -135.5t-63.5 -95.5q-89 -98 -252 -98
q-164 0 -226 112zM293 635h219q27 126 27 184q0 94 -80 94q-52 0 -86 -43q-24 -29 -41 -82t-39 -153z" />
    <glyph glyph-name="f" unicode="f" horiz-adv-x="524" 
d="M33 0l178 895h-102l30 154h105l18 94q20 95 54.5 159t93.5 105q50 36 107.5 49.5t158.5 13.5l-37 -182q-76 0 -118.5 -39.5t-57.5 -118.5l-14 -81h141l-31 -154h-143l-178 -895h-205z" />
    <glyph glyph-name="g" unicode="g" horiz-adv-x="788" 
d="M74 565q45 222 76.5 313t76.5 136q85 82 197 82q62 0 104 -31q38 -27 56 -68l16 82h197l-222 -1110q-22 -111 -51.5 -176t-79.5 -108q-87 -76 -233 -76q-121 0 -191.5 66.5t-70.5 179.5q0 40 6 73h203q-4 -25 -4 -53q0 -37 21.5 -59.5t60.5 -22.5q45 0 79 31q21 19 32 49
t24 92l28 152q-25 -31 -63 -54q-54 -28 -109 -28q-115 0 -164 84q-32 55 -32 141q0 93 43 305zM279 565q-37 -182 -37 -252q0 -46 20 -69q24 -27 62 -27q42 0 73 31q38 35 52 110l81 414q7 40 7 55q0 40 -21 64q-22 22 -57 22q-46 0 -80 -34q-29 -27 -50 -97.5t-50 -216.5z
" />
    <glyph glyph-name="h" unicode="h" horiz-adv-x="808" 
d="M-6 0l291 1458h204l-90 -446q40 40 70 57q52 27 106 27q69 0 107 -23t63 -63q31 -53 31 -129q0 -29 -16 -115l-152 -766h-205l152 764q8 41 8 65q0 37 -21.5 60.5t-60.5 23.5q-102 0 -131 -149l-151 -764h-205z" />
    <glyph glyph-name="i" unicode="i" horiz-adv-x="405" 
d="M-6 0l209 1049h205l-209 -1049h-205zM231 1219l45 221h216l-46 -221h-215z" />
    <glyph glyph-name="j" unicode="j" horiz-adv-x="405" 
d="M-14 -35l217 1084h205l-220 -1102q-19 -96 -53.5 -160t-93.5 -104q-54 -37 -110 -49.5t-154 -12.5l37 182q74 0 114 40t58 122zM231 1219l45 221h216l-46 -221h-215z" />
    <glyph glyph-name="k" unicode="k" horiz-adv-x="817" 
d="M-6 0l291 1458h204l-163 -825l338 446h229l-344 -440l137 -639h-205l-98 463l-125 -160l-59 -303h-205z" />
    <glyph glyph-name="l" unicode="l" horiz-adv-x="471" 
d="M106 72q-61 61 -61 166q0 53 8 92l226 1128h204l-221 -1114q-6 -31 -6 -65q0 -45 28 -71t83 -26l-35 -182q-154 0 -226 72z" />
    <glyph glyph-name="m" unicode="m" horiz-adv-x="1216" 
d="M-6 0l215 1079h197l-17 -78q45 49 80 68q49 27 109 27q75 0 115.5 -29.5t64.5 -81.5q44 49 108 84q56 27 119 27q118 0 168 -86q31 -48 31 -129q0 -21 -17 -115l-151 -766h-205l152 764q8 41 8 65q0 37 -21 60.5t-59 23.5q-102 0 -131 -149l-152 -764h-205l152 764
q8 41 8 65q0 37 -21 60.5t-59 23.5q-103 0 -133 -149l-151 -764h-205z" />
    <glyph glyph-name="n" unicode="n" horiz-adv-x="808" 
d="M-6 0l215 1079h197l-17 -78q45 49 80 68q52 27 106 27q69 0 107 -23t63 -63q31 -53 31 -129q0 -27 -16 -115l-152 -766h-205l152 764q8 41 8 65q0 37 -21.5 60.5t-60.5 23.5q-101 0 -131 -149l-151 -764h-205z" />
    <glyph glyph-name="o" unicode="o" 
d="M70 541q43 210 75.5 302.5t85.5 151.5q88 101 250 101q164 0 224 -111q34 -58 34 -156q0 -86 -41 -288q-42 -209 -75.5 -303.5t-85.5 -153.5q-87 -100 -250 -100q-166 0 -226 110q-32 60 -32 158q0 84 41 289zM494 541q43 208 43 278q0 48 -19 70q-21 24 -59 24
q-52 0 -86 -43q-27 -36 -48 -110t-51 -219q-43 -208 -43 -281q0 -48 19 -70q21 -24 59 -24q52 0 86 43q27 35 48 110t51 222z" />
    <glyph glyph-name="p" unicode="p" horiz-adv-x="788" 
d="M723 541q-49 -240 -81.5 -335t-78.5 -140q-85 -82 -196 -82q-66 0 -105 30q-34 27 -49 56l-90 -449h-205l291 1458h197l-15 -78q12 17 34.5 37t39.5 29q56 29 106 29q119 0 166 -84q33 -54 33 -142q0 -100 -47 -329zM518 541q43 201 43 276q0 50 -20 70q-23 26 -58 26
q-44 0 -75 -28q-43 -43 -56 -113l-92 -465q-6 -34 -6 -55q0 -41 22 -66q17 -20 58 -20q43 0 78 35q30 28 53.5 110.5t52.5 229.5z" />
    <glyph glyph-name="q" unicode="q" horiz-adv-x="788" 
d="M68 541q49 237 81.5 332.5t77.5 140.5q85 82 197 82q62 0 104 -31q38 -27 56 -68l16 82h197l-291 -1458h-205l90 445q-37 -38 -65 -54q-51 -28 -107 -28q-117 0 -166 84q-33 62 -33 141q0 95 48 332zM272 541q-41 -208 -41 -279q0 -47 19 -69q21 -27 59 -27q47 0 76 29
q39 39 53 112l92 465q7 40 7 55q0 45 -21 66q-20 20 -57 20q-46 0 -80 -34q-30 -27 -54 -109.5t-53 -228.5z" />
    <glyph glyph-name="r" unicode="r" horiz-adv-x="579" 
d="M-6 0l215 1079h197l-23 -114q38 57 102 92q69 39 174 39l-41 -199h-69q-74 0 -133.5 -53.5t-77.5 -143.5l-139 -700h-205z" />
    <glyph glyph-name="s" unicode="s" horiz-adv-x="735" 
d="M55 68q-57 63 -57 165q0 37 8 78h203q-4 -16 -4 -47q0 -41 20 -67q27 -31 78 -31q54 0 88 37q41 44 41 119q0 40 -19 70.5t-69 58.5l-98 53q-142 75 -142 229q0 81 29.5 156.5t89.5 128.5q84 78 230 78q150 0 221 -88q49 -65 49 -152q0 -28 -10 -80h-195q4 18 4 49
q0 35 -20 62q-23 26 -72 26q-50 0 -78 -28q-43 -43 -43 -115q0 -64 76 -106l96 -54q158 -85 158 -256q0 -90 -33.5 -166.5t-85.5 -121.5q-95 -82 -239 -82q-148 0 -226 84z" />
    <glyph glyph-name="t" unicode="t" horiz-adv-x="530" 
d="M90 238q0 46 10 98l113 559h-104l30 154h105l61 307h205l-61 -307h143l-33 -154h-141l-109 -547q-8 -33 -8 -67q0 -46 30.5 -72.5t88.5 -26.5l-35 -182q-156 0 -231 72q-64 64 -64 166z" />
    <glyph glyph-name="u" unicode="u" horiz-adv-x="808" 
d="M817 1079l-215 -1079h-196l16 78q-45 -49 -80 -68q-50 -26 -106 -26q-69 0 -107 23t-63 63q-31 53 -31 129q0 26 16 114l152 766h205l-152 -764q-8 -41 -8 -65q0 -37 21.5 -60.5t60.5 -23.5q101 0 131 149l151 764h205z" />
    <glyph glyph-name="v" unicode="v" horiz-adv-x="737" 
d="M154 0l-37 1079h215l-6 -751l295 751h217l-467 -1079h-217z" />
    <glyph glyph-name="w" unicode="w" horiz-adv-x="1134" 
d="M123 0v1079h211l-39 -743l295 743h168l-2 -745l254 745h217l-436 -1079h-187v717l-291 -717h-190z" />
    <glyph glyph-name="x" unicode="x" horiz-adv-x="759" 
d="M-78 0l336 555l-119 524h215l64 -342l190 342h226l-342 -542l141 -537h-215l-72 348l-196 -348h-228z" />
    <glyph glyph-name="y" unicode="y" horiz-adv-x="739" 
d="M-84 -197q97 3 147 50q20 19 49 66.5t44 82.5l-39 1077h213l-6 -760l290 760h232l-531 -1218q-28 -63 -62.5 -107.5t-71 -70t-87.5 -39.5t-99 -18.5t-118 -4.5z" />
    <glyph glyph-name="z" unicode="z" horiz-adv-x="634" 
d="M-57 0l28 152l439 745h-279l35 182h516l-31 -151l-446 -746h307l-35 -182h-534z" />
    <glyph glyph-name="braceleft" unicode="{" horiz-adv-x="647" 
d="M131 68q0 23 14 86l62 321q16 82 16 94q0 35 -22 56.5t-66 21.5h-59l35 182h63q58 0 88 39t53 150l64 305q19 93 40.5 141.5t61.5 85.5q63 60 219 60h107l-37 -183h-51q-62 0 -96 -37t-54 -137l-63 -311q-14 -70 -32.5 -105.5t-49.5 -64.5q-32 -28 -90 -43q43 -12 67 -43
q29 -39 29 -90q0 -34 -12 -98l-62 -308q-12 -54 -12 -75q0 -84 88 -84h60l-37 -183h-84q-131 0 -193 76q-47 56 -47 144z" />
    <glyph glyph-name="bar" unicode="|" horiz-adv-x="636" 
d="M78 -152l352 1762h205l-352 -1762h-205z" />
    <glyph glyph-name="braceright" unicode="}" horiz-adv-x="647" 
d="M594 1391q0 -23 -14 -86l-62 -322q-16 -82 -16 -94q0 -35 22 -56.5t66 -21.5h59l-35 -182h-63q-58 0 -88 -39t-53 -150l-64 -305q-19 -93 -40.5 -141.5t-61.5 -85.5q-63 -60 -219 -60h-107l37 183h51q62 0 96 37t54 137l63 311q14 70 32.5 105.5t49.5 64.5q32 28 90 43
q-43 12 -67 43q-29 39 -29 90q0 34 12 99l62 307q12 54 12 75q0 84 -88 84h-60l37 183h84q131 0 193 -76q47 -56 47 -143z" />
    <glyph glyph-name="asciitilde" unicode="~" horiz-adv-x="886" 
d="M160 469l-103 135q85 73 145.5 104t123.5 31q48 0 82.5 -13t78.5 -42q66 -41 119 -41q39 0 74 18t80 62l104 -135q-80 -70 -142 -100.5t-126 -30.5q-80 0 -162 53q-62 41 -119 41q-70 0 -155 -82z" />
    <glyph glyph-name="uni00A0" unicode="&#xa0;" horiz-adv-x="346" 
 />
    <glyph glyph-name="exclamdown" unicode="&#xa1;" horiz-adv-x="497" 
d="M348 674l-188 -1053h-234l217 1053h205zM451 1079l-50 -250h-235l49 250h236z" />
    <glyph glyph-name="cent" unicode="&#xa2;" horiz-adv-x="757" 
d="M84 465q0 111 37 278q39 193 71 287.5t82 145.5q37 40 80.5 61.5t106.5 28.5l39 192h157l-36 -192q61 -10 114 -70q51 -59 51 -170q0 -30 -6 -70h-200q4 24 4 43q0 41 -17 64q-21 27 -63 27q-54 0 -88 -43q-18 -23 -35 -74t-26.5 -93t-28.5 -137q-39 -199 -39 -254
q0 -44 16 -65q22 -29 64 -29q49 0 79 35q35 38 50 98h200q-22 -89 -51 -143.5t-76 -95.5q-60 -57 -159 -68l-43 -221h-158l43 219q-80 18 -129 88q-39 62 -39 158z" />
    <glyph glyph-name="sterling" unicode="&#xa3;" horiz-adv-x="890" 
d="M289 1069q21 112 53 181.5t84 119.5q110 105 279 105q101 0 166.5 -34t109.5 -102l-172 -127q-47 68 -119 68q-143 0 -186 -217l-47 -238h155l-30 -157h-156l-92 -469h424l-37 -199h-645l133 668h-123l33 157h121z" />
    <glyph glyph-name="currency" unicode="&#xa4;" horiz-adv-x="978" 
d="M688 586q0 78 -55 133t-133 55t-133.5 -55t-55.5 -133t55.5 -133.5t133.5 -55.5t133 55.5t55 133.5zM135 586q0 102 51 184l-114 115l129 129l114 -115q82 51 185 51q102 0 184 -51l115 115l129 -129l-115 -115q51 -82 51 -184q0 -103 -51 -185l115 -114l-129 -129
l-115 114q-82 -51 -184 -51q-103 0 -185 51l-114 -114l-129 129l114 114q-51 82 -51 185z" />
    <glyph glyph-name="yen" unicode="&#xa5;" horiz-adv-x="753" 
d="M43 342l31 156h186l16 84l-8 82h-162l31 155h117l-61 639h225l22 -588l250 588h238l-314 -639h109l-31 -155h-153l-50 -103l-12 -63h182l-30 -156h-183l-67 -342h-217l67 342h-186z" />
    <glyph glyph-name="brokenbar" unicode="&#xa6;" horiz-adv-x="636" 
d="M78 -152l143 713h205l-143 -713h-205zM287 897l143 713h205l-143 -713h-205z" />
    <glyph glyph-name="section" unicode="&#xa7;" horiz-adv-x="831" 
d="M90 553q23 114 47.5 174.5t61.5 99.5q43 43 108 66q-88 67 -88 188q0 192 119 297q95 80 237 80q154 0 220 -86q51 -63 51 -153q0 -34 -8 -70h-197q4 16 4 39q0 38 -20 61q-24 27 -68 27q-45 0 -78 -29q-47 -41 -47 -121q0 -65 70 -106l123 -66q61 -30 96 -80
q49 -70 49 -153q0 -43 -25 -168q-39 -195 -102 -270q-41 -49 -113 -78q46 -35 67 -79t21 -116q0 -191 -116 -295q-93 -84 -248 -84q-152 0 -225 80q-60 65 -60 164q0 36 8 72h205q-4 -16 -4 -41q0 -43 23 -66q26 -26 71 -26q51 0 88 32q43 40 43 119q0 74 -77 119l-121 66
q-62 33 -99 79q-40 56 -40 146q0 58 24 178zM541 553q18 81 18 135q0 46 -20 72q-25 31 -74 31q-55 0 -92 -37q-28 -27 -44.5 -72.5t-33.5 -128.5q-19 -85 -19 -135q0 -45 21 -72q25 -31 74 -31q55 0 92 37q28 27 44.5 72.5t33.5 128.5z" />
    <glyph glyph-name="dieresis" unicode="&#xa8;" 
d="M254 1217l39 202h192l-39 -202h-192zM592 1217l39 202h192l-39 -202h-192z" />
    <glyph glyph-name="copyright" unicode="&#xa9;" horiz-adv-x="1636" 
d="M635 729q0 145 11.5 221.5t47.5 118.5q60 72 156 72q85 0 141 -56q60 -60 66 -176h-127q-4 69 -21 88q-19 25 -59 25q-48 0 -64 -33q-26 -46 -26 -260t26 -260q16 -33 64 -33q37 0 59 25q17 19 21 88h127q-6 -116 -66 -176q-56 -56 -141 -56q-96 0 -156 72
q-36 42 -47.5 118.5t-11.5 221.5zM1434 729q0 168 -76.5 305t-210 214t-297.5 77t-298 -77t-211 -214t-77 -305t77 -305t211 -214t298 -77t297.5 77t210 214t76.5 305zM125 729q0 197 97 364t264 264t364 97t364 -97t264 -264t97 -364t-97 -364t-264 -264t-364 -97t-364 97
t-264 264t-97 364z" />
    <glyph glyph-name="ordfeminine" unicode="&#xaa;" horiz-adv-x="641" 
d="M100 776q0 91 31.5 162.5t89.5 114.5q34 29 80.5 40t122.5 11h80l18 96q8 36 8 55q0 29 -16.5 47.5t-48.5 18.5q-33 0 -59 -23t-39 -86h-168q23 134 98 197q68 61 186 61q114 0 166 -55q49 -52 49 -143q0 -45 -10 -90l-115 -576h-159l14 70q-29 -34 -61 -53
q-45 -25 -91 -25q-96 0 -147 72q-29 47 -29 106zM279 825q0 -80 71 -80q40 0 68 33t39 90l24 117h-51q-60 0 -96 -24q-55 -46 -55 -136z" />
    <glyph glyph-name="guillemotleft" unicode="&#xab;" horiz-adv-x="800" 
d="M260 55l-209 510l414 508l-64 -317l-172 -205l90 -203zM614 55l-208 510l413 508l-63 -317l-172 -205l90 -203z" />
    <glyph glyph-name="logicalnot" unicode="&#xac;" horiz-adv-x="886" 
d="M96 528l39 195h692l-88 -432h-192l47 237h-498z" />
    <glyph glyph-name="uni00AD" unicode="&#xad;" horiz-adv-x="563" 
d="M78 494l39 194h393l-39 -194h-393z" />
    <glyph glyph-name="registered" unicode="&#xae;" horiz-adv-x="1636" 
d="M1071 897q0 -66 -10.5 -107t-40.5 -73q-11 -13 -39 -29l115 -358h-133l-99 329h-78v-329h-129v805h213q96 0 148 -52q53 -56 53 -186zM944 897q0 78 -20 98q-21 21 -56 21h-82v-240h82q35 0 56 21q20 20 20 100zM1434 729q0 168 -76.5 305t-210 214t-297.5 77t-298 -77
t-211 -214t-77 -305t77 -305t211 -214t298 -77t297.5 77t210 214t76.5 305zM125 729q0 197 97 364t264 264t364 97t364 -97t264 -264t97 -364t-97 -364t-264 -264t-364 -97t-364 97t-264 264t-97 364z" />
    <glyph glyph-name="macron" unicode="&#xaf;" 
d="M276 1237l27 137h475l-26 -137h-476z" />
    <glyph glyph-name="degree" unicode="&#xb0;" horiz-adv-x="794" 
d="M666 1157q0 62 -41.5 105t-102.5 43t-102 -43t-41 -105t41 -104.5t102 -42.5t102.5 42.5t41.5 104.5zM197 1157q0 135 95 229.5t230 94.5t230.5 -94.5t95.5 -229.5t-95.5 -229t-230.5 -94t-230 94t-95 229z" />
    <glyph glyph-name="plusminus" unicode="&#xb1;" horiz-adv-x="886" 
d="M311 367l56 280h-258l38 195h259l55 280h196l-53 -280h258l-39 -195h-258l-57 -280h-197zM-16 27l39 194h714l-39 -194h-714z" />
    <glyph glyph-name="twosuperior" unicode="&#xb2;" horiz-adv-x="643" 
d="M131 584l23 108l309 424q76 102 76 174q0 60 -56 60q-63 0 -80 -78l-10 -55h-139l10 51q22 115 90 162q51 38 140 38q93 0 139 -49q43 -46 43 -112q0 -104 -98 -238l-271 -367h262l-24 -118h-414z" />
    <glyph glyph-name="threesuperior" unicode="&#xb3;" horiz-adv-x="643" 
d="M248 1212l10 58q11 58 30.5 94.5t59.5 65.5q52 38 141 38q95 0 138 -49q35 -38 35 -110q0 -27 -11 -84q-17 -89 -49 -129q-27 -31 -61 -47q61 -36 61 -115q0 -30 -12 -100q-22 -98 -38.5 -139t-51.5 -70q-58 -52 -160 -52q-99 0 -147 54q-37 40 -37 98q0 44 6 68l8 38
h137l-8 -43q-4 -18 -4 -40q0 -27 15 -41.5t40 -14.5q32 0 56 21q15 13 24 37.5t21 83.5q14 64 14 102q0 53 -57 53h-46l25 113h37q27 0 49 18q15 15 23 34t18 69q10 55 10 71q0 56 -49 56q-61 0 -76 -74l-12 -64h-139z" />
    <glyph glyph-name="acute" unicode="&#xb4;" 
d="M426 1196l197 283h182l-225 -283h-154z" />
    <glyph glyph-name="mu" unicode="&#xb5;" horiz-adv-x="808" 
d="M-88 -379l293 1458h205l-152 -764q-10 -46 -10 -65q0 -40 23.5 -62t56.5 -22q104 0 133 149l151 764h205l-215 -1079h-196l16 78q-36 -39 -78 -66q-38 -24 -96 -24q-37 0 -64 12l-75 -379h-197z" />
    <glyph glyph-name="paragraph" unicode="&#xb6;" horiz-adv-x="1163" 
d="M274 -379l193 965h-82q-120 0 -191 70t-71 200q0 49 22 170q31 167 82 262.5t120.5 132.5t174.5 37h723l-366 -1837h-205l332 1655h-197l-330 -1655h-205z" />
    <glyph glyph-name="periodcentered" unicode="&#xb7;" horiz-adv-x="526" 
d="M94 465l62 303h309l-62 -303h-309z" />
    <glyph glyph-name="cedilla" unicode="&#xb8;" 
d="M31 -391l184 311h139l-161 -311h-162z" />
    <glyph glyph-name="onesuperior" unicode="&#xb9;" horiz-adv-x="643" 
d="M293 584l143 716l-141 -98l31 156l143 100h137l-174 -874h-139z" />
    <glyph glyph-name="ordmasculine" unicode="&#xba;" horiz-adv-x="638" 
d="M162 1028q32 155 60 233.5t65 122.5q36 43 83.5 62.5t121.5 19.5q111 0 165 -57q50 -56 50 -147q0 -72 -33 -234q-30 -153 -58.5 -231t-66.5 -123q-37 -43 -84 -63.5t-121 -20.5q-112 0 -164 59q-51 51 -51 146q0 75 33 233zM332 1028q-31 -155 -31 -211q0 -74 59 -74
q44 0 70 33q32 43 74 252q33 165 33 213q0 74 -62 74q-42 0 -67 -35q-34 -41 -76 -252z" />
    <glyph glyph-name="guillemotright" unicode="&#xbb;" horiz-adv-x="800" 
d="M551 1073l209 -510l-414 -508l64 318l172 205l-90 202zM197 1073l209 -510l-414 -508l63 318l172 205l-90 202z" />
    <glyph glyph-name="onequarter" unicode="&#xbc;" horiz-adv-x="1515" 
d="M293 584l143 716l-141 -98l31 156l143 100h137l-174 -874h-139zM338 0l772 1458h147l-772 -1458h-147zM879 135l24 115l348 624h140l-340 -620h116l29 147h137l-28 -147h63l-25 -119h-63l-27 -135h-137l25 135h-262z" />
    <glyph glyph-name="onehalf" unicode="&#xbd;" horiz-adv-x="1515" 
d="M293 584l143 716l-141 -98l31 156l143 100h137l-174 -874h-139zM338 0l772 1458h147l-772 -1458h-147zM887 0l22 109l310 423q75 101 75 175q0 59 -55 59q-63 0 -80 -78l-10 -55h-139l10 51q22 115 90 162q52 39 139 39q94 0 140 -49q43 -46 43 -113q0 -103 -99 -238
l-270 -366h262l-25 -119h-413z" />
    <glyph glyph-name="threequarters" unicode="&#xbe;" horiz-adv-x="1515" 
d="M248 1212l10 58q11 58 30.5 94.5t59.5 65.5q52 38 141 38q95 0 138 -49q35 -38 35 -110q0 -27 -11 -84q-17 -89 -49 -129q-27 -31 -61 -47q61 -36 61 -115q0 -30 -12 -100q-22 -98 -38.5 -139t-51.5 -70q-58 -52 -160 -52q-99 0 -147 54q-37 40 -37 98q0 44 6 68l8 38
h137l-8 -43q-4 -18 -4 -40q0 -27 15 -41.5t40 -14.5q32 0 56 21q15 13 24 37.5t21 83.5q14 64 14 102q0 53 -57 53h-46l25 113h37q27 0 49 18q15 15 23 34t18 69q10 55 10 71q0 56 -49 56q-61 0 -76 -74l-12 -64h-139zM338 0l772 1458h147l-772 -1458h-147zM879 135l24 115
l348 624h140l-340 -620h116l29 147h137l-28 -147h63l-25 -119h-63l-27 -135h-137l25 135h-262z" />
    <glyph glyph-name="questiondown" unicode="&#xbf;" horiz-adv-x="825" 
d="M516 674l-29 -146q-10 -51 -32 -93.5t-74 -98.5l-139 -156q-41 -45 -59 -83.5t-29 -96.5q-13 -80 -13 -102q0 -51 25 -76q28 -31 74 -31q49 0 92 37q42 40 67 166h203q-24 -120 -55 -189.5t-84 -113.5q-94 -82 -244 -82q-161 0 -233 94q-49 67 -49 164q0 65 14 139
q20 93 48 151.5t77 112.5l137 152q62 68 74 131l24 121h205zM608 1079l-49 -250h-235l49 250h235z" />
    <glyph glyph-name="Agrave" unicode="&#xc0;" horiz-adv-x="907" 
d="M791 0h-218l2 295h-321l-119 -295h-231l628 1458h213zM573 489l5 635l-246 -635h241zM586 1550l-107 283h168l84 -283h-145z" />
    <glyph glyph-name="Aacute" unicode="&#xc1;" horiz-adv-x="907" 
d="M791 0h-218l2 295h-321l-119 -295h-231l628 1458h213zM573 489l5 635l-246 -635h241zM565 1550l197 283h182l-225 -283h-154z" />
    <glyph glyph-name="Acircumflex" unicode="&#xc2;" horiz-adv-x="907" 
d="M791 0h-218l2 295h-321l-119 -295h-231l628 1458h213zM573 489l5 635l-246 -635h241zM784 1837l134 -287h-144l-86 172l-147 -172h-160l248 287h155z" />
    <glyph glyph-name="Atilde" unicode="&#xc3;" horiz-adv-x="907" 
d="M791 0h-218l2 295h-321l-119 -295h-231l628 1458h213zM573 489l5 635l-246 -635h241zM469 1589l-74 99q93 84 176 84q38 0 63 -7.5t56 -27.5q50 -29 90 -29q29 0 51 11.5t50 37.5l73 -98q-92 -86 -178 -86q-37 0 -60.5 7.5t-56.5 27.5q-49 30 -90 30q-29 0 -50.5 -11
t-49.5 -38z" />
    <glyph glyph-name="Adieresis" unicode="&#xc4;" horiz-adv-x="907" 
d="M791 0h-218l2 295h-321l-119 -295h-231l628 1458h213zM573 489l5 635l-246 -635h241zM387 1569l39 203h192l-38 -203h-193zM725 1569l39 203h192l-38 -203h-193z" />
    <glyph glyph-name="Aring" unicode="&#xc5;" horiz-adv-x="907" 
d="M791 0h-218l2 295h-321l-119 -295h-231l628 1458h213zM573 489l5 635l-246 -635h241zM569 1753q0 -42 29.5 -72t69.5 -30t69 30t29 72t-29 72t-69 30t-69.5 -30t-29.5 -72zM457 1753q0 88 61.5 149.5t149.5 61.5t149.5 -61.5t61.5 -149.5t-61.5 -149.5t-149.5 -61.5
t-149.5 61.5t-61.5 149.5z" />
    <glyph glyph-name="AE" unicode="&#xc6;" horiz-adv-x="1308" 
d="M-98 0l798 1458h721l-39 -194h-364l-86 -433h313l-39 -192h-313l-88 -444h364l-39 -195h-581l61 309h-305l-162 -309h-241zM410 504h239l152 764z" />
    <glyph glyph-name="Ccedilla" unicode="&#xc7;" horiz-adv-x="866" 
d="M55 301q0 112 62 428q46 224 79 346t65.5 186t80.5 111q103 103 270 103q163 0 242 -97q61 -77 61 -204q0 -58 -6 -95h-217q6 31 6 82q0 119 -102 119q-64 0 -104 -43q-43 -44 -72.5 -140.5t-85.5 -367.5q-62 -312 -62 -426q0 -125 105 -125q69 0 112 53q47 56 68 150
h219q-24 -112 -61 -185t-99 -128q-96 -84 -260 -84q-178 0 -252 116q-27 44 -38 89t-11 112zM86 -391l184 311h140l-162 -311h-162z" />
    <glyph glyph-name="Egrave" unicode="&#xc8;" horiz-adv-x="768" 
d="M8 0l291 1458h582l-39 -194h-365l-86 -433h314l-39 -192h-314l-88 -444h365l-39 -195h-582zM547 1550l-107 283h168l84 -283h-145z" />
    <glyph glyph-name="Eacute" unicode="&#xc9;" horiz-adv-x="768" 
d="M8 0l291 1458h582l-39 -194h-365l-86 -433h314l-39 -192h-314l-88 -444h365l-39 -195h-582zM526 1550l197 283h182l-225 -283h-154z" />
    <glyph glyph-name="Ecircumflex" unicode="&#xca;" horiz-adv-x="768" 
d="M8 0l291 1458h582l-39 -194h-365l-86 -433h314l-39 -192h-314l-88 -444h365l-39 -195h-582zM745 1837l134 -287h-144l-86 172l-147 -172h-160l248 287h155z" />
    <glyph glyph-name="Edieresis" unicode="&#xcb;" horiz-adv-x="768" 
d="M8 0l291 1458h582l-39 -194h-365l-86 -433h314l-39 -192h-314l-88 -444h365l-39 -195h-582zM348 1569l39 203h193l-39 -203h-193zM686 1569l39 203h193l-39 -203h-193z" />
    <glyph glyph-name="Igrave" unicode="&#xcc;" horiz-adv-x="448" 
d="M8 0l291 1458h217l-291 -1458h-217zM358 1550l-106 283h168l84 -283h-146z" />
    <glyph glyph-name="Iacute" unicode="&#xcd;" horiz-adv-x="448" 
d="M8 0l291 1458h217l-291 -1458h-217zM338 1550l197 283h182l-225 -283h-154z" />
    <glyph glyph-name="Icircumflex" unicode="&#xce;" horiz-adv-x="448" 
d="M8 0l291 1458h217l-291 -1458h-217zM557 1837l133 -287h-143l-86 172l-148 -172h-159l247 287h156z" />
    <glyph glyph-name="Idieresis" unicode="&#xcf;" horiz-adv-x="448" 
d="M8 0l291 1458h217l-291 -1458h-217zM160 1569l39 203h192l-39 -203h-192zM498 1569l39 203h192l-39 -203h-192z" />
    <glyph glyph-name="Eth" unicode="&#xd0;" horiz-adv-x="991" 
d="M86 0l129 649h-96l33 170h96l129 639h342q94 0 151 -29.5t97 -91.5q49 -79 49 -196q0 -83 -66 -410q-63 -313 -103.5 -435.5t-109.5 -189.5q-57 -55 -125.5 -80.5t-162.5 -25.5h-363zM342 195h123q82 0 129 57q37 46 66 153t73 326q66 310 66 410q0 56 -29 88
q-27 35 -86 35h-129l-90 -445h139l-35 -170h-137z" />
    <glyph glyph-name="Ntilde" unicode="&#xd1;" horiz-adv-x="944" 
d="M8 0l291 1458h182l148 -883l168 883h217l-291 -1458h-174l-148 883l-176 -883h-217zM496 1589l-74 99q93 84 176 84q38 0 63 -7.5t56 -27.5q50 -29 90 -29q29 0 50.5 11t49.5 38l74 -98q-92 -86 -178 -86q-37 0 -60.5 7.5t-56.5 27.5q-50 30 -90 30q-29 0 -50.5 -11
t-49.5 -38z" />
    <glyph glyph-name="Ograve" unicode="&#xd2;" horiz-adv-x="894" 
d="M117 729q69 332 111.5 454t113.5 191q54 53 118.5 77t151.5 24q184 0 256 -121q28 -43 39 -86.5t11 -108.5q0 -119 -64 -430q-67 -332 -110 -454t-115 -191q-100 -100 -269 -100q-187 0 -258 120q-26 42 -36.5 86t-10.5 109q0 114 62 430zM637 729q63 313 63 424
q0 127 -108 127q-60 0 -103 -43q-40 -40 -70.5 -140t-84.5 -368q-64 -318 -64 -424q0 -127 109 -127q59 0 102 43q40 40 71 141t85 367zM580 1550l-107 283h168l84 -283h-145z" />
    <glyph glyph-name="Oacute" unicode="&#xd3;" horiz-adv-x="894" 
d="M117 729q69 332 111.5 454t113.5 191q54 53 118.5 77t151.5 24q184 0 256 -121q28 -43 39 -86.5t11 -108.5q0 -119 -64 -430q-67 -332 -110 -454t-115 -191q-100 -100 -269 -100q-187 0 -258 120q-26 42 -36.5 86t-10.5 109q0 114 62 430zM637 729q63 313 63 424
q0 127 -108 127q-60 0 -103 -43q-40 -40 -70.5 -140t-84.5 -368q-64 -318 -64 -424q0 -127 109 -127q59 0 102 43q40 40 71 141t85 367zM559 1550l197 283h182l-225 -283h-154z" />
    <glyph glyph-name="Ocircumflex" unicode="&#xd4;" horiz-adv-x="894" 
d="M117 729q69 332 111.5 454t113.5 191q54 53 118.5 77t151.5 24q184 0 256 -121q28 -43 39 -86.5t11 -108.5q0 -119 -64 -430q-67 -332 -110 -454t-115 -191q-100 -100 -269 -100q-187 0 -258 120q-26 42 -36.5 86t-10.5 109q0 114 62 430zM637 729q63 313 63 424
q0 127 -108 127q-60 0 -103 -43q-40 -40 -70.5 -140t-84.5 -368q-64 -318 -64 -424q0 -127 109 -127q59 0 102 43q40 40 71 141t85 367zM778 1837l133 -287h-143l-86 172l-147 -172h-160l248 287h155z" />
    <glyph glyph-name="Otilde" unicode="&#xd5;" horiz-adv-x="894" 
d="M117 729q69 332 111.5 454t113.5 191q54 53 118.5 77t151.5 24q184 0 256 -121q28 -43 39 -86.5t11 -108.5q0 -119 -64 -430q-67 -332 -110 -454t-115 -191q-100 -100 -269 -100q-187 0 -258 120q-26 42 -36.5 86t-10.5 109q0 114 62 430zM637 729q63 313 63 424
q0 127 -108 127q-60 0 -103 -43q-40 -40 -70.5 -140t-84.5 -368q-64 -318 -64 -424q0 -127 109 -127q59 0 102 43q40 40 71 141t85 367zM463 1589l-74 99q93 84 176 84q38 0 63 -7.5t56 -27.5q50 -29 90 -29q29 0 50.5 11t49.5 38l74 -98q-92 -86 -178 -86q-37 0 -60.5 7.5
t-56.5 27.5q-49 30 -90 30q-29 0 -50.5 -11t-49.5 -38z" />
    <glyph glyph-name="Odieresis" unicode="&#xd6;" horiz-adv-x="894" 
d="M117 729q69 332 111.5 454t113.5 191q54 53 118.5 77t151.5 24q184 0 256 -121q28 -43 39 -86.5t11 -108.5q0 -119 -64 -430q-67 -332 -110 -454t-115 -191q-100 -100 -269 -100q-187 0 -258 120q-26 42 -36.5 86t-10.5 109q0 114 62 430zM637 729q63 313 63 424
q0 127 -108 127q-60 0 -103 -43q-40 -40 -70.5 -140t-84.5 -368q-64 -318 -64 -424q0 -127 109 -127q59 0 102 43q40 40 71 141t85 367zM381 1569l39 203h192l-39 -203h-192zM719 1569l39 203h192l-39 -203h-192z" />
    <glyph glyph-name="multiply" unicode="&#xd7;" horiz-adv-x="886" 
d="M584 575l174 -233l-148 -129l-174 231l-266 -233l-113 149l267 234l-174 233l147 129l174 -231l266 233l113 -149z" />
    <glyph glyph-name="Oslash" unicode="&#xd8;" horiz-adv-x="894" 
d="M117 729q46 227 78.5 347.5t65 185t81.5 112.5q54 53 118.5 77t151.5 24q109 0 181 -43l63 116h143l-118 -217q37 -67 37 -172q0 -119 -64 -430q-67 -332 -110 -454t-115 -191q-100 -100 -269 -100q-110 0 -182 43l-61 -117h-146l119 215q-35 64 -35 174q0 129 62 430z
M637 729q44 240 47 262l-399 -760q22 -53 96 -53q60 0 100 43q42 44 72 141t84 367zM334 729q-25 -119 -47 -256l399 756q-25 51 -94 51q-60 0 -103 -43q-40 -40 -70.5 -140t-84.5 -368z" />
    <glyph glyph-name="Ugrave" unicode="&#xd9;" horiz-adv-x="913" 
d="M72 375l217 1083h217l-221 -1102q-6 -30 -6 -63q0 -56 28 -85.5t82 -29.5q61 0 106 44t60 122l221 1114h217l-221 -1116q-36 -174 -141 -268q-100 -90 -271 -90q-147 0 -229 88q-70 73 -70 198q0 56 11 105zM588 1550l-107 283h168l84 -283h-145z" />
    <glyph glyph-name="Uacute" unicode="&#xda;" horiz-adv-x="913" 
d="M72 375l217 1083h217l-221 -1102q-6 -30 -6 -63q0 -56 28 -85.5t82 -29.5q61 0 106 44t60 122l221 1114h217l-221 -1116q-36 -174 -141 -268q-100 -90 -271 -90q-147 0 -229 88q-70 73 -70 198q0 56 11 105zM567 1550l197 283h182l-225 -283h-154z" />
    <glyph glyph-name="Ucircumflex" unicode="&#xdb;" horiz-adv-x="913" 
d="M72 375l217 1083h217l-221 -1102q-6 -30 -6 -63q0 -56 28 -85.5t82 -29.5q61 0 106 44t60 122l221 1114h217l-221 -1116q-36 -174 -141 -268q-100 -90 -271 -90q-147 0 -229 88q-70 73 -70 198q0 56 11 105zM786 1837l134 -287h-144l-86 172l-147 -172h-160l248 287h155z
" />
    <glyph glyph-name="Udieresis" unicode="&#xdc;" horiz-adv-x="913" 
d="M72 375l217 1083h217l-221 -1102q-6 -30 -6 -63q0 -56 28 -85.5t82 -29.5q61 0 106 44t60 122l221 1114h217l-221 -1116q-36 -174 -141 -268q-100 -90 -271 -90q-147 0 -229 88q-70 73 -70 198q0 56 11 105zM389 1569l39 203h193l-39 -203h-193zM727 1569l39 203h192
l-38 -203h-193z" />
    <glyph glyph-name="Yacute" unicode="&#xdd;" horiz-adv-x="753" 
d="M162 0l114 582l-83 876h225l22 -590l250 590h238l-439 -897l-110 -561h-217zM483 1550l197 283h182l-225 -283h-154z" />
    <glyph glyph-name="Thorn" unicode="&#xde;" horiz-adv-x="890" 
d="M225 0h-217l291 1458h217l-55 -276h112q86 0 141 -18t95 -58q68 -68 68 -199q0 -77 -17 -170q-27 -132 -66 -220t-94 -136.5t-118.5 -68t-151.5 -19.5h-147zM322 487h118q85 0 130 56t73 194q16 82 16 127q0 63 -28.5 93t-95.5 30h-113z" />
    <glyph glyph-name="germandbls" unicode="&#xdf;" horiz-adv-x="806" 
d="M-6 0l229 1151q34 168 129 250q89 74 230 74q147 0 217 -86q49 -63 49 -172q0 -73 -24 -173.5t-58 -150.5q-35 -51 -96 -90q75 -57 75 -174q0 -60 -26 -193q-33 -167 -63.5 -237.5t-90.5 -122.5q-48 -42 -109 -59t-151 -17l35 182q59 0 94 35q26 25 43.5 74.5t40.5 167.5
q25 129 25 170q0 92 -80 92h-14l32 172h17q18 0 32.5 7.5t24 17t20.5 30.5t16 34t15 40q41 112 41 176q0 46 -23 70t-61 24q-108 0 -135 -141l-229 -1151h-205z" />
    <glyph glyph-name="agrave" unicode="&#xe0;" horiz-adv-x="770" 
d="M29 76q-33 50 -33 141q0 39 12 107q14 71 51 135t88 104q46 37 101 52.5t141 15.5h103l26 139q8 36 8 59q0 39 -20.5 61.5t-59.5 22.5q-43 0 -75 -28q-36 -36 -49 -109h-205q34 165 125 244q82 76 227 76q153 0 215 -82q47 -58 47 -162q0 -46 -12 -104l-148 -748h-194
l18 90q-34 -46 -76 -72q-50 -34 -118 -34q-118 0 -172 92zM207 264q0 -46 22 -72t64 -26q51 0 87 42t48 109l35 168h-66q-46 0 -69.5 -7t-48.5 -27q-32 -27 -52 -80.5t-20 -106.5zM442 1198l-106 283h168l84 -283h-146z" />
    <glyph glyph-name="aacute" unicode="&#xe1;" horiz-adv-x="770" 
d="M29 76q-33 50 -33 141q0 39 12 107q14 71 51 135t88 104q46 37 101 52.5t141 15.5h103l26 139q8 36 8 59q0 39 -20.5 61.5t-59.5 22.5q-43 0 -75 -28q-36 -36 -49 -109h-205q34 165 125 244q82 76 227 76q153 0 215 -82q47 -58 47 -162q0 -46 -12 -104l-148 -748h-194
l18 90q-34 -46 -76 -72q-50 -34 -118 -34q-118 0 -172 92zM207 264q0 -46 22 -72t64 -26q51 0 87 42t48 109l35 168h-66q-46 0 -69.5 -7t-48.5 -27q-32 -27 -52 -80.5t-20 -106.5zM422 1196l196 283h183l-226 -283h-153z" />
    <glyph glyph-name="acircumflex" unicode="&#xe2;" horiz-adv-x="770" 
d="M29 76q-33 50 -33 141q0 39 12 107q14 71 51 135t88 104q46 37 101 52.5t141 15.5h103l26 139q8 36 8 59q0 39 -20.5 61.5t-59.5 22.5q-43 0 -75 -28q-36 -36 -49 -109h-205q34 165 125 244q82 76 227 76q153 0 215 -82q47 -58 47 -162q0 -46 -12 -104l-148 -748h-194
l18 90q-34 -46 -76 -72q-50 -34 -118 -34q-118 0 -172 92zM207 264q0 -46 22 -72t64 -26q51 0 87 42t48 109l35 168h-66q-46 0 -69.5 -7t-48.5 -27q-32 -27 -52 -80.5t-20 -106.5zM641 1483l133 -287h-143l-86 172l-148 -172h-159l247 287h156z" />
    <glyph glyph-name="atilde" unicode="&#xe3;" horiz-adv-x="770" 
d="M29 76q-33 50 -33 141q0 39 12 107q14 71 51 135t88 104q46 37 101 52.5t141 15.5h103l26 139q8 36 8 59q0 39 -20.5 61.5t-59.5 22.5q-43 0 -75 -28q-36 -36 -49 -109h-205q34 165 125 244q82 76 227 76q153 0 215 -82q47 -58 47 -162q0 -46 -12 -104l-148 -748h-194
l18 90q-34 -46 -76 -72q-50 -34 -118 -34q-118 0 -172 92zM207 264q0 -46 22 -72t64 -26q51 0 87 42t48 109l35 168h-66q-46 0 -69.5 -7t-48.5 -27q-32 -27 -52 -80.5t-20 -106.5zM326 1237l-74 96q92 86 178 86q60 0 117 -35q47 -30 90 -30q28 0 49 11.5t51 37.5l74 -98
q-93 -84 -178 -84q-38 0 -62 7t-55 27q-53 31 -90 31q-28 0 -49 -11.5t-51 -37.5z" />
    <glyph glyph-name="adieresis" unicode="&#xe4;" horiz-adv-x="770" 
d="M29 76q-33 50 -33 141q0 39 12 107q14 71 51 135t88 104q46 37 101 52.5t141 15.5h103l26 139q8 36 8 59q0 39 -20.5 61.5t-59.5 22.5q-43 0 -75 -28q-36 -36 -49 -109h-205q34 165 125 244q82 76 227 76q153 0 215 -82q47 -58 47 -162q0 -46 -12 -104l-148 -748h-194
l18 90q-34 -46 -76 -72q-50 -34 -118 -34q-118 0 -172 92zM207 264q0 -46 22 -72t64 -26q51 0 87 42t48 109l35 168h-66q-46 0 -69.5 -7t-48.5 -27q-32 -27 -52 -80.5t-20 -106.5zM244 1217l39 202h192l-39 -202h-192zM582 1217l39 202h192l-39 -202h-192z" />
    <glyph glyph-name="aring" unicode="&#xe5;" horiz-adv-x="770" 
d="M29 76q-33 50 -33 141q0 39 12 107q14 71 51 135t88 104q46 37 101 52.5t141 15.5h103l26 139q8 36 8 59q0 39 -20.5 61.5t-59.5 22.5q-43 0 -75 -28q-36 -36 -49 -109h-205q34 165 125 244q82 76 227 76q153 0 215 -82q47 -58 47 -162q0 -46 -12 -104l-148 -748h-194
l18 90q-34 -46 -76 -72q-50 -34 -118 -34q-118 0 -172 92zM207 264q0 -46 22 -72t64 -26q51 0 87 42t48 109l35 168h-66q-46 0 -69.5 -7t-48.5 -27q-32 -27 -52 -80.5t-20 -106.5zM432 1411q0 -42 29 -72t69 -30t69.5 30t29.5 72t-29.5 72t-69.5 30t-69 -30t-29 -72z
M319 1411q0 88 61.5 149.5t149.5 61.5t149.5 -61.5t61.5 -149.5t-61.5 -149.5t-149.5 -61.5t-149.5 61.5t-61.5 149.5z" />
    <glyph glyph-name="ae" unicode="&#xe6;" horiz-adv-x="1163" 
d="M8 324q15 72 52 136t87 103q46 37 101 52.5t141 15.5h103l26 139q8 36 8 59q0 39 -20.5 61.5t-59.5 22.5q-43 0 -75 -28q-36 -36 -49 -109h-205q34 165 125 244q82 76 227 76q132 0 197 -76q88 76 221 76q146 0 209 -92q43 -62 43 -168q0 -110 -52 -357h-423
q-33 -165 -33 -221q0 -45 22 -70q19 -22 58 -22q46 0 75 29q37 35 60 118h203q-20 -83 -45 -135t-64 -96q-86 -98 -252 -98q-100 0 -156 36q-45 31 -86 97q-51 -75 -108 -101q-66 -32 -137 -32q-60 0 -100.5 21.5t-71.5 70.5q-33 50 -33 141q0 57 12 107zM207 264
q0 -46 22 -72t64 -26q51 0 87 42t48 109l35 168h-66q-46 0 -69.5 -7t-48.5 -27q-32 -27 -52 -80.5t-20 -106.5zM696 635h217q27 126 27 184q0 94 -80 94q-54 0 -86 -43q-23 -29 -39.5 -80.5t-38.5 -154.5z" />
    <glyph glyph-name="ccedilla" unicode="&#xe7;" horiz-adv-x="743" 
d="M70 541q40 201 74 298t85 156q91 101 252 101q165 0 224 -109q34 -58 34 -147q0 -43 -6 -74h-201q5 34 5 59q0 42 -21 66q-19 22 -57 22q-52 0 -88 -45q-27 -34 -45.5 -101.5t-51.5 -225.5q-45 -221 -45 -283q0 -49 25 -74q21 -18 55 -18q43 0 76 29q36 34 57 118h203
q-36 -151 -104 -229q-90 -100 -254 -100q-155 0 -219 102q-41 65 -41 164q0 76 43 291zM27 -391l184 311h139l-162 -311h-161z" />
    <glyph glyph-name="egrave" unicode="&#xe8;" horiz-adv-x="761" 
d="M61 96q-32 55 -32 154q0 86 41 291q42 204 75.5 300t83.5 154q87 101 256 101q146 0 209 -92q41 -59 41 -168t-49 -357h-424q-33 -165 -33 -221q0 -44 23 -70q19 -22 57 -22q47 0 76 29q37 34 57 118h205q-20 -83 -44.5 -135.5t-63.5 -95.5q-89 -98 -252 -98
q-164 0 -226 112zM293 635h219q27 126 27 184q0 94 -80 94q-52 0 -86 -43q-24 -29 -41 -82t-39 -153zM446 1198l-106 283h168l84 -283h-146z" />
    <glyph glyph-name="eacute" unicode="&#xe9;" horiz-adv-x="761" 
d="M61 96q-32 55 -32 154q0 86 41 291q42 204 75.5 300t83.5 154q87 101 256 101q146 0 209 -92q41 -59 41 -168t-49 -357h-424q-33 -165 -33 -221q0 -44 23 -70q19 -22 57 -22q47 0 76 29q37 34 57 118h205q-20 -83 -44.5 -135.5t-63.5 -95.5q-89 -98 -252 -98
q-164 0 -226 112zM293 635h219q27 126 27 184q0 94 -80 94q-52 0 -86 -43q-24 -29 -41 -82t-39 -153zM426 1196l197 283h182l-225 -283h-154z" />
    <glyph glyph-name="ecircumflex" unicode="&#xea;" horiz-adv-x="761" 
d="M61 96q-32 55 -32 154q0 86 41 291q42 204 75.5 300t83.5 154q87 101 256 101q146 0 209 -92q41 -59 41 -168t-49 -357h-424q-33 -165 -33 -221q0 -44 23 -70q19 -22 57 -22q47 0 76 29q37 34 57 118h205q-20 -83 -44.5 -135.5t-63.5 -95.5q-89 -98 -252 -98
q-164 0 -226 112zM293 635h219q27 126 27 184q0 94 -80 94q-52 0 -86 -43q-24 -29 -41 -82t-39 -153zM645 1483l133 -287h-143l-86 172l-148 -172h-159l247 287h156z" />
    <glyph glyph-name="edieresis" unicode="&#xeb;" horiz-adv-x="761" 
d="M61 96q-32 55 -32 154q0 86 41 291q42 204 75.5 300t83.5 154q87 101 256 101q146 0 209 -92q41 -59 41 -168t-49 -357h-424q-33 -165 -33 -221q0 -44 23 -70q19 -22 57 -22q47 0 76 29q37 34 57 118h205q-20 -83 -44.5 -135.5t-63.5 -95.5q-89 -98 -252 -98
q-164 0 -226 112zM293 635h219q27 126 27 184q0 94 -80 94q-52 0 -86 -43q-24 -29 -41 -82t-39 -153zM248 1217l39 202h192l-39 -202h-192zM586 1217l39 202h192l-39 -202h-192z" />
    <glyph glyph-name="igrave" unicode="&#xec;" horiz-adv-x="405" 
d="M-6 0l209 1049h205l-209 -1049h-205zM272 1198l-106 283h168l84 -283h-146z" />
    <glyph glyph-name="iacute" unicode="&#xed;" horiz-adv-x="405" 
d="M-6 0l209 1049h205l-209 -1049h-205zM252 1196l197 283h182l-225 -283h-154z" />
    <glyph glyph-name="icircumflex" unicode="&#xee;" horiz-adv-x="405" 
d="M-6 0l209 1049h205l-209 -1049h-205zM471 1483l133 -287h-143l-86 172l-148 -172h-159l247 287h156z" />
    <glyph glyph-name="idieresis" unicode="&#xef;" horiz-adv-x="405" 
d="M-6 0l209 1049h205l-209 -1049h-205zM74 1217l39 202h192l-39 -202h-192zM412 1217l39 202h192l-39 -202h-192z" />
    <glyph glyph-name="eth" unicode="&#xf0;" horiz-adv-x="776" 
d="M68 502q42 204 72.5 298t74.5 136q76 76 197 76q76 0 123 -37l-21 201h-145l26 137h101l-15 145h197l16 -145h142l-27 -137h-98l18 -220q6 -56 6 -108q0 -134 -41 -346q-38 -190 -73.5 -286t-77.5 -140q-86 -92 -258 -92q-114 0 -183 69q-71 68 -71 189q0 71 37 260z
M270 502q-37 -192 -37 -240q0 -42 17 -67q22 -29 61 -29q53 0 88 41q24 30 43 95t47 200q35 186 35 235q0 45 -16 66q-20 26 -64 26q-53 0 -86 -41q-26 -30 -45 -95.5t-43 -190.5z" />
    <glyph glyph-name="ntilde" unicode="&#xf1;" horiz-adv-x="808" 
d="M-6 0l215 1079h197l-17 -78q45 49 80 68q52 27 106 27q69 0 107 -23t63 -63q31 -53 31 -129q0 -27 -16 -115l-152 -766h-205l152 764q8 41 8 65q0 37 -21.5 60.5t-60.5 23.5q-101 0 -131 -149l-151 -764h-205zM350 1237l-74 96q92 86 179 86q59 0 116 -35q47 -30 91 -30
q28 0 49 11.5t51 37.5l74 -98q-93 -84 -179 -84q-38 0 -61.5 7t-54.5 27q-53 31 -90 31q-29 0 -50 -11.5t-51 -37.5z" />
    <glyph glyph-name="ograve" unicode="&#xf2;" 
d="M70 541q43 210 75.5 302.5t85.5 151.5q88 101 250 101q164 0 224 -111q34 -58 34 -156q0 -86 -41 -288q-42 -209 -75.5 -303.5t-85.5 -153.5q-87 -100 -250 -100q-166 0 -226 110q-32 60 -32 158q0 84 41 289zM494 541q43 208 43 278q0 48 -19 70q-21 24 -59 24
q-52 0 -86 -43q-27 -36 -48 -110t-51 -219q-43 -208 -43 -281q0 -48 19 -70q21 -24 59 -24q52 0 86 43q27 35 48 110t51 222zM446 1198l-106 283h168l84 -283h-146z" />
    <glyph glyph-name="oacute" unicode="&#xf3;" 
d="M70 541q43 210 75.5 302.5t85.5 151.5q88 101 250 101q164 0 224 -111q34 -58 34 -156q0 -86 -41 -288q-42 -209 -75.5 -303.5t-85.5 -153.5q-87 -100 -250 -100q-166 0 -226 110q-32 60 -32 158q0 84 41 289zM494 541q43 208 43 278q0 48 -19 70q-21 24 -59 24
q-52 0 -86 -43q-27 -36 -48 -110t-51 -219q-43 -208 -43 -281q0 -48 19 -70q21 -24 59 -24q52 0 86 43q27 35 48 110t51 222zM426 1196l197 283h182l-225 -283h-154z" />
    <glyph glyph-name="ocircumflex" unicode="&#xf4;" 
d="M70 541q43 210 75.5 302.5t85.5 151.5q88 101 250 101q164 0 224 -111q34 -58 34 -156q0 -86 -41 -288q-42 -209 -75.5 -303.5t-85.5 -153.5q-87 -100 -250 -100q-166 0 -226 110q-32 60 -32 158q0 84 41 289zM494 541q43 208 43 278q0 48 -19 70q-21 24 -59 24
q-52 0 -86 -43q-27 -36 -48 -110t-51 -219q-43 -208 -43 -281q0 -48 19 -70q21 -24 59 -24q52 0 86 43q27 35 48 110t51 222zM645 1483l133 -287h-143l-86 172l-148 -172h-159l247 287h156z" />
    <glyph glyph-name="otilde" unicode="&#xf5;" 
d="M70 541q43 210 75.5 302.5t85.5 151.5q88 101 250 101q164 0 224 -111q34 -58 34 -156q0 -86 -41 -288q-42 -209 -75.5 -303.5t-85.5 -153.5q-87 -100 -250 -100q-166 0 -226 110q-32 60 -32 158q0 84 41 289zM494 541q43 208 43 278q0 48 -19 70q-21 24 -59 24
q-52 0 -86 -43q-27 -36 -48 -110t-51 -219q-43 -208 -43 -281q0 -48 19 -70q21 -24 59 -24q52 0 86 43q27 35 48 110t51 222zM330 1237l-74 96q92 86 178 86q60 0 117 -35q47 -30 90 -30q28 0 49 11.5t51 37.5l74 -98q-93 -84 -178 -84q-38 0 -62 7t-55 27q-53 31 -90 31
q-28 0 -49 -11.5t-51 -37.5z" />
    <glyph glyph-name="odieresis" unicode="&#xf6;" 
d="M70 541q43 210 75.5 302.5t85.5 151.5q88 101 250 101q164 0 224 -111q34 -58 34 -156q0 -86 -41 -288q-42 -209 -75.5 -303.5t-85.5 -153.5q-87 -100 -250 -100q-166 0 -226 110q-32 60 -32 158q0 84 41 289zM494 541q43 208 43 278q0 48 -19 70q-21 24 -59 24
q-52 0 -86 -43q-27 -36 -48 -110t-51 -219q-43 -208 -43 -281q0 -48 19 -70q21 -24 59 -24q52 0 86 43q27 35 48 110t51 222zM248 1217l39 202h192l-39 -202h-192zM586 1217l39 202h192l-39 -202h-192z" />
    <glyph glyph-name="divide" unicode="&#xf7;" horiz-adv-x="886" 
d="M236 94l47 234h237l-45 -234h-239zM78 496l39 190h714l-38 -190h-715zM387 854l47 233h238l-47 -233h-238z" />
    <glyph glyph-name="oslash" unicode="&#xf8;" 
d="M70 541q43 210 75.5 302.5t85.5 151.5q88 101 250 101q93 0 154 -37l65 110h136l-123 -202q26 -56 26 -138q0 -86 -41 -288q-42 -209 -75.5 -303.5t-85.5 -153.5q-87 -100 -250 -100q-93 0 -154 34l-65 -108h-136l121 199q-24 59 -24 143t41 289zM494 541q3 18 12 64
t12 69l-276 -475q22 -33 67 -33q52 0 86 43q27 35 48 110t51 222zM274 541q-15 -73 -24 -131l274 471l-6 8q-21 24 -59 24q-52 0 -86 -43q-27 -36 -48 -110t-51 -219z" />
    <glyph glyph-name="ugrave" unicode="&#xf9;" horiz-adv-x="808" 
d="M817 1079l-215 -1079h-196l16 78q-45 -49 -80 -68q-50 -26 -106 -26q-69 0 -107 23t-63 63q-31 53 -31 129q0 26 16 114l152 766h205l-152 -764q-8 -41 -8 -65q0 -37 21.5 -60.5t60.5 -23.5q101 0 131 149l151 764h205zM467 1198l-107 283h168l84 -283h-145z" />
    <glyph glyph-name="uacute" unicode="&#xfa;" horiz-adv-x="808" 
d="M817 1079l-215 -1079h-196l16 78q-45 -49 -80 -68q-50 -26 -106 -26q-69 0 -107 23t-63 63q-31 53 -31 129q0 26 16 114l152 766h205l-152 -764q-8 -41 -8 -65q0 -37 21.5 -60.5t60.5 -23.5q101 0 131 149l151 764h205zM446 1196l197 283h182l-225 -283h-154z" />
    <glyph glyph-name="ucircumflex" unicode="&#xfb;" horiz-adv-x="808" 
d="M817 1079l-215 -1079h-196l16 78q-45 -49 -80 -68q-50 -26 -106 -26q-69 0 -107 23t-63 63q-31 53 -31 129q0 26 16 114l152 766h205l-152 -764q-8 -41 -8 -65q0 -37 21.5 -60.5t60.5 -23.5q101 0 131 149l151 764h205zM666 1483l133 -287h-144l-86 172l-147 -172h-160
l248 287h156z" />
    <glyph glyph-name="udieresis" unicode="&#xfc;" horiz-adv-x="808" 
d="M817 1079l-215 -1079h-196l16 78q-45 -49 -80 -68q-50 -26 -106 -26q-69 0 -107 23t-63 63q-31 53 -31 129q0 26 16 114l152 766h205l-152 -764q-8 -41 -8 -65q0 -37 21.5 -60.5t60.5 -23.5q101 0 131 149l151 764h205zM268 1217l39 202h193l-39 -202h-193zM606 1217
l39 202h193l-39 -202h-193z" />
    <glyph glyph-name="yacute" unicode="&#xfd;" horiz-adv-x="739" 
d="M-84 -197q97 3 147 50q20 19 49 66.5t44 82.5l-39 1077h213l-6 -760l290 760h232l-531 -1218q-28 -63 -62.5 -107.5t-71 -70t-87.5 -39.5t-99 -18.5t-118 -4.5zM418 1196l196 283h183l-226 -283h-153z" />
    <glyph glyph-name="thorn" unicode="&#xfe;" horiz-adv-x="788" 
d="M-82 -379l367 1837h204l-88 -444q30 33 64 53q56 29 106 29q119 0 166 -84q33 -54 33 -142q0 -104 -47 -329q-46 -234 -79.5 -332t-80.5 -143q-85 -82 -196 -82q-66 0 -105 30q-36 29 -49 56l-90 -449h-205zM352 772l-92 -465q-6 -30 -6 -55q0 -41 20 -64q22 -22 60 -22
q43 0 78 35q28 27 51 107.5t55 232.5q43 215 43 276q0 50 -20 70q-20 26 -58 26q-44 0 -75 -28q-43 -43 -56 -113z" />
    <glyph glyph-name="ydieresis" unicode="&#xff;" horiz-adv-x="739" 
d="M-84 -197q97 3 147 50q20 19 49 66.5t44 82.5l-39 1077h213l-6 -760l290 760h232l-531 -1218q-28 -63 -62.5 -107.5t-71 -70t-87.5 -39.5t-99 -18.5t-118 -4.5zM238 1217l38 202h193l-39 -202h-192zM575 1217l39 202h193l-39 -202h-193z" />
    <glyph glyph-name="Amacron" unicode="&#x100;" horiz-adv-x="907" 
d="M791 0h-218l2 295h-321l-119 -295h-231l628 1458h213zM573 489l5 635l-246 -635h241zM420 1589l26 137h476l-27 -137h-475z" />
    <glyph glyph-name="amacron" unicode="&#x101;" horiz-adv-x="770" 
d="M29 76q-33 50 -33 141q0 39 12 107q14 71 51 135t88 104q46 37 101 52.5t141 15.5h103l26 139q8 36 8 59q0 39 -20.5 61.5t-59.5 22.5q-43 0 -75 -28q-36 -36 -49 -109h-205q34 165 125 244q82 76 227 76q153 0 215 -82q47 -58 47 -162q0 -46 -12 -104l-148 -748h-194
l18 90q-34 -46 -76 -72q-50 -34 -118 -34q-118 0 -172 92zM207 264q0 -46 22 -72t64 -26q51 0 87 42t48 109l35 168h-66q-46 0 -69.5 -7t-48.5 -27q-32 -27 -52 -80.5t-20 -106.5zM268 1237l27 137h475l-27 -137h-475z" />
    <glyph glyph-name="Abreve" unicode="&#x102;" horiz-adv-x="907" 
d="M791 0h-218l2 295h-321l-119 -295h-231l628 1458h213zM573 489l5 635l-246 -635h241zM936 1782q-27 -126 -93 -181t-181 -55q-98 0 -155.5 51t-57.5 132q0 15 6 53h133v-15q0 -42 24.5 -63t65.5 -21q98 0 125 99h133z" />
    <glyph glyph-name="abreve" unicode="&#x103;" horiz-adv-x="770" 
d="M29 76q-33 50 -33 141q0 39 12 107q14 71 51 135t88 104q46 37 101 52.5t141 15.5h103l26 139q8 36 8 59q0 39 -20.5 61.5t-59.5 22.5q-43 0 -75 -28q-36 -36 -49 -109h-205q34 165 125 244q82 76 227 76q153 0 215 -82q47 -58 47 -162q0 -46 -12 -104l-148 -748h-194
l18 90q-34 -46 -76 -72q-50 -34 -118 -34q-118 0 -172 92zM207 264q0 -46 22 -72t64 -26q51 0 87 42t48 109l35 168h-66q-46 0 -69.5 -7t-48.5 -27q-32 -27 -52 -80.5t-20 -106.5zM793 1430q-27 -126 -93.5 -181t-181.5 -55q-98 0 -155.5 50.5t-57.5 131.5q0 16 6 54h133
v-15q0 -42 25 -63t66 -21q97 0 124 99h134z" />
    <glyph glyph-name="Aogonek" unicode="&#x104;" horiz-adv-x="907" 
d="M791 0h-218l2 295h-321l-119 -295h-231l628 1458h213zM573 489l5 635l-246 -635h241zM434 -391l184 311h140l-162 -311h-162z" />
    <glyph glyph-name="aogonek" unicode="&#x105;" horiz-adv-x="770" 
d="M29 76q-33 50 -33 141q0 39 12 107q14 71 51 135t88 104q46 37 101 52.5t141 15.5h103l26 139q8 36 8 59q0 39 -20.5 61.5t-59.5 22.5q-43 0 -75 -28q-36 -36 -49 -109h-205q34 165 125 244q82 76 227 76q153 0 215 -82q47 -58 47 -162q0 -46 -12 -104l-148 -748h-194
l18 90q-34 -46 -76 -72q-50 -34 -118 -34q-118 0 -172 92zM207 264q0 -46 22 -72t64 -26q51 0 87 42t48 109l35 168h-66q-46 0 -69.5 -7t-48.5 -27q-32 -27 -52 -80.5t-20 -106.5zM207 -391l184 311h139l-161 -311h-162z" />
    <glyph glyph-name="Cacute" unicode="&#x106;" horiz-adv-x="866" 
d="M55 301q0 112 62 428q46 224 79 346t65.5 186t80.5 111q103 103 270 103q163 0 242 -97q61 -77 61 -204q0 -58 -6 -95h-217q6 31 6 82q0 119 -102 119q-64 0 -104 -43q-43 -44 -72.5 -140.5t-85.5 -367.5q-62 -312 -62 -426q0 -125 105 -125q69 0 112 53q47 56 68 150
h219q-24 -112 -61 -185t-99 -128q-96 -84 -260 -84q-178 0 -252 116q-27 44 -38 89t-11 112zM559 1550l197 283h182l-225 -283h-154z" />
    <glyph glyph-name="cacute" unicode="&#x107;" horiz-adv-x="743" 
d="M70 541q40 201 74 298t85 156q91 101 252 101q165 0 224 -109q34 -58 34 -147q0 -43 -6 -74h-201q5 34 5 59q0 42 -21 66q-19 22 -57 22q-52 0 -88 -45q-27 -34 -45.5 -101.5t-51.5 -225.5q-45 -221 -45 -283q0 -49 25 -74q21 -18 55 -18q43 0 76 29q36 34 57 118h203
q-36 -151 -104 -229q-90 -100 -254 -100q-155 0 -219 102q-41 65 -41 164q0 76 43 291zM426 1196l197 283h182l-225 -283h-154z" />
    <glyph glyph-name="Ccircumflex" unicode="&#x108;" horiz-adv-x="866" 
d="M55 301q0 112 62 428q46 224 79 346t65.5 186t80.5 111q103 103 270 103q163 0 242 -97q61 -77 61 -204q0 -58 -6 -95h-217q6 31 6 82q0 119 -102 119q-64 0 -104 -43q-43 -44 -72.5 -140.5t-85.5 -367.5q-62 -312 -62 -426q0 -125 105 -125q69 0 112 53q47 56 68 150
h219q-24 -112 -61 -185t-99 -128q-96 -84 -260 -84q-178 0 -252 116q-27 44 -38 89t-11 112zM778 1837l133 -287h-143l-86 172l-147 -172h-160l248 287h155z" />
    <glyph glyph-name="ccircumflex" unicode="&#x109;" horiz-adv-x="743" 
d="M70 541q40 201 74 298t85 156q91 101 252 101q165 0 224 -109q34 -58 34 -147q0 -43 -6 -74h-201q5 34 5 59q0 42 -21 66q-19 22 -57 22q-52 0 -88 -45q-27 -34 -45.5 -101.5t-51.5 -225.5q-45 -221 -45 -283q0 -49 25 -74q21 -18 55 -18q43 0 76 29q36 34 57 118h203
q-36 -151 -104 -229q-90 -100 -254 -100q-155 0 -219 102q-41 65 -41 164q0 76 43 291zM649 1483l133 -287h-143l-86 172l-147 -172h-160l248 287h155z" />
    <glyph glyph-name="Cdotaccent" unicode="&#x10a;" horiz-adv-x="866" 
d="M55 301q0 112 62 428q46 224 79 346t65.5 186t80.5 111q103 103 270 103q163 0 242 -97q61 -77 61 -204q0 -58 -6 -95h-217q6 31 6 82q0 119 -102 119q-64 0 -104 -43q-43 -44 -72.5 -140.5t-85.5 -367.5q-62 -312 -62 -426q0 -125 105 -125q69 0 112 53q47 56 68 150
h219q-24 -112 -61 -185t-99 -128q-96 -84 -260 -84q-178 0 -252 116q-27 44 -38 89t-11 112zM553 1573l41 201h190l-39 -201h-192z" />
    <glyph glyph-name="cdotaccent" unicode="&#x10b;" horiz-adv-x="743" 
d="M70 541q40 201 74 298t85 156q91 101 252 101q165 0 224 -109q34 -58 34 -147q0 -43 -6 -74h-201q5 34 5 59q0 42 -21 66q-19 22 -57 22q-52 0 -88 -45q-27 -34 -45.5 -101.5t-51.5 -225.5q-45 -221 -45 -283q0 -49 25 -74q21 -18 55 -18q43 0 76 29q36 34 57 118h203
q-36 -151 -104 -229q-90 -100 -254 -100q-155 0 -219 102q-41 65 -41 164q0 76 43 291zM420 1221l41 200h190l-39 -200h-192z" />
    <glyph glyph-name="Ccaron" unicode="&#x10c;" horiz-adv-x="866" 
d="M55 301q0 112 62 428q46 224 79 346t65.5 186t80.5 111q103 103 270 103q163 0 242 -97q61 -77 61 -204q0 -58 -6 -95h-217q6 31 6 82q0 119 -102 119q-64 0 -104 -43q-43 -44 -72.5 -140.5t-85.5 -367.5q-62 -312 -62 -426q0 -125 105 -125q69 0 112 53q47 56 68 150
h219q-24 -112 -61 -185t-99 -128q-96 -84 -260 -84q-178 0 -252 116q-27 44 -38 89t-11 112zM563 1544l-135 285h145l84 -170l150 170h160l-248 -285h-156z" />
    <glyph glyph-name="ccaron" unicode="&#x10d;" horiz-adv-x="743" 
d="M70 541q40 201 74 298t85 156q91 101 252 101q165 0 224 -109q34 -58 34 -147q0 -43 -6 -74h-201q5 34 5 59q0 42 -21 66q-19 22 -57 22q-52 0 -88 -45q-27 -34 -45.5 -101.5t-51.5 -225.5q-45 -221 -45 -283q0 -49 25 -74q21 -18 55 -18q43 0 76 29q36 34 57 118h203
q-36 -151 -104 -229q-90 -100 -254 -100q-155 0 -219 102q-41 65 -41 164q0 76 43 291zM432 1192l-135 285h145l84 -170l150 170h160l-248 -285h-156z" />
    <glyph glyph-name="Dcaron" unicode="&#x10e;" horiz-adv-x="915" 
d="M264 195h123q82 0 129 57q37 46 66 153t73 326q66 310 66 410q0 56 -29 88q-27 35 -86 35h-129zM8 0l291 1458h342q94 0 151 -29.5t97 -91.5q49 -79 49 -196q0 -83 -66 -410q-63 -313 -103.5 -435.5t-109.5 -189.5q-57 -55 -125.5 -80.5t-162.5 -25.5h-363zM553 1544
l-135 285h145l84 -170l150 170h159l-247 -285h-156z" />
    <glyph glyph-name="dcaron" unicode="&#x10f;" horiz-adv-x="788" 
d="M68 541q46 231 79.5 329t79.5 144q85 82 199 82q62 0 102 -31q36 -29 52 -55l88 448h204l-290 -1458h-197l14 78q-12 -17 -34 -37t-39 -29q-51 -28 -107 -28q-117 0 -166 84q-33 62 -33 141q0 99 48 332zM272 541q-41 -208 -41 -279q0 -47 19 -69q21 -27 59 -27
q47 0 76 29q39 39 53 112l92 465q7 40 7 55q0 41 -21 66q-17 20 -57 20q-46 0 -80 -34q-30 -28 -54 -111t-53 -227zM901 1202l109 316h153l-133 -316h-129z" />
    <glyph glyph-name="Dcroat" unicode="&#x110;" horiz-adv-x="991" 
d="M119 649l33 170h96l129 639h342q94 0 151 -29.5t97 -91.5q49 -79 49 -196q0 -83 -66 -410q-63 -313 -103.5 -435.5t-109.5 -189.5q-57 -55 -125.5 -80.5t-162.5 -25.5h-363l129 649h-96zM342 195h123q82 0 129 57q37 46 66 153t73 326q66 310 66 410q0 56 -29 88
q-27 35 -86 35h-129l-90 -445h139l-35 -170h-137z" />
    <glyph glyph-name="dcroat" unicode="&#x111;" horiz-adv-x="821" 
d="M68 541q46 231 79.5 329t79.5 144q85 82 199 82q62 0 102 -31q36 -29 52 -55l34 182h-165l26 129h166l27 137h204l-28 -137h96l-27 -129h-94l-237 -1192h-197l14 78q-12 -17 -34 -37t-39 -29q-51 -28 -107 -28q-117 0 -166 84q-33 62 -33 141q0 99 48 332zM272 541
q-41 -208 -41 -279q0 -47 19 -69q21 -27 59 -27q47 0 76 29q39 39 53 112l92 465q7 40 7 55q0 41 -21 66q-17 20 -57 20q-46 0 -80 -34q-30 -28 -54 -111t-53 -227z" />
    <glyph glyph-name="Emacron" unicode="&#x112;" horiz-adv-x="768" 
d="M8 0l291 1458h582l-39 -194h-365l-86 -433h314l-39 -192h-314l-88 -444h365l-39 -195h-582zM381 1589l27 137h475l-27 -137h-475z" />
    <glyph glyph-name="emacron" unicode="&#x113;" horiz-adv-x="761" 
d="M61 96q-32 55 -32 154q0 86 41 291q42 204 75.5 300t83.5 154q87 101 256 101q146 0 209 -92q41 -59 41 -168t-49 -357h-424q-33 -165 -33 -221q0 -44 23 -70q19 -22 57 -22q47 0 76 29q37 34 57 118h205q-20 -83 -44.5 -135.5t-63.5 -95.5q-89 -98 -252 -98
q-164 0 -226 112zM293 635h219q27 126 27 184q0 94 -80 94q-52 0 -86 -43q-24 -29 -41 -82t-39 -153zM272 1237l27 137h475l-26 -137h-476z" />
    <glyph glyph-name="Ebreve" unicode="&#x114;" horiz-adv-x="768" 
d="M8 0l291 1458h582l-39 -194h-365l-86 -433h314l-39 -192h-314l-88 -444h365l-39 -195h-582zM897 1782q-27 -126 -93 -181t-181 -55q-98 0 -155.5 51t-57.5 132q0 15 6 53h133v-15q0 -42 24.5 -63t65.5 -21q98 0 125 99h133z" />
    <glyph glyph-name="ebreve" unicode="&#x115;" horiz-adv-x="761" 
d="M61 96q-32 55 -32 154q0 86 41 291q42 204 75.5 300t83.5 154q87 101 256 101q146 0 209 -92q41 -59 41 -168t-49 -357h-424q-33 -165 -33 -221q0 -44 23 -70q19 -22 57 -22q47 0 76 29q37 34 57 118h205q-20 -83 -44.5 -135.5t-63.5 -95.5q-89 -98 -252 -98
q-164 0 -226 112zM293 635h219q27 126 27 184q0 94 -80 94q-52 0 -86 -43q-24 -29 -41 -82t-39 -153zM797 1430q-27 -126 -93.5 -181t-181.5 -55q-98 0 -155.5 50.5t-57.5 131.5q0 16 6 54h134v-15q0 -42 24.5 -63t65.5 -21q98 0 125 99h133z" />
    <glyph glyph-name="Edotaccent" unicode="&#x116;" horiz-adv-x="768" 
d="M8 0l291 1458h582l-39 -194h-365l-86 -433h314l-39 -192h-314l-88 -444h365l-39 -195h-582zM520 1573l41 201h191l-39 -201h-193z" />
    <glyph glyph-name="edotaccent" unicode="&#x117;" horiz-adv-x="761" 
d="M61 96q-32 55 -32 154q0 86 41 291q42 204 75.5 300t83.5 154q87 101 256 101q146 0 209 -92q41 -59 41 -168t-49 -357h-424q-33 -165 -33 -221q0 -44 23 -70q19 -22 57 -22q47 0 76 29q37 34 57 118h205q-20 -83 -44.5 -135.5t-63.5 -95.5q-89 -98 -252 -98
q-164 0 -226 112zM293 635h219q27 126 27 184q0 94 -80 94q-52 0 -86 -43q-24 -29 -41 -82t-39 -153zM420 1221l41 200h190l-39 -200h-192z" />
    <glyph glyph-name="Eogonek" unicode="&#x118;" horiz-adv-x="768" 
d="M8 0l291 1458h582l-39 -194h-365l-86 -433h314l-39 -192h-314l-88 -444h365l-39 -195h-582zM242 -391l184 311h139l-162 -311h-161z" />
    <glyph glyph-name="eogonek" unicode="&#x119;" horiz-adv-x="761" 
d="M61 96q-32 55 -32 154q0 86 41 291q42 204 75.5 300t83.5 154q87 101 256 101q146 0 209 -92q41 -59 41 -168t-49 -357h-424q-33 -165 -33 -221q0 -44 23 -70q19 -22 57 -22q47 0 76 29q37 34 57 118h205q-20 -83 -44.5 -135.5t-63.5 -95.5q-89 -98 -252 -98
q-164 0 -226 112zM293 635h219q27 126 27 184q0 94 -80 94q-52 0 -86 -43q-24 -29 -41 -82t-39 -153zM111 -391l184 311h139l-162 -311h-161z" />
    <glyph glyph-name="Ecaron" unicode="&#x11a;" horiz-adv-x="768" 
d="M8 0l291 1458h582l-39 -194h-365l-86 -433h314l-39 -192h-314l-88 -444h365l-39 -195h-582zM532 1544l-135 285h146l84 -170l149 170h160l-248 -285h-156z" />
    <glyph glyph-name="ecaron" unicode="&#x11b;" horiz-adv-x="761" 
d="M61 96q-32 55 -32 154q0 86 41 291q42 204 75.5 300t83.5 154q87 101 256 101q146 0 209 -92q41 -59 41 -168t-49 -357h-424q-33 -165 -33 -221q0 -44 23 -70q19 -22 57 -22q47 0 76 29q37 34 57 118h205q-20 -83 -44.5 -135.5t-63.5 -95.5q-89 -98 -252 -98
q-164 0 -226 112zM293 635h219q27 126 27 184q0 94 -80 94q-52 0 -86 -43q-24 -29 -41 -82t-39 -153zM432 1192l-135 285h145l84 -170l150 170h160l-248 -285h-156z" />
    <glyph glyph-name="Gcircumflex" unicode="&#x11c;" horiz-adv-x="882" 
d="M850 793l-80 -404q-41 -209 -143 -307t-275 -98q-174 0 -248 116q-27 44 -38 89t-11 112q0 112 62 428q46 224 79 346t65.5 186t80.5 111q103 103 270 103q163 0 242 -97q61 -77 61 -204q0 -58 -6 -95h-217q6 31 6 82q0 119 -102 119q-64 0 -104 -43
q-43 -44 -72.5 -140.5t-85.5 -367.5q-62 -312 -62 -426q0 -125 103 -125q136 0 176 195l49 243h-133l33 177h350zM778 1837l133 -287h-143l-86 172l-147 -172h-160l248 287h155z" />
    <glyph glyph-name="gcircumflex" unicode="&#x11d;" horiz-adv-x="788" 
d="M74 565q45 222 76.5 313t76.5 136q85 82 197 82q62 0 104 -31q38 -27 56 -68l16 82h197l-222 -1110q-22 -111 -51.5 -176t-79.5 -108q-87 -76 -233 -76q-121 0 -191.5 66.5t-70.5 179.5q0 40 6 73h203q-4 -25 -4 -53q0 -37 21.5 -59.5t60.5 -22.5q45 0 79 31q21 19 32 49
t24 92l28 152q-25 -31 -63 -54q-54 -28 -109 -28q-115 0 -164 84q-32 55 -32 141q0 93 43 305zM279 565q-37 -182 -37 -252q0 -46 20 -69q24 -27 62 -27q42 0 73 31q38 35 52 110l81 414q7 40 7 55q0 40 -21 64q-22 22 -57 22q-46 0 -80 -34q-29 -27 -50 -97.5t-50 -216.5z
M645 1483l133 -287h-143l-86 172l-148 -172h-159l247 287h156z" />
    <glyph glyph-name="Gbreve" unicode="&#x11e;" horiz-adv-x="882" 
d="M850 793l-80 -404q-41 -209 -143 -307t-275 -98q-174 0 -248 116q-27 44 -38 89t-11 112q0 112 62 428q46 224 79 346t65.5 186t80.5 111q103 103 270 103q163 0 242 -97q61 -77 61 -204q0 -58 -6 -95h-217q6 31 6 82q0 119 -102 119q-64 0 -104 -43
q-43 -44 -72.5 -140.5t-85.5 -367.5q-62 -312 -62 -426q0 -125 103 -125q136 0 176 195l49 243h-133l33 177h350zM930 1782q-27 -126 -93.5 -181t-181.5 -55q-98 0 -155.5 51t-57.5 132q0 9 7 53h133v-15q0 -42 24.5 -63t65.5 -21q98 0 125 99h133z" />
    <glyph glyph-name="gbreve" unicode="&#x11f;" horiz-adv-x="788" 
d="M74 565q45 222 76.5 313t76.5 136q85 82 197 82q62 0 104 -31q38 -27 56 -68l16 82h197l-222 -1110q-22 -111 -51.5 -176t-79.5 -108q-87 -76 -233 -76q-121 0 -191.5 66.5t-70.5 179.5q0 40 6 73h203q-4 -25 -4 -53q0 -37 21.5 -59.5t60.5 -22.5q45 0 79 31q21 19 32 49
t24 92l28 152q-25 -31 -63 -54q-54 -28 -109 -28q-115 0 -164 84q-32 55 -32 141q0 93 43 305zM279 565q-37 -182 -37 -252q0 -46 20 -69q24 -27 62 -27q42 0 73 31q38 35 52 110l81 414q7 40 7 55q0 40 -21 64q-22 22 -57 22q-46 0 -80 -34q-29 -27 -50 -97.5t-50 -216.5z
M797 1430q-27 -126 -93.5 -181t-181.5 -55q-98 0 -155.5 50.5t-57.5 131.5q0 16 6 54h134v-15q0 -42 24.5 -63t65.5 -21q98 0 125 99h133z" />
    <glyph glyph-name="Gdotaccent" unicode="&#x120;" horiz-adv-x="882" 
d="M850 793l-80 -404q-41 -209 -143 -307t-275 -98q-174 0 -248 116q-27 44 -38 89t-11 112q0 112 62 428q46 224 79 346t65.5 186t80.5 111q103 103 270 103q163 0 242 -97q61 -77 61 -204q0 -58 -6 -95h-217q6 31 6 82q0 119 -102 119q-64 0 -104 -43
q-43 -44 -72.5 -140.5t-85.5 -367.5q-62 -312 -62 -426q0 -125 103 -125q136 0 176 195l49 243h-133l33 177h350zM553 1573l41 201h190l-39 -201h-192z" />
    <glyph glyph-name="gdotaccent" unicode="&#x121;" horiz-adv-x="788" 
d="M74 565q45 222 76.5 313t76.5 136q85 82 197 82q62 0 104 -31q38 -27 56 -68l16 82h197l-222 -1110q-22 -111 -51.5 -176t-79.5 -108q-87 -76 -233 -76q-121 0 -191.5 66.5t-70.5 179.5q0 40 6 73h203q-4 -25 -4 -53q0 -37 21.5 -59.5t60.5 -22.5q45 0 79 31q21 19 32 49
t24 92l28 152q-25 -31 -63 -54q-54 -28 -109 -28q-115 0 -164 84q-32 55 -32 141q0 93 43 305zM279 565q-37 -182 -37 -252q0 -46 20 -69q24 -27 62 -27q42 0 73 31q38 35 52 110l81 414q7 40 7 55q0 40 -21 64q-22 22 -57 22q-46 0 -80 -34q-29 -27 -50 -97.5t-50 -216.5z
M420 1221l41 200h190l-39 -200h-192z" />
    <glyph glyph-name="Gcommaaccent" unicode="&#x122;" horiz-adv-x="882" 
d="M850 793l-80 -404q-41 -209 -143 -307t-275 -98q-174 0 -248 116q-27 44 -38 89t-11 112q0 112 62 428q46 224 79 346t65.5 186t80.5 111q103 103 270 103q163 0 242 -97q61 -77 61 -204q0 -58 -6 -95h-217q6 31 6 82q0 119 -102 119q-64 0 -104 -43
q-43 -44 -72.5 -140.5t-85.5 -367.5q-62 -312 -62 -426q0 -125 103 -125q136 0 176 195l49 243h-133l33 177h350zM86 -391l184 311h140l-162 -311h-162z" />
    <glyph glyph-name="gcommaaccent" unicode="&#x123;" horiz-adv-x="788" 
d="M74 565q45 222 76.5 313t76.5 136q85 82 197 82q62 0 104 -31q38 -27 56 -68l16 82h197l-222 -1110q-22 -111 -51.5 -176t-79.5 -108q-87 -76 -233 -76q-121 0 -191.5 66.5t-70.5 179.5q0 40 6 73h203q-4 -25 -4 -53q0 -37 21.5 -59.5t60.5 -22.5q45 0 79 31q21 19 32 49
t24 92l28 152q-25 -31 -63 -54q-54 -28 -109 -28q-115 0 -164 84q-32 55 -32 141q0 93 43 305zM279 565q-37 -182 -37 -252q0 -46 20 -69q24 -27 62 -27q42 0 73 31q38 35 52 110l81 414q7 40 7 55q0 40 -21 64q-22 22 -57 22q-46 0 -80 -34q-29 -27 -50 -97.5t-50 -216.5z
M774 1507l-184 -311h-139l159 311h164z" />
    <glyph glyph-name="Hcircumflex" unicode="&#x124;" horiz-adv-x="935" 
d="M8 0l291 1458h217l-123 -620h271l124 620h218l-291 -1458h-217l129 645h-273l-129 -645h-217zM797 1837l133 -287h-144l-86 172l-147 -172h-160l248 287h156z" />
    <glyph glyph-name="hcircumflex" unicode="&#x125;" horiz-adv-x="808" 
d="M-6 0l291 1458h204l-90 -446q40 40 70 57q52 27 106 27q69 0 107 -23t63 -63q31 -53 31 -129q0 -29 -16 -115l-152 -766h-205l152 764q8 41 8 65q0 37 -21.5 60.5t-60.5 23.5q-102 0 -131 -149l-151 -764h-205zM528 1839l134 -287h-144l-86 172l-147 -172h-160l248 287
h155z" />
    <glyph glyph-name="Hbar" unicode="&#x126;" horiz-adv-x="1067" 
d="M190 1065l33 170h96l46 223h217l-45 -223h272l45 223h217l-45 -223h96l-32 -170h-99l-211 -1065h-217l129 645h-272l-129 -645h-217l211 1065h-95zM459 838h270l45 227h-270z" />
    <glyph glyph-name="hbar" unicode="&#x127;" horiz-adv-x="843" 
d="M170 1190l25 131h96l28 137h205l-28 -137h163l-24 -131h-166l-35 -178q40 40 70 57q52 27 106 27q69 0 107 -23t63 -63q31 -53 31 -129q0 -29 -16 -115l-152 -766h-205l152 764q8 41 8 65q0 37 -21.5 60.5t-60.5 23.5q-102 0 -131 -149l-152 -764h-204l237 1190h-96z" />
    <glyph glyph-name="Itilde" unicode="&#x128;" horiz-adv-x="448" 
d="M8 0l291 1458h217l-291 -1458h-217zM242 1589l-74 99q93 84 176 84q38 0 63 -7.5t56 -27.5q50 -29 90 -29q29 0 50.5 11t49.5 38l74 -98q-92 -86 -178 -86q-37 0 -60.5 7.5t-56.5 27.5q-50 30 -90 30q-29 0 -50.5 -11t-49.5 -38z" />
    <glyph glyph-name="itilde" unicode="&#x129;" horiz-adv-x="405" 
d="M-6 0l209 1049h205l-209 -1049h-205zM156 1237l-74 96q92 86 178 86q60 0 117 -35q47 -30 90 -30q28 0 49 11.5t51 37.5l74 -98q-93 -84 -178 -84q-38 0 -62 7t-55 27q-53 31 -90 31q-28 0 -49 -11.5t-51 -37.5z" />
    <glyph glyph-name="Imacron" unicode="&#x12a;" horiz-adv-x="448" 
d="M8 0l291 1458h217l-291 -1458h-217zM193 1589l26 137h475l-26 -137h-475z" />
    <glyph glyph-name="imacron" unicode="&#x12b;" horiz-adv-x="405" 
d="M-6 0l209 1049h205l-209 -1049h-205zM98 1237l27 137h475l-27 -137h-475z" />
    <glyph glyph-name="Ibreve" unicode="&#x12c;" horiz-adv-x="448" 
d="M8 0l291 1458h217l-291 -1458h-217zM709 1782q-27 -126 -93.5 -181t-181.5 -55q-98 0 -155.5 51t-57.5 132q0 15 6 53h133v-15q0 -42 25 -63t66 -21q97 0 124 99h134z" />
    <glyph glyph-name="ibreve" unicode="&#x12d;" horiz-adv-x="405" 
d="M-6 0l209 1049h205l-209 -1049h-205zM623 1430q-27 -126 -93.5 -181t-181.5 -55q-98 0 -155.5 50.5t-57.5 131.5q0 16 6 54h133v-15q0 -42 25 -63t66 -21q97 0 124 99h134z" />
    <glyph glyph-name="Iogonek" unicode="&#x12e;" horiz-adv-x="448" 
d="M8 0l291 1458h217l-291 -1458h-217zM-131 -391l184 311h140l-162 -311h-162z" />
    <glyph glyph-name="iogonek" unicode="&#x12f;" horiz-adv-x="405" 
d="M-6 0l209 1049h205l-209 -1049h-205zM231 1219l45 221h216l-46 -221h-215zM-152 -391l185 311h139l-162 -311h-162z" />
    <glyph glyph-name="Idotaccent" unicode="&#x130;" horiz-adv-x="448" 
d="M8 0l291 1458h217l-291 -1458h-217zM332 1573l41 201h190l-39 -201h-192z" />
    <glyph glyph-name="dotlessi" unicode="&#x131;" horiz-adv-x="405" 
d="M-6 0l209 1049h205l-209 -1049h-205z" />
    <glyph glyph-name="IJ" unicode="&#x132;" horiz-adv-x="1204" 
d="M8 0l291 1458h217l-291 -1458h-217zM387 119l166 123q47 -64 115 -64q140 0 184 211l213 1069h217l-215 -1075q-41 -211 -133 -297q-110 -102 -272 -102q-194 0 -275 135z" />
    <glyph glyph-name="ij" unicode="&#x133;" horiz-adv-x="811" 
d="M-6 0l209 1049h205l-209 -1049h-205zM231 1219l45 221h216l-46 -221h-215zM391 -35l217 1084h205l-219 -1102q-19 -96 -54 -160t-94 -104q-54 -37 -110 -49.5t-154 -12.5l37 182q74 0 114 40t58 122zM637 1219l45 221h215l-45 -221h-215z" />
    <glyph glyph-name="Jcircumflex" unicode="&#x134;" horiz-adv-x="755" 
d="M-61 119l165 123q47 -64 115 -64q140 0 184 211l213 1069h218l-216 -1075q-41 -211 -133 -297q-110 -102 -272 -102q-193 0 -274 135zM866 1837l133 -287h-143l-86 172l-147 -172h-160l248 287h155z" />
    <glyph glyph-name="jcircumflex" unicode="&#x135;" horiz-adv-x="405" 
d="M-14 -35l217 1084h205l-220 -1102q-19 -96 -53.5 -160t-93.5 -104q-54 -37 -110 -49.5t-154 -12.5l37 182q74 0 114 40t58 122zM471 1483l133 -287h-143l-86 172l-148 -172h-159l247 287h156z" />
    <glyph glyph-name="Kcommaaccent" unicode="&#x136;" horiz-adv-x="909" 
d="M8 0l291 1458h217l-129 -647l414 647h237l-399 -604l152 -854h-220l-106 618l-166 -243l-74 -375h-217zM109 -391l184 311h139l-162 -311h-161z" />
    <glyph glyph-name="kcommaaccent" unicode="&#x137;" horiz-adv-x="817" 
d="M-6 0l291 1458h204l-163 -825l338 446h229l-344 -440l137 -639h-205l-98 463l-125 -160l-59 -303h-205zM55 -391l185 311h139l-162 -311h-162z" />
    <glyph glyph-name="kgreenlandic" unicode="&#x138;" horiz-adv-x="817" 
d="M-6 0l215 1079h205l-88 -446l338 446h229l-344 -440l137 -639h-203l-100 463l-125 -160l-59 -303h-205z" />
    <glyph glyph-name="Lacute" unicode="&#x139;" horiz-adv-x="741" 
d="M8 0l291 1458h217l-252 -1263h365l-39 -195h-582zM338 1550l197 283h182l-225 -283h-154z" />
    <glyph glyph-name="lacute" unicode="&#x13a;" horiz-adv-x="471" 
d="M106 72q-61 61 -61 166q0 53 8 92l226 1128h204l-221 -1114q-6 -31 -6 -65q0 -45 28 -71t83 -26l-35 -182q-154 0 -226 72zM313 1552l197 283h182l-225 -283h-154z" />
    <glyph glyph-name="Lcommaaccent" unicode="&#x13b;" horiz-adv-x="741" 
d="M8 0l291 1458h217l-252 -1263h365l-39 -195h-582zM55 -391l185 311h139l-162 -311h-162z" />
    <glyph glyph-name="lcommaaccent" unicode="&#x13c;" horiz-adv-x="471" 
d="M106 72q-61 61 -61 166q0 53 8 92l226 1128h204l-221 -1114q-6 -31 -6 -65q0 -45 28 -71t83 -26l-35 -182q-154 0 -226 72zM-72 -391l185 311h139l-162 -311h-162z" />
    <glyph glyph-name="Lcaron" unicode="&#x13d;" horiz-adv-x="741" 
d="M8 0l291 1458h217l-252 -1263h365l-39 -195h-582zM567 1143l109 315h153l-133 -315h-129z" />
    <glyph glyph-name="lcaron" unicode="&#x13e;" horiz-adv-x="471" 
d="M106 72q-61 61 -61 166q0 53 8 92l226 1128h204l-221 -1114q-6 -31 -6 -65q0 -45 28 -71t83 -26l-35 -182q-154 0 -226 72zM512 1202l109 316h153l-133 -316h-129z" />
    <glyph glyph-name="Ldot" unicode="&#x13f;" horiz-adv-x="761" 
d="M8 0l291 1458h217l-252 -1263h365l-39 -195h-582zM520 633l41 201h191l-39 -201h-193z" />
    <glyph glyph-name="ldot" unicode="&#x140;" horiz-adv-x="632" 
d="M106 72q-61 61 -61 166q0 53 8 92l226 1128h204l-221 -1114q-6 -31 -6 -65q0 -45 28 -71t83 -26l-35 -182q-154 0 -226 72zM410 516l41 201h190l-39 -201h-192z" />
    <glyph glyph-name="Lslash" unicode="&#x141;" horiz-adv-x="768" 
d="M33 0l106 530l-102 -79l39 202l102 78l146 727h217l-109 -543l217 162l-41 -200l-217 -164l-102 -518h364l-39 -195h-581z" />
    <glyph glyph-name="lslash" unicode="&#x142;" horiz-adv-x="526" 
d="M156 72q-62 62 -62 166q0 53 8 92l58 291l-121 -99l37 189l121 94l131 653h204l-94 -477l121 96l-37 -186l-123 -98l-88 -449q-6 -31 -6 -65q0 -45 28 -71t83 -26l-35 -182q-153 0 -225 72z" />
    <glyph glyph-name="Nacute" unicode="&#x143;" horiz-adv-x="944" 
d="M8 0l291 1458h182l148 -883l168 883h217l-291 -1458h-174l-148 883l-176 -883h-217zM592 1550l196 283h183l-226 -283h-153z" />
    <glyph glyph-name="nacute" unicode="&#x144;" horiz-adv-x="808" 
d="M-6 0l215 1079h197l-17 -78q45 49 80 68q52 27 106 27q69 0 107 -23t63 -63q31 -53 31 -129q0 -27 -16 -115l-152 -766h-205l152 764q8 41 8 65q0 37 -21.5 60.5t-60.5 23.5q-101 0 -131 -149l-151 -764h-205zM446 1196l197 283h182l-225 -283h-154z" />
    <glyph glyph-name="Ncommaaccent" unicode="&#x145;" horiz-adv-x="944" 
d="M8 0l291 1458h182l148 -883l168 883h217l-291 -1458h-174l-148 883l-176 -883h-217zM109 -391l184 311h139l-162 -311h-161z" />
    <glyph glyph-name="ncommaaccent" unicode="&#x146;" horiz-adv-x="808" 
d="M-6 0l215 1079h197l-17 -78q45 49 80 68q52 27 106 27q69 0 107 -23t63 -63q31 -53 31 -129q0 -27 -16 -115l-152 -766h-205l152 764q8 41 8 65q0 37 -21.5 60.5t-60.5 23.5q-101 0 -131 -149l-151 -764h-205zM41 -391l184 311h140l-162 -311h-162z" />
    <glyph glyph-name="Ncaron" unicode="&#x147;" horiz-adv-x="944" 
d="M8 0l291 1458h182l148 -883l168 883h217l-291 -1458h-174l-148 883l-176 -883h-217zM598 1544l-135 285h145l84 -170l150 170h159l-247 -285h-156z" />
    <glyph glyph-name="ncaron" unicode="&#x148;" horiz-adv-x="808" 
d="M-6 0l215 1079h197l-17 -78q45 49 80 68q52 27 106 27q69 0 107 -23t63 -63q31 -53 31 -129q0 -27 -16 -115l-152 -766h-205l152 764q8 41 8 65q0 37 -21.5 60.5t-60.5 23.5q-101 0 -131 -149l-151 -764h-205zM453 1192l-136 285h146l84 -170l149 170h160l-248 -285h-155
z" />
    <glyph glyph-name="napostrophe" unicode="&#x149;" horiz-adv-x="888" 
d="M74 0l215 1079h196l-16 -78q45 49 80 68q52 27 106 27q69 0 107 -23t63 -63q31 -53 31 -129q0 -27 -16 -115l-152 -766h-205l152 764q8 41 8 65q0 37 -21.5 60.5t-60.5 23.5q-101 0 -131 -149l-151 -764h-205zM127 1124l78 394h155l-55 -281z" />
    <glyph glyph-name="Eng" unicode="&#x14a;" horiz-adv-x="944" 
d="M8 0l291 1458h182l148 -883l168 883h217l-305 -1528q-37 -178 -146 -260q-53 -39 -109.5 -53t-129.5 -14l36 194q127 0 152 131l27 138l-138 817l-176 -883h-217z" />
    <glyph glyph-name="eng" unicode="&#x14b;" horiz-adv-x="808" 
d="M-6 0l215 1079h197l-17 -78q45 49 80 68q52 27 106 27q69 0 107 -23t63 -63q31 -53 31 -129q0 -27 -16 -115l-166 -836q-37 -176 -156 -260q-56 -38 -115.5 -51.5t-138.5 -13.5l35 182q70 0 112.5 36t59.5 118l164 823q8 41 8 65q0 37 -21.5 60.5t-60.5 23.5
q-101 0 -131 -149l-151 -764h-205z" />
    <glyph glyph-name="Omacron" unicode="&#x14c;" horiz-adv-x="894" 
d="M117 729q69 332 111.5 454t113.5 191q54 53 118.5 77t151.5 24q184 0 256 -121q28 -43 39 -86.5t11 -108.5q0 -119 -64 -430q-67 -332 -110 -454t-115 -191q-100 -100 -269 -100q-187 0 -258 120q-26 42 -36.5 86t-10.5 109q0 114 62 430zM637 729q63 313 63 424
q0 127 -108 127q-60 0 -103 -43q-40 -40 -70.5 -140t-84.5 -368q-64 -318 -64 -424q0 -127 109 -127q59 0 102 43q40 40 71 141t85 367zM414 1589l26 137h475l-26 -137h-475z" />
    <glyph glyph-name="omacron" unicode="&#x14d;" 
d="M70 541q43 210 75.5 302.5t85.5 151.5q88 101 250 101q164 0 224 -111q34 -58 34 -156q0 -86 -41 -288q-42 -209 -75.5 -303.5t-85.5 -153.5q-87 -100 -250 -100q-166 0 -226 110q-32 60 -32 158q0 84 41 289zM494 541q43 208 43 278q0 48 -19 70q-21 24 -59 24
q-52 0 -86 -43q-27 -36 -48 -110t-51 -219q-43 -208 -43 -281q0 -48 19 -70q21 -24 59 -24q52 0 86 43q27 35 48 110t51 222zM272 1237l27 137h475l-26 -137h-476z" />
    <glyph glyph-name="Obreve" unicode="&#x14e;" horiz-adv-x="894" 
d="M117 729q69 332 111.5 454t113.5 191q54 53 118.5 77t151.5 24q184 0 256 -121q28 -43 39 -86.5t11 -108.5q0 -119 -64 -430q-67 -332 -110 -454t-115 -191q-100 -100 -269 -100q-187 0 -258 120q-26 42 -36.5 86t-10.5 109q0 114 62 430zM637 729q63 313 63 424
q0 127 -108 127q-60 0 -103 -43q-40 -40 -70.5 -140t-84.5 -368q-64 -318 -64 -424q0 -127 109 -127q59 0 102 43q40 40 71 141t85 367zM930 1782q-27 -126 -93.5 -181t-181.5 -55q-98 0 -155.5 51t-57.5 132q0 9 7 53h133v-15q0 -42 24.5 -63t65.5 -21q98 0 125 99h133z
" />
    <glyph glyph-name="obreve" unicode="&#x14f;" 
d="M70 541q43 210 75.5 302.5t85.5 151.5q88 101 250 101q164 0 224 -111q34 -58 34 -156q0 -86 -41 -288q-42 -209 -75.5 -303.5t-85.5 -153.5q-87 -100 -250 -100q-166 0 -226 110q-32 60 -32 158q0 84 41 289zM494 541q43 208 43 278q0 48 -19 70q-21 24 -59 24
q-52 0 -86 -43q-27 -36 -48 -110t-51 -219q-43 -208 -43 -281q0 -48 19 -70q21 -24 59 -24q52 0 86 43q27 35 48 110t51 222zM797 1430q-27 -126 -93.5 -181t-181.5 -55q-98 0 -155.5 50.5t-57.5 131.5q0 16 6 54h134v-15q0 -42 24.5 -63t65.5 -21q98 0 125 99h133z" />
    <glyph glyph-name="Ohungarumlaut" unicode="&#x150;" horiz-adv-x="894" 
d="M117 729q69 332 111.5 454t113.5 191q54 53 118.5 77t151.5 24q184 0 256 -121q28 -43 39 -86.5t11 -108.5q0 -119 -64 -430q-67 -332 -110 -454t-115 -191q-100 -100 -269 -100q-187 0 -258 120q-26 42 -36.5 86t-10.5 109q0 114 62 430zM637 729q63 313 63 424
q0 127 -108 127q-60 0 -103 -43q-40 -40 -70.5 -140t-84.5 -368q-64 -318 -64 -424q0 -127 109 -127q59 0 102 43q40 40 71 141t85 367zM428 1550l145 287h170l-170 -287h-145zM715 1550l145 287h170l-170 -287h-145z" />
    <glyph glyph-name="ohungarumlaut" unicode="&#x151;" 
d="M70 541q43 210 75.5 302.5t85.5 151.5q88 101 250 101q164 0 224 -111q34 -58 34 -156q0 -86 -41 -288q-42 -209 -75.5 -303.5t-85.5 -153.5q-87 -100 -250 -100q-166 0 -226 110q-32 60 -32 158q0 84 41 289zM494 541q43 208 43 278q0 48 -19 70q-21 24 -59 24
q-52 0 -86 -43q-27 -36 -48 -110t-51 -219q-43 -208 -43 -281q0 -48 19 -70q21 -24 59 -24q52 0 86 43q27 35 48 110t51 222zM295 1196l145 287h170l-170 -287h-145zM582 1196l145 287h170l-170 -287h-145z" />
    <glyph glyph-name="OE" unicode="&#x152;" horiz-adv-x="1253" 
d="M350 -16q-179 0 -250 120q-26 42 -36.5 86t-10.5 109q0 129 62 430q46 227 78.5 347.5t65 185t81.5 112.5q54 53 118.5 77t151.5 24q50 0 92.5 -21.5t65.5 -54.5l12 59h586l-39 -194h-364l-86 -433h313l-39 -192h-313l-88 -444h364l-39 -195h-563l10 53
q-28 -28 -76.5 -48.5t-95.5 -20.5zM635 729q63 313 63 424q0 127 -108 127q-60 0 -103 -43q-40 -40 -70.5 -140t-84.5 -368q-64 -318 -64 -424q0 -127 109 -127q59 0 102 43q40 40 71 141t85 367z" />
    <glyph glyph-name="oe" unicode="&#x153;" horiz-adv-x="1183" 
d="M70 541q43 210 75.5 302.5t85.5 151.5q88 101 250 101q141 0 197 -80q77 80 229 80q146 0 209 -92q41 -59 41 -168t-49 -357h-424q-33 -165 -33 -221q0 -44 23 -70q19 -22 57 -22q47 0 76 29q37 34 57 118h205q-20 -83 -44.5 -135.5t-63.5 -95.5q-89 -98 -252 -98
q-68 0 -120.5 21t-76.5 61q-72 -82 -225 -82q-166 0 -226 110q-32 60 -32 158q0 84 41 289zM494 541q43 208 43 278q0 48 -19 70q-21 24 -59 24q-52 0 -86 -43q-27 -36 -48 -110t-51 -219q-43 -208 -43 -281q0 -48 19 -70q21 -24 59 -24q52 0 86 43q27 35 48 110t51 222z
M715 635h219q27 126 27 184q0 94 -80 94q-52 0 -86 -43q-24 -29 -41 -82t-39 -153z" />
    <glyph glyph-name="Racute" unicode="&#x154;" horiz-adv-x="925" 
d="M8 0l291 1458h342q152 0 223.5 -70t71.5 -194q0 -72 -18 -166q-25 -124 -59.5 -201.5t-75.5 -116.5t-105 -67l78 -643h-217l-66 604h-127l-121 -604h-217zM383 793h131q76 0 119.5 59t66.5 176q15 81 15 117q0 59 -26 89t-89 30h-123zM551 1550l197 283h182l-225 -283
h-154z" />
    <glyph glyph-name="racute" unicode="&#x155;" horiz-adv-x="579" 
d="M-6 0l215 1079h197l-23 -114q38 57 102 92q69 39 174 39l-41 -199h-69q-74 0 -133.5 -53.5t-77.5 -143.5l-139 -700h-205zM332 1196l196 283h183l-226 -283h-153z" />
    <glyph glyph-name="Rcommaaccent" unicode="&#x156;" horiz-adv-x="925" 
d="M8 0l291 1458h342q152 0 223.5 -70t71.5 -194q0 -72 -18 -166q-25 -124 -59.5 -201.5t-75.5 -116.5t-105 -67l78 -643h-217l-66 604h-127l-121 -604h-217zM383 793h131q76 0 119.5 59t66.5 176q15 81 15 117q0 59 -26 89t-89 30h-123zM109 -391l184 311h139l-162 -311
h-161z" />
    <glyph glyph-name="rcommaaccent" unicode="&#x157;" horiz-adv-x="579" 
d="M-6 0l215 1079h197l-23 -114q38 57 102 92q69 39 174 39l-41 -199h-69q-74 0 -133.5 -53.5t-77.5 -143.5l-139 -700h-205zM-152 -391l185 311h139l-162 -311h-162z" />
    <glyph glyph-name="Rcaron" unicode="&#x158;" horiz-adv-x="925" 
d="M8 0l291 1458h342q152 0 223.5 -70t71.5 -194q0 -72 -18 -166q-25 -124 -59.5 -201.5t-75.5 -116.5t-105 -67l78 -643h-217l-66 604h-127l-121 -604h-217zM383 793h131q76 0 119.5 59t66.5 176q15 81 15 117q0 59 -26 89t-89 30h-123zM557 1544l-135 285h145l84 -170
l150 170h160l-248 -285h-156z" />
    <glyph glyph-name="rcaron" unicode="&#x159;" horiz-adv-x="579" 
d="M-6 0l215 1079h197l-23 -114q38 57 102 92q69 39 174 39l-41 -199h-69q-74 0 -133.5 -53.5t-77.5 -143.5l-139 -700h-205zM338 1192l-135 285h145l84 -170l150 170h159l-247 -285h-156z" />
    <glyph glyph-name="Sacute" unicode="&#x15a;" horiz-adv-x="856" 
d="M41 397h217q-12 -65 -12 -102q0 -53 24 -80q29 -37 88 -37q67 0 111 41q28 27 42.5 60t29.5 106q14 66 14 129q0 82 -98 127l-135 66q-83 40 -117.5 94.5t-34.5 134.5q0 84 16 160q39 192 129 278q101 101 265 101q88 0 142.5 -21.5t100.5 -67.5q26 -26 42 -72.5
t16 -103.5q0 -58 -15 -147h-217q13 61 13 106q0 51 -23 80q-23 31 -74 31q-59 0 -96 -37q-46 -44 -66 -147q-10 -52 -10 -99q0 -77 80 -116l117 -56q105 -51 146.5 -106.5t41.5 -143.5q0 -89 -20 -192q-24 -122 -53.5 -188t-77.5 -113q-52 -50 -119.5 -73t-167.5 -23
q-170 0 -250 86q-65 68 -65 178q0 53 16 147zM535 1550l196 283h182l-225 -283h-153z" />
    <glyph glyph-name="sacute" unicode="&#x15b;" horiz-adv-x="735" 
d="M55 68q-57 63 -57 165q0 37 8 78h203q-4 -16 -4 -47q0 -41 20 -67q27 -31 78 -31q54 0 88 37q41 44 41 119q0 40 -19 70.5t-69 58.5l-98 53q-142 75 -142 229q0 81 29.5 156.5t89.5 128.5q84 78 230 78q150 0 221 -88q49 -65 49 -152q0 -28 -10 -80h-195q4 18 4 49
q0 35 -20 62q-23 26 -72 26q-50 0 -78 -28q-43 -43 -43 -115q0 -64 76 -106l96 -54q158 -85 158 -256q0 -90 -33.5 -166.5t-85.5 -121.5q-95 -82 -239 -82q-148 0 -226 84zM416 1196l196 283h183l-226 -283h-153z" />
    <glyph glyph-name="Scircumflex" unicode="&#x15c;" horiz-adv-x="856" 
d="M41 397h217q-12 -65 -12 -102q0 -53 24 -80q29 -37 88 -37q67 0 111 41q28 27 42.5 60t29.5 106q14 66 14 129q0 82 -98 127l-135 66q-83 40 -117.5 94.5t-34.5 134.5q0 84 16 160q39 192 129 278q101 101 265 101q88 0 142.5 -21.5t100.5 -67.5q26 -26 42 -72.5
t16 -103.5q0 -58 -15 -147h-217q13 61 13 106q0 51 -23 80q-23 31 -74 31q-59 0 -96 -37q-46 -44 -66 -147q-10 -52 -10 -99q0 -77 80 -116l117 -56q105 -51 146.5 -106.5t41.5 -143.5q0 -89 -20 -192q-24 -122 -53.5 -188t-77.5 -113q-52 -50 -119.5 -73t-167.5 -23
q-170 0 -250 86q-65 68 -65 178q0 53 16 147zM754 1837l133 -287h-144l-86 172l-147 -172h-160l248 287h156z" />
    <glyph glyph-name="scircumflex" unicode="&#x15d;" horiz-adv-x="735" 
d="M55 68q-57 63 -57 165q0 37 8 78h203q-4 -16 -4 -47q0 -41 20 -67q27 -31 78 -31q54 0 88 37q41 44 41 119q0 40 -19 70.5t-69 58.5l-98 53q-142 75 -142 229q0 81 29.5 156.5t89.5 128.5q84 78 230 78q150 0 221 -88q49 -65 49 -152q0 -28 -10 -80h-195q4 18 4 49
q0 35 -20 62q-23 26 -72 26q-50 0 -78 -28q-43 -43 -43 -115q0 -64 76 -106l96 -54q158 -85 158 -256q0 -90 -33.5 -166.5t-85.5 -121.5q-95 -82 -239 -82q-148 0 -226 84zM635 1483l133 -287h-143l-86 172l-148 -172h-160l248 287h156z" />
    <glyph glyph-name="Scedilla" unicode="&#x15e;" horiz-adv-x="856" 
d="M41 397h217q-12 -65 -12 -102q0 -53 24 -80q29 -37 88 -37q67 0 111 41q28 27 42.5 60t29.5 106q14 66 14 129q0 82 -98 127l-135 66q-83 40 -117.5 94.5t-34.5 134.5q0 84 16 160q39 192 129 278q101 101 265 101q88 0 142.5 -21.5t100.5 -67.5q26 -26 42 -72.5
t16 -103.5q0 -58 -15 -147h-217q13 61 13 106q0 51 -23 80q-23 31 -74 31q-59 0 -96 -37q-46 -44 -66 -147q-10 -52 -10 -99q0 -77 80 -116l117 -56q105 -51 146.5 -106.5t41.5 -143.5q0 -89 -20 -192q-24 -122 -53.5 -188t-77.5 -113q-52 -50 -119.5 -73t-167.5 -23
q-170 0 -250 86q-65 68 -65 178q0 53 16 147zM74 -391l184 311h139l-161 -311h-162z" />
    <glyph glyph-name="scedilla" unicode="&#x15f;" horiz-adv-x="735" 
d="M55 68q-57 63 -57 165q0 37 8 78h203q-4 -16 -4 -47q0 -41 20 -67q27 -31 78 -31q54 0 88 37q41 44 41 119q0 40 -19 70.5t-69 58.5l-98 53q-142 75 -142 229q0 81 29.5 156.5t89.5 128.5q84 78 230 78q150 0 221 -88q49 -65 49 -152q0 -28 -10 -80h-195q4 18 4 49
q0 35 -20 62q-23 26 -72 26q-50 0 -78 -28q-43 -43 -43 -115q0 -64 76 -106l96 -54q158 -85 158 -256q0 -90 -33.5 -166.5t-85.5 -121.5q-95 -82 -239 -82q-148 0 -226 84zM16 -391l185 311h139l-162 -311h-162z" />
    <glyph glyph-name="Scaron" unicode="&#x160;" horiz-adv-x="856" 
d="M41 397h217q-12 -65 -12 -102q0 -53 24 -80q29 -37 88 -37q67 0 111 41q28 27 42.5 60t29.5 106q14 66 14 129q0 82 -98 127l-135 66q-83 40 -117.5 94.5t-34.5 134.5q0 84 16 160q39 192 129 278q101 101 265 101q88 0 142.5 -21.5t100.5 -67.5q26 -26 42 -72.5
t16 -103.5q0 -58 -15 -147h-217q13 61 13 106q0 51 -23 80q-23 31 -74 31q-59 0 -96 -37q-46 -44 -66 -147q-10 -52 -10 -99q0 -77 80 -116l117 -56q105 -51 146.5 -106.5t41.5 -143.5q0 -89 -20 -192q-24 -122 -53.5 -188t-77.5 -113q-52 -50 -119.5 -73t-167.5 -23
q-170 0 -250 86q-65 68 -65 178q0 53 16 147zM541 1544l-135 285h145l84 -170l149 170h160l-248 -285h-155z" />
    <glyph glyph-name="scaron" unicode="&#x161;" horiz-adv-x="735" 
d="M55 68q-57 63 -57 165q0 37 8 78h203q-4 -16 -4 -47q0 -41 20 -67q27 -31 78 -31q54 0 88 37q41 44 41 119q0 40 -19 70.5t-69 58.5l-98 53q-142 75 -142 229q0 81 29.5 156.5t89.5 128.5q84 78 230 78q150 0 221 -88q49 -65 49 -152q0 -28 -10 -80h-195q4 18 4 49
q0 35 -20 62q-23 26 -72 26q-50 0 -78 -28q-43 -43 -43 -115q0 -64 76 -106l96 -54q158 -85 158 -256q0 -90 -33.5 -166.5t-85.5 -121.5q-95 -82 -239 -82q-148 0 -226 84zM422 1192l-135 285h145l84 -170l150 170h159l-247 -285h-156z" />
    <glyph glyph-name="Tcommaaccent" unicode="&#x162;" horiz-adv-x="759" 
d="M166 0l252 1264h-232l39 194h680l-39 -194h-231l-252 -1264h-217zM10 -391l185 311h139l-162 -311h-162z" />
    <glyph glyph-name="tcommaaccent" unicode="&#x163;" horiz-adv-x="530" 
d="M90 238q0 46 10 98l113 559h-104l30 154h105l61 307h205l-61 -307h143l-33 -154h-141l-109 -547q-8 -33 -8 -67q0 -46 30.5 -72.5t88.5 -26.5l-35 -182q-156 0 -231 72q-64 64 -64 166zM-45 -391l184 311h140l-162 -311h-162z" />
    <glyph glyph-name="Tcaron" unicode="&#x164;" horiz-adv-x="759" 
d="M166 0l252 1264h-232l39 194h680l-39 -194h-231l-252 -1264h-217zM498 1544l-136 285h146l84 -170l149 170h160l-248 -285h-155z" />
    <glyph glyph-name="tcaron" unicode="&#x165;" horiz-adv-x="530" 
d="M90 238q0 46 10 98l113 559h-104l30 154h105l61 307h205l-61 -307h143l-33 -154h-141l-109 -547q-8 -33 -8 -67q0 -46 30.5 -72.5t88.5 -26.5l-35 -182q-156 0 -231 72q-64 64 -64 166zM553 1202l109 316h153l-133 -316h-129z" />
    <glyph glyph-name="Tbar" unicode="&#x166;" horiz-adv-x="759" 
d="M186 1264l39 194h680l-39 -194h-231l-90 -445h119l-33 -170h-119l-129 -649h-217l129 649h-119l33 170h119l90 445h-232z" />
    <glyph glyph-name="tbar" unicode="&#x167;" horiz-adv-x="573" 
d="M57 545l27 137h106l43 213h-104l31 154h104l62 307h204l-61 -307h143l-32 -154h-142l-43 -213h142l-27 -137h-141l-39 -197q-8 -33 -8 -67q0 -46 30 -72.5t88 -26.5l-34 -182q-157 0 -232 72q-63 63 -63 166q0 46 10 98l41 209h-105z" />
    <glyph glyph-name="Utilde" unicode="&#x168;" horiz-adv-x="913" 
d="M72 375l217 1083h217l-221 -1102q-6 -30 -6 -63q0 -56 28 -85.5t82 -29.5q61 0 106 44t60 122l221 1114h217l-221 -1116q-36 -174 -141 -268q-100 -90 -271 -90q-147 0 -229 88q-70 73 -70 198q0 56 11 105zM471 1589l-74 99q93 84 176 84q38 0 63 -7.5t56 -27.5
q50 -29 90 -29q29 0 51 11.5t50 37.5l73 -98q-92 -86 -178 -86q-36 0 -59.5 7.5t-56.5 27.5q-50 30 -91 30q-29 0 -50.5 -11t-49.5 -38z" />
    <glyph glyph-name="utilde" unicode="&#x169;" horiz-adv-x="808" 
d="M817 1079l-215 -1079h-196l16 78q-45 -49 -80 -68q-50 -26 -106 -26q-69 0 -107 23t-63 63q-31 53 -31 129q0 26 16 114l152 766h205l-152 -764q-8 -41 -8 -65q0 -37 21.5 -60.5t60.5 -23.5q101 0 131 149l151 764h205zM350 1237l-74 96q92 86 179 86q59 0 116 -35
q47 -30 91 -30q28 0 49 11.5t51 37.5l74 -98q-93 -84 -179 -84q-38 0 -61.5 7t-54.5 27q-53 31 -90 31q-29 0 -50 -11.5t-51 -37.5z" />
    <glyph glyph-name="Umacron" unicode="&#x16a;" horiz-adv-x="913" 
d="M72 375l217 1083h217l-221 -1102q-6 -30 -6 -63q0 -56 28 -85.5t82 -29.5q61 0 106 44t60 122l221 1114h217l-221 -1116q-36 -174 -141 -268q-100 -90 -271 -90q-147 0 -229 88q-70 73 -70 198q0 56 11 105zM422 1589l27 137h475l-27 -137h-475z" />
    <glyph glyph-name="umacron" unicode="&#x16b;" horiz-adv-x="808" 
d="M817 1079l-215 -1079h-196l16 78q-45 -49 -80 -68q-50 -26 -106 -26q-69 0 -107 23t-63 63q-31 53 -31 129q0 26 16 114l152 766h205l-152 -764q-8 -41 -8 -65q0 -37 21.5 -60.5t60.5 -23.5q101 0 131 149l151 764h205zM293 1237l26 137h476l-27 -137h-475z" />
    <glyph glyph-name="Ubreve" unicode="&#x16c;" horiz-adv-x="913" 
d="M72 375l217 1083h217l-221 -1102q-6 -30 -6 -63q0 -56 28 -85.5t82 -29.5q61 0 106 44t60 122l221 1114h217l-221 -1116q-36 -174 -141 -268q-100 -90 -271 -90q-147 0 -229 88q-70 73 -70 198q0 56 11 105zM938 1782q-27 -126 -93 -181t-181 -55q-98 0 -155.5 51
t-57.5 132q0 15 6 53h133v-15q0 -42 24.5 -63t65.5 -21q98 0 125 99h133z" />
    <glyph glyph-name="ubreve" unicode="&#x16d;" horiz-adv-x="808" 
d="M817 1079l-215 -1079h-196l16 78q-45 -49 -80 -68q-50 -26 -106 -26q-69 0 -107 23t-63 63q-31 53 -31 129q0 26 16 114l152 766h205l-152 -764q-8 -41 -8 -65q0 -37 21.5 -60.5t60.5 -23.5q101 0 131 149l151 764h205zM817 1430q-27 -126 -93 -181t-181 -55
q-98 0 -155.5 50.5t-57.5 131.5q0 16 6 54h133v-15q0 -42 24.5 -63t65.5 -21q98 0 125 99h133z" />
    <glyph glyph-name="Uring" unicode="&#x16e;" horiz-adv-x="913" 
d="M72 375l217 1083h217l-221 -1102q-6 -30 -6 -63q0 -56 28 -85.5t82 -29.5q61 0 106 44t60 122l221 1114h217l-221 -1116q-36 -174 -141 -268q-100 -90 -271 -90q-147 0 -229 88q-70 73 -70 198q0 56 11 105zM571 1753q0 -42 29.5 -72t69.5 -30t69 30t29 72t-29 72t-69 30
t-69.5 -30t-29.5 -72zM459 1753q0 88 61.5 149.5t149.5 61.5t149.5 -61.5t61.5 -149.5t-61.5 -149.5t-149.5 -61.5t-149.5 61.5t-61.5 149.5z" />
    <glyph glyph-name="uring" unicode="&#x16f;" horiz-adv-x="808" 
d="M817 1079l-215 -1079h-196l16 78q-45 -49 -80 -68q-50 -26 -106 -26q-69 0 -107 23t-63 63q-31 53 -31 129q0 26 16 114l152 766h205l-152 -764q-8 -41 -8 -65q0 -37 21.5 -60.5t60.5 -23.5q101 0 131 149l151 764h205zM457 1411q0 -42 29 -72t69 -30t69 30t29 72t-29 72
t-69 30t-69 -30t-29 -72zM344 1411q0 88 61.5 149.5t149.5 61.5t149.5 -61.5t61.5 -149.5t-61.5 -149.5t-149.5 -61.5t-149.5 61.5t-61.5 149.5z" />
    <glyph glyph-name="Uhungarumlaut" unicode="&#x170;" horiz-adv-x="913" 
d="M72 375l217 1083h217l-221 -1102q-6 -30 -6 -63q0 -56 28 -85.5t82 -29.5q61 0 106 44t60 122l221 1114h217l-221 -1116q-36 -174 -141 -268q-100 -90 -271 -90q-147 0 -229 88q-70 73 -70 198q0 56 11 105zM436 1550l146 287h170l-170 -287h-146zM723 1550l145 287h170
l-170 -287h-145z" />
    <glyph glyph-name="uhungarumlaut" unicode="&#x171;" horiz-adv-x="808" 
d="M817 1079l-215 -1079h-196l16 78q-45 -49 -80 -68q-50 -26 -106 -26q-69 0 -107 23t-63 63q-31 53 -31 129q0 26 16 114l152 766h205l-152 -764q-8 -41 -8 -65q0 -37 21.5 -60.5t60.5 -23.5q101 0 131 149l151 764h205zM315 1196l146 287h170l-170 -287h-146zM602 1196
l146 287h170l-170 -287h-146z" />
    <glyph glyph-name="Uogonek" unicode="&#x172;" horiz-adv-x="913" 
d="M72 375l217 1083h217l-221 -1102q-6 -30 -6 -63q0 -56 28 -85.5t82 -29.5q61 0 106 44t60 122l221 1114h217l-221 -1116q-36 -174 -141 -268q-100 -90 -271 -90q-147 0 -229 88q-70 73 -70 198q0 56 11 105zM229 -391l185 311h139l-162 -311h-162z" />
    <glyph glyph-name="uogonek" unicode="&#x173;" horiz-adv-x="808" 
d="M817 1079l-215 -1079h-196l16 78q-45 -49 -80 -68q-50 -26 -106 -26q-69 0 -107 23t-63 63q-31 53 -31 129q0 26 16 114l152 766h205l-152 -764q-8 -41 -8 -65q0 -37 21.5 -60.5t60.5 -23.5q101 0 131 149l151 764h205zM246 -391l184 311h139l-161 -311h-162z" />
    <glyph glyph-name="Wcircumflex" unicode="&#x174;" horiz-adv-x="1396" 
d="M158 0l41 1458h229l-74 -1120l410 1120h237l-20 -1120l356 1120h230l-527 -1458h-243l16 1108l-412 -1108h-243zM1022 1837l133 -287h-143l-86 172l-148 -172h-160l248 287h156z" />
    <glyph glyph-name="wcircumflex" unicode="&#x175;" horiz-adv-x="1134" 
d="M123 0v1079h211l-39 -743l295 743h168l-2 -745l254 745h217l-436 -1079h-187v717l-291 -717h-190zM823 1483l133 -287h-143l-86 172l-147 -172h-160l248 287h155z" />
    <glyph glyph-name="Ycircumflex" unicode="&#x176;" horiz-adv-x="753" 
d="M162 0l114 582l-83 876h225l22 -590l250 590h238l-439 -897l-110 -561h-217zM702 1837l134 -287h-144l-86 172l-147 -172h-160l248 287h155z" />
    <glyph glyph-name="ycircumflex" unicode="&#x177;" horiz-adv-x="739" 
d="M-84 -197q97 3 147 50q20 19 49 66.5t44 82.5l-39 1077h213l-6 -760l290 760h232l-531 -1218q-28 -63 -62.5 -107.5t-71 -70t-87.5 -39.5t-99 -18.5t-118 -4.5zM637 1483l133 -287h-143l-86 172l-148 -172h-160l248 287h156z" />
    <glyph glyph-name="Ydieresis" unicode="&#x178;" horiz-adv-x="753" 
d="M162 0l114 582l-83 876h225l22 -590l250 590h238l-439 -897l-110 -561h-217zM305 1569l39 203h193l-39 -203h-193zM643 1569l39 203h192l-38 -203h-193z" />
    <glyph glyph-name="Zacute" unicode="&#x179;" horiz-adv-x="722" 
d="M-47 0l31 158l596 1106h-357l39 194h588l-33 -158l-594 -1105h379l-39 -195h-610zM487 1550l197 283h182l-225 -283h-154z" />
    <glyph glyph-name="zacute" unicode="&#x17a;" horiz-adv-x="634" 
d="M-57 0l28 152l439 745h-279l35 182h516l-31 -151l-446 -746h307l-35 -182h-534zM358 1196l197 283h182l-225 -283h-154z" />
    <glyph glyph-name="Zdotaccent" unicode="&#x17b;" horiz-adv-x="722" 
d="M-47 0l31 158l596 1106h-357l39 194h588l-33 -158l-594 -1105h379l-39 -195h-610zM481 1573l41 201h191l-39 -201h-193z" />
    <glyph glyph-name="zdotaccent" unicode="&#x17c;" horiz-adv-x="634" 
d="M-57 0l28 152l439 745h-279l35 182h516l-31 -151l-446 -746h307l-35 -182h-534zM352 1221l41 200h191l-39 -200h-193z" />
    <glyph glyph-name="Zcaron" unicode="&#x17d;" horiz-adv-x="722" 
d="M-47 0l31 158l596 1106h-357l39 194h588l-33 -158l-594 -1105h379l-39 -195h-610zM494 1544l-136 285h146l84 -170l149 170h160l-248 -285h-155z" />
    <glyph glyph-name="zcaron" unicode="&#x17e;" horiz-adv-x="634" 
d="M-57 0l28 152l439 745h-279l35 182h516l-31 -151l-446 -746h307l-35 -182h-534zM365 1192l-136 285h146l84 -170l149 170h160l-248 -285h-155z" />
    <glyph glyph-name="longs" unicode="&#x17f;" horiz-adv-x="405" 
d="M-6 0l229 1143q39 188 146 264q53 38 109.5 50.5t156.5 12.5l-37 -182q-76 0 -117 -40t-57 -118l-225 -1130h-205z" />
    <glyph glyph-name="uni018F" unicode="&#x18f;" horiz-adv-x="890" 
d="M123 793h518q51 267 51 360q0 127 -114 127q-65 0 -103 -41q-48 -43 -74 -162h-215q24 111 58.5 186t93.5 126q100 86 262 86q96 0 156 -27t102 -88q28 -41 38.5 -87t10.5 -114q0 -125 -61 -430q-45 -227 -77.5 -347.5t-65 -184.5t-82.5 -113q-100 -100 -269 -100
q-187 0 -258 120q-26 42 -36.5 86t-10.5 109q0 118 76 494zM606 618h-301q-41 -223 -41 -313q0 -127 109 -127q60 0 100 43q36 34 63.5 115.5t69.5 281.5z" />
    <glyph glyph-name="florin" unicode="&#x192;" horiz-adv-x="749" 
d="M170 791h129l147 399q56 148 142.5 214t228.5 66h88l-37 -180h-82q-45 0 -83 -30.5t-58 -83.5l-145 -385h153l-30 -156h-181l-381 -1014h-196l377 1014h-103z" />
    <glyph glyph-name="uni01B5" unicode="&#x1b5;" horiz-adv-x="722" 
d="M145 649l35 170h160l240 445h-357l39 194h588l-33 -158l-256 -481h103l-37 -170h-160l-244 -454h379l-39 -195h-610l31 158l264 491h-103z" />
    <glyph glyph-name="uni01B6" unicode="&#x1b6;" horiz-adv-x="634" 
d="M72 487l26 138h152l160 272h-279l35 182h516l-31 -151l-182 -303h98l-28 -138h-152l-182 -305h307l-35 -182h-534l28 152l197 335h-96z" />
    <glyph glyph-name="uni01C4" unicode="&#x1c4;" horiz-adv-x="1638" 
d="M264 195h123q82 0 129 57q37 46 66 153t73 326q66 310 66 410q0 56 -29 88q-27 35 -86 35h-129zM8 0l291 1458h342q94 0 151 -29.5t97 -91.5q49 -79 49 -196q0 -83 -66 -410q-63 -313 -103.5 -435.5t-109.5 -189.5q-57 -55 -125.5 -80.5t-162.5 -25.5h-363zM870 0l31 158
l596 1106h-356l39 194h587l-32 -158l-594 -1105h379l-39 -195h-611zM1409 1544l-135 285h145l84 -170l150 170h159l-247 -285h-156z" />
    <glyph glyph-name="uni01C5" unicode="&#x1c5;" horiz-adv-x="1550" 
d="M264 195h123q82 0 129 57q37 46 66 153t73 326q66 310 66 410q0 56 -29 88q-27 35 -86 35h-129zM8 0l291 1458h342q94 0 151 -29.5t97 -91.5q49 -79 49 -196q0 -83 -66 -410q-63 -313 -103.5 -435.5t-109.5 -189.5q-57 -55 -125.5 -80.5t-162.5 -25.5h-363zM860 0l29 152
l438 745h-278l34 182h516l-30 -151l-447 -746h308l-35 -182h-535zM1280 1192l-135 285h145l84 -170l150 170h159l-247 -285h-156z" />
    <glyph glyph-name="uni01C6" unicode="&#x1c6;" horiz-adv-x="1423" 
d="M68 541q46 231 79.5 329t79.5 144q85 82 199 82q62 0 102 -31q36 -29 52 -55l88 448h204l-290 -1458h-197l14 78q-12 -17 -34 -37t-39 -29q-51 -28 -107 -28q-117 0 -166 84q-33 62 -33 141q0 99 48 332zM272 541q-41 -208 -41 -279q0 -47 19 -69q21 -27 59 -27
q47 0 76 29q39 39 53 112l92 465q7 40 7 55q0 41 -21 66q-17 20 -57 20q-46 0 -80 -34q-30 -28 -54 -111t-53 -227zM731 0l29 152l438 745h-278l34 182h516l-30 -151l-447 -746h307l-34 -182h-535zM1153 1192l-135 285h145l84 -170l150 170h159l-247 -285h-156z" />
    <glyph glyph-name="uni01C7" unicode="&#x1c7;" horiz-adv-x="1497" 
d="M8 0l291 1458h217l-252 -1263h365l-39 -195h-582zM680 119l166 123q47 -64 115 -64q140 0 184 211l213 1069h217l-215 -1075q-41 -211 -133 -297q-110 -102 -273 -102q-193 0 -274 135z" />
    <glyph glyph-name="uni01C8" unicode="&#x1c8;" horiz-adv-x="1146" 
d="M8 0l291 1458h217l-252 -1263h365l-39 -195h-582zM727 -35l217 1084h205l-219 -1102q-19 -96 -54 -160t-94 -104q-54 -37 -110 -49.5t-154 -12.5l37 182q74 0 114 40t58 122zM973 1219l45 221h215l-45 -221h-215z" />
    <glyph glyph-name="uni01C9" unicode="&#x1c9;" horiz-adv-x="876" 
d="M106 72q-61 61 -61 166q0 53 8 92l226 1128h204l-221 -1114q-6 -31 -6 -65q0 -45 28 -71t83 -26l-35 -182q-154 0 -226 72zM457 -35l217 1084h205l-220 -1102q-19 -96 -53.5 -160t-93.5 -104q-54 -37 -110 -49.5t-154 -12.5l37 182q74 0 114 40t58 122zM702 1219l46 221
h215l-45 -221h-216z" />
    <glyph glyph-name="uni01CA" unicode="&#x1ca;" horiz-adv-x="1699" 
d="M8 0l291 1458h182l148 -883l168 883h217l-291 -1458h-174l-148 883l-176 -883h-217zM883 119l166 123q47 -64 114 -64q141 0 185 211l213 1069h217l-215 -1075q-41 -211 -133 -297q-110 -102 -273 -102q-193 0 -274 135z" />
    <glyph glyph-name="uni01CB" unicode="&#x1cb;" horiz-adv-x="1349" 
d="M8 0l291 1458h182l148 -883l168 883h217l-291 -1458h-174l-148 883l-176 -883h-217zM930 -35l217 1084h205l-219 -1102q-19 -96 -54 -160t-94 -104q-54 -37 -110 -49.5t-154 -12.5l37 182q74 0 114 40t58 122zM1176 1219l45 221h215l-45 -221h-215z" />
    <glyph glyph-name="uni01CC" unicode="&#x1cc;" horiz-adv-x="1214" 
d="M-6 0l215 1079h197l-17 -78q45 49 80 68q52 27 106 27q69 0 107 -23t63 -63q31 -53 31 -129q0 -27 -16 -115l-152 -766h-205l152 764q8 41 8 65q0 37 -21.5 60.5t-60.5 23.5q-101 0 -131 -149l-151 -764h-205zM795 -35l217 1084h205l-220 -1102q-19 -96 -53.5 -160
t-93.5 -104q-54 -37 -110 -49.5t-154 -12.5l37 182q74 0 114 40t58 122zM1040 1219l45 221h215l-45 -221h-215z" />
    <glyph glyph-name="uni01F1" unicode="&#x1f1;" horiz-adv-x="1638" 
d="M264 195h123q82 0 129 57q37 46 66 153t73 326q66 310 66 410q0 56 -29 88q-27 35 -86 35h-129zM8 0l291 1458h342q94 0 151 -29.5t97 -91.5q49 -79 49 -196q0 -83 -66 -410q-63 -313 -103.5 -435.5t-109.5 -189.5q-57 -55 -125.5 -80.5t-162.5 -25.5h-363zM868 0l31 158
l596 1106h-356l39 194h587l-32 -158l-594 -1105h379l-39 -195h-611z" />
    <glyph glyph-name="uni01F2" unicode="&#x1f2;" horiz-adv-x="1550" 
d="M264 195h123q82 0 129 57q37 46 66 153t73 326q66 310 66 410q0 56 -29 88q-27 35 -86 35h-129zM8 0l291 1458h342q94 0 151 -29.5t97 -91.5q49 -79 49 -196q0 -83 -66 -410q-63 -313 -103.5 -435.5t-109.5 -189.5q-57 -55 -125.5 -80.5t-162.5 -25.5h-363zM858 0l29 152
l438 745h-278l34 182h516l-30 -151l-447 -746h307l-34 -182h-535z" />
    <glyph glyph-name="uni01F3" unicode="&#x1f3;" horiz-adv-x="1423" 
d="M68 541q46 231 79.5 329t79.5 144q85 82 199 82q62 0 102 -31q36 -29 52 -55l88 448h204l-290 -1458h-197l14 78q-12 -17 -34 -37t-39 -29q-51 -28 -107 -28q-117 0 -166 84q-33 62 -33 141q0 99 48 332zM272 541q-41 -208 -41 -279q0 -47 19 -69q21 -27 59 -27
q47 0 76 29q39 39 53 112l92 465q7 40 7 55q0 41 -21 66q-17 20 -57 20q-46 0 -80 -34q-30 -28 -54 -111t-53 -227zM731 0l29 152l438 745h-278l34 182h516l-30 -151l-447 -746h307l-34 -182h-535z" />
    <glyph glyph-name="Aringacute" unicode="&#x1fa;" horiz-adv-x="907" 
d="M791 0h-218l2 295h-321l-119 -295h-231l628 1458h213zM573 489l5 635l-246 -635h241zM670 1989l196 282h183l-226 -282h-153zM569 1753q0 -42 29.5 -72t69.5 -30t69 30t29 72t-29 72t-69 30t-69.5 -30t-29.5 -72zM457 1753q0 88 61.5 149.5t149.5 61.5t149.5 -61.5
t61.5 -149.5t-61.5 -149.5t-149.5 -61.5t-149.5 61.5t-61.5 149.5z" />
    <glyph glyph-name="aringacute" unicode="&#x1fb;" horiz-adv-x="770" 
d="M29 76q-33 50 -33 141q0 39 12 107q14 71 51 135t88 104q46 37 101 52.5t141 15.5h103l26 139q8 36 8 59q0 39 -20.5 61.5t-59.5 22.5q-43 0 -75 -28q-36 -36 -49 -109h-205q34 165 125 244q82 76 227 76q153 0 215 -82q47 -58 47 -162q0 -46 -12 -104l-148 -748h-194
l18 90q-34 -46 -76 -72q-50 -34 -118 -34q-118 0 -172 92zM207 264q0 -46 22 -72t64 -26q51 0 87 42t48 109l35 168h-66q-46 0 -69.5 -7t-48.5 -27q-32 -27 -52 -80.5t-20 -106.5zM446 1411q0 -42 29.5 -72t69.5 -30t69 30t29 72t-29 72t-69 30t-69.5 -30t-29.5 -72z
M334 1411q0 88 61.5 149.5t149.5 61.5t149.5 -61.5t61.5 -149.5t-61.5 -149.5t-149.5 -61.5t-149.5 61.5t-61.5 149.5zM526 1640l197 283h182l-225 -283h-154z" />
    <glyph glyph-name="AEacute" unicode="&#x1fc;" horiz-adv-x="1308" 
d="M-98 0l798 1458h721l-39 -194h-364l-86 -433h313l-39 -192h-313l-88 -444h364l-39 -195h-581l61 309h-305l-162 -309h-241zM410 504h239l152 764zM874 1550l197 283h182l-225 -283h-154z" />
    <glyph glyph-name="aeacute" unicode="&#x1fd;" horiz-adv-x="1163" 
d="M8 324q15 72 52 136t87 103q46 37 101 52.5t141 15.5h103l26 139q8 36 8 59q0 39 -20.5 61.5t-59.5 22.5q-43 0 -75 -28q-36 -36 -49 -109h-205q34 165 125 244q82 76 227 76q132 0 197 -76q88 76 221 76q146 0 209 -92q43 -62 43 -168q0 -110 -52 -357h-423
q-33 -165 -33 -221q0 -45 22 -70q19 -22 58 -22q46 0 75 29q37 35 60 118h203q-20 -83 -45 -135t-64 -96q-86 -98 -252 -98q-100 0 -156 36q-45 31 -86 97q-51 -75 -108 -101q-66 -32 -137 -32q-60 0 -100.5 21.5t-71.5 70.5q-33 50 -33 141q0 57 12 107zM207 264
q0 -46 22 -72t64 -26q51 0 87 42t48 109l35 168h-66q-46 0 -69.5 -7t-48.5 -27q-32 -27 -52 -80.5t-20 -106.5zM696 635h217q27 126 27 184q0 94 -80 94q-54 0 -86 -43q-23 -29 -39.5 -80.5t-38.5 -154.5zM612 1196l197 283h182l-225 -283h-154z" />
    <glyph glyph-name="Oslashacute" unicode="&#x1fe;" horiz-adv-x="894" 
d="M117 729q46 227 78.5 347.5t65 185t81.5 112.5q54 53 118.5 77t151.5 24q109 0 181 -43l63 116h143l-118 -217q37 -67 37 -172q0 -119 -64 -430q-67 -332 -110 -454t-115 -191q-100 -100 -269 -100q-110 0 -182 43l-61 -117h-146l119 215q-35 64 -35 174q0 129 62 430z
M637 729q44 240 47 262l-399 -760q22 -53 96 -53q60 0 100 43q42 44 72 141t84 367zM334 729q-25 -119 -47 -256l399 756q-25 51 -94 51q-60 0 -103 -43q-40 -40 -70.5 -140t-84.5 -368zM559 1550l197 283h182l-225 -283h-154z" />
    <glyph glyph-name="oslashacute" unicode="&#x1ff;" 
d="M70 541q43 210 75.5 302.5t85.5 151.5q88 101 250 101q93 0 154 -37l65 110h136l-123 -202q26 -56 26 -138q0 -86 -41 -288q-42 -209 -75.5 -303.5t-85.5 -153.5q-87 -100 -250 -100q-93 0 -154 34l-65 -108h-136l121 199q-24 59 -24 143t41 289zM494 541q3 18 12 64
t12 69l-276 -475q22 -33 67 -33q52 0 86 43q27 35 48 110t51 222zM274 541q-15 -73 -24 -131l274 471l-6 8q-21 24 -59 24q-52 0 -86 -43q-27 -36 -48 -110t-51 -219zM426 1196l197 283h182l-225 -283h-154z" />
    <glyph glyph-name="Scommaaccent" unicode="&#x218;" horiz-adv-x="856" 
d="M41 397h217q-12 -65 -12 -102q0 -53 24 -80q29 -37 88 -37q67 0 111 41q28 27 42.5 60t29.5 106q14 66 14 129q0 82 -98 127l-135 66q-83 40 -117.5 94.5t-34.5 134.5q0 84 16 160q39 192 129 278q101 101 265 101q88 0 142.5 -21.5t100.5 -67.5q26 -26 42 -72.5
t16 -103.5q0 -58 -15 -147h-217q13 61 13 106q0 51 -23 80q-23 31 -74 31q-59 0 -96 -37q-46 -44 -66 -147q-10 -52 -10 -99q0 -77 80 -116l117 -56q105 -51 146.5 -106.5t41.5 -143.5q0 -89 -20 -192q-24 -122 -53.5 -188t-77.5 -113q-52 -50 -119.5 -73t-167.5 -23
q-170 0 -250 86q-65 68 -65 178q0 53 16 147zM74 -391l184 311h139l-161 -311h-162z" />
    <glyph glyph-name="scommaaccent" unicode="&#x219;" horiz-adv-x="735" 
d="M55 68q-57 63 -57 165q0 37 8 78h203q-4 -16 -4 -47q0 -41 20 -67q27 -31 78 -31q54 0 88 37q41 44 41 119q0 40 -19 70.5t-69 58.5l-98 53q-142 75 -142 229q0 81 29.5 156.5t89.5 128.5q84 78 230 78q150 0 221 -88q49 -65 49 -152q0 -28 -10 -80h-195q4 18 4 49
q0 35 -20 62q-23 26 -72 26q-50 0 -78 -28q-43 -43 -43 -115q0 -64 76 -106l96 -54q158 -85 158 -256q0 -90 -33.5 -166.5t-85.5 -121.5q-95 -82 -239 -82q-148 0 -226 84zM16 -391l185 311h139l-162 -311h-162z" />
    <glyph glyph-name="uni021A" unicode="&#x21a;" horiz-adv-x="759" 
d="M166 0l252 1264h-232l39 194h680l-39 -194h-231l-252 -1264h-217zM10 -391l185 311h139l-162 -311h-162z" />
    <glyph glyph-name="uni021B" unicode="&#x21b;" horiz-adv-x="530" 
d="M90 238q0 46 10 98l113 559h-104l30 154h105l61 307h205l-61 -307h143l-33 -154h-141l-109 -547q-8 -33 -8 -67q0 -46 30.5 -72.5t88.5 -26.5l-35 -182q-156 0 -231 72q-64 64 -64 166zM-41 -391l184 311h140l-162 -311h-162z" />
    <glyph glyph-name="uni0237" unicode="&#x237;" horiz-adv-x="405" 
d="M-14 -35l217 1084h205l-220 -1102q-19 -96 -53.5 -160t-93.5 -104q-54 -37 -110 -49.5t-154 -12.5l37 182q74 0 114 40t58 122z" />
    <glyph glyph-name="uni0259" unicode="&#x259;" horiz-adv-x="761" 
d="M76 600h424q30 165 30 219q0 47 -22 72q-19 22 -59 22q-52 0 -87 -41q-34 -40 -47 -106h-200q19 81 48.5 141.5t82.5 110.5q86 78 233 78q142 0 207 -95q45 -62 45 -167q0 -114 -37 -293q-43 -211 -86 -320.5t-104 -161.5q-84 -75 -232 -75q-134 0 -204 92
q-41 62 -41 170q0 106 49 354zM469 444h-219q-25 -117 -25 -184q0 -94 78 -94q52 0 86 43q40 45 80 235z" />
    <glyph glyph-name="uni02BB" unicode="&#x2bb;" horiz-adv-x="442" 
d="M244 1204l51 254l258 174l-86 -428h-223z" />
    <glyph glyph-name="afii57929" unicode="&#x2bc;" horiz-adv-x="442" 
d="M518 1458l-51 -254l-258 -174l86 428h223z" />
    <glyph glyph-name="circumflex" unicode="&#x2c6;" 
d="M647 1483l133 -287h-143l-86 172l-148 -172h-159l248 287h155z" />
    <glyph glyph-name="caron" unicode="&#x2c7;" 
d="M436 1192l-135 285h145l84 -170l150 170h160l-248 -285h-156z" />
    <glyph glyph-name="breve" unicode="&#x2d8;" 
d="M801 1430q-27 -126 -93.5 -181t-181.5 -55q-98 0 -155.5 50.5t-57.5 131.5q0 16 6 54h134v-15q0 -42 24.5 -63t65.5 -21q98 0 125 99h133z" />
    <glyph glyph-name="dotaccent" unicode="&#x2d9;" 
d="M424 1221l41 200h190l-39 -200h-192z" />
    <glyph glyph-name="ring" unicode="&#x2da;" 
d="M436 1411q0 -42 29.5 -72t69.5 -30t69 30t29 72t-29 72t-69 30t-69.5 -30t-29.5 -72zM324 1411q0 88 61.5 149.5t149.5 61.5t149 -61.5t61 -149.5t-61 -149.5t-149 -61.5t-149.5 61.5t-61.5 149.5z" />
    <glyph glyph-name="ogonek" unicode="&#x2db;" 
d="M31 -391l184 311h139l-161 -311h-162z" />
    <glyph glyph-name="tilde" unicode="&#x2dc;" 
d="M334 1237l-74 96q92 86 178 86q60 0 117 -35q46 -30 90 -30q28 0 49 11.5t51 37.5l74 -98q-93 -84 -178 -84q-38 0 -62 7t-55 27q-53 31 -90 31q-28 0 -49 -11.5t-51 -37.5z" />
    <glyph glyph-name="hungarumlaut" unicode="&#x2dd;" 
d="M299 1196l145 287h170l-170 -287h-145zM586 1196l145 287h170l-170 -287h-145z" />
    <glyph glyph-name="uni0394" unicode="&#x394;" horiz-adv-x="907" 
d="M-96 0l628 1458h213l46 -1458h-887zM223 195h350l11 929z" />
    <glyph glyph-name="uni03A9" unicode="&#x3a9;" horiz-adv-x="894" 
d="M334 729q-70 -343 -70 -450q0 -83 53 -115l-32 -164h-324l37 186h121q-30 26 -44 62.5t-14 99.5q0 106 56 381q69 332 111.5 454t113.5 191q54 53 118.5 77t151.5 24q184 0 256 -121q28 -43 39 -86.5t11 -108.5q0 -119 -64 -430q-37 -180 -67 -292.5t-64 -170.5
q-26 -45 -76 -80h109l-37 -186h-324l33 164q60 33 94 110q28 66 51.5 163t63.5 292q63 313 63 424q0 127 -108 127q-60 0 -103 -43q-40 -40 -70.5 -140t-84.5 -368z" />
    <glyph glyph-name="uni03BC" unicode="&#x3bc;" horiz-adv-x="808" 
d="M-88 -379l293 1458h205l-152 -764q-10 -46 -10 -65q0 -40 23.5 -62t56.5 -22q104 0 133 149l151 764h205l-215 -1079h-196l16 78q-36 -39 -78 -66q-38 -24 -96 -24q-37 0 -64 12l-75 -379h-197z" />
    <glyph glyph-name="pi" unicode="&#x3c0;" horiz-adv-x="815" 
d="M-6 0l215 1079h614l-215 -1079h-205l181 911h-203l-182 -911h-205z" />
    <glyph glyph-name="uni0400" unicode="&#x400;" horiz-adv-x="768" 
d="M8 0l291 1458h582l-39 -194h-365l-86 -433h314l-39 -192h-314l-88 -444h365l-39 -195h-582zM545 1550l-107 283h168l84 -283h-145z" />
    <glyph glyph-name="afii10023" unicode="&#x401;" horiz-adv-x="768" 
d="M8 0l291 1458h582l-39 -194h-365l-86 -433h314l-39 -192h-314l-88 -444h365l-39 -195h-582zM348 1569l39 203h193l-39 -203h-193zM686 1569l39 203h193l-39 -203h-193z" />
    <glyph glyph-name="afii10051" unicode="&#x402;" horiz-adv-x="1013" 
d="M131 0l252 1264h-197l39 194h676l-37 -194h-264l-74 -365h111q87 0 142 -18t95 -60q68 -74 68 -198q0 -86 -16 -168q-26 -132 -63.5 -219.5t-91.5 -140t-120.5 -74t-158.5 -21.5h-33l37 195h22q79 0 120.5 60t70.5 200q14 65 14 127q0 63 -29 94t-96 31h-111l-139 -707
h-217z" />
    <glyph glyph-name="afii10052" unicode="&#x403;" horiz-adv-x="729" 
d="M8 0l291 1458h571l-39 -194h-354l-252 -1264h-217zM479 1550l197 283h182l-225 -283h-154z" />
    <glyph glyph-name="afii10053" unicode="&#x404;" horiz-adv-x="866" 
d="M55 301q0 112 62 428q46 224 79 346t65.5 186t80.5 111q103 103 270 103q163 0 242 -97q61 -77 61 -204q0 -58 -6 -95h-217q6 31 6 82q0 119 -102 119q-64 0 -104 -43q-41 -42 -67.5 -120.5t-68.5 -285.5h260l-38 -192h-261q-45 -242 -45 -336q0 -125 105 -125
q69 0 112 53q47 56 68 150h219q-24 -112 -61 -185t-99 -128q-96 -84 -260 -84q-178 0 -252 116q-27 44 -38 89t-11 112z" />
    <glyph glyph-name="afii10054" unicode="&#x405;" horiz-adv-x="856" 
d="M41 397h217q-12 -65 -12 -102q0 -53 24 -80q29 -37 88 -37q67 0 111 41q28 27 42.5 60t29.5 106q14 66 14 129q0 82 -98 127l-135 66q-83 40 -117.5 94.5t-34.5 134.5q0 84 16 160q39 192 129 278q101 101 265 101q88 0 142.5 -21.5t100.5 -67.5q26 -26 42 -72.5
t16 -103.5q0 -58 -15 -147h-217q13 61 13 106q0 51 -23 80q-23 31 -74 31q-59 0 -96 -37q-46 -44 -66 -147q-10 -52 -10 -99q0 -77 80 -116l117 -56q105 -51 146.5 -106.5t41.5 -143.5q0 -89 -20 -192q-24 -122 -53.5 -188t-77.5 -113q-52 -50 -119.5 -73t-167.5 -23
q-170 0 -250 86q-65 68 -65 178q0 53 16 147z" />
    <glyph glyph-name="afii10055" unicode="&#x406;" horiz-adv-x="448" 
d="M8 0l291 1458h217l-291 -1458h-217z" />
    <glyph glyph-name="afii10056" unicode="&#x407;" horiz-adv-x="448" 
d="M8 0l291 1458h217l-291 -1458h-217zM160 1569l39 203h192l-39 -203h-192zM498 1569l39 203h192l-39 -203h-192z" />
    <glyph glyph-name="afii10057" unicode="&#x408;" horiz-adv-x="755" 
d="M-61 119l165 123q47 -64 115 -64q140 0 184 211l213 1069h218l-216 -1075q-41 -211 -133 -297q-110 -102 -272 -102q-193 0 -274 135z" />
    <glyph glyph-name="afii10058" unicode="&#x409;" horiz-adv-x="1447" 
d="M561 0l252 1264h-229l-127 -641q-32 -160 -76 -277t-88.5 -182.5t-101 -103.5t-103 -49t-104.5 -11h-66l39 195h18q38 0 62 5.5t55.5 30t55 71.5t51 134t53.5 213l162 809h655l-113 -567h115q158 0 236 -78q67 -67 67 -199q0 -85 -16 -170q-27 -132 -66 -220t-94 -136.5
t-118.5 -68t-151.5 -19.5h-367zM817 195h121q85 0 129.5 54.5t73.5 194.5q14 68 14 129q0 63 -28 93t-95 30h-114z" />
    <glyph glyph-name="afii10059" unicode="&#x40a;" horiz-adv-x="1386" 
d="M500 0l139 696h-274l-140 -696h-217l291 1458h217l-113 -567h275l113 567h217l-113 -567h115q85 0 139.5 -18.5t95.5 -59.5q68 -68 68 -199q0 -80 -17 -170q-27 -132 -66 -220t-94 -136.5t-118.5 -68t-151.5 -19.5h-366zM756 195h121q85 0 129 54.5t73 194.5
q15 73 15 129q0 63 -28 93t-95 30h-115z" />
    <glyph glyph-name="afii10060" unicode="&#x40b;" horiz-adv-x="1015" 
d="M131 0l252 1264h-197l39 194h676l-39 -194h-262l-72 -363h109q156 0 233.5 -67.5t77.5 -192.5q0 -58 -24 -180l-93 -461h-217l91 461q16 78 16 135q0 111 -127 111h-105l-141 -707h-217z" />
    <glyph glyph-name="afii10061" unicode="&#x40c;" horiz-adv-x="923" 
d="M561 0l-182 750l446 708h242l-463 -706l195 -752h-238zM8 0l291 1458h217l-291 -1458h-217zM600 1550l197 283h182l-225 -283h-154z" />
    <glyph glyph-name="uni040D" unicode="&#x40d;" horiz-adv-x="950" 
d="M8 0l291 1458h217l-176 -876l496 876h184l-291 -1458h-217l174 874l-487 -874h-191zM616 1550l-106 283h168l84 -283h-146z" />
    <glyph glyph-name="afii10062" unicode="&#x40e;" horiz-adv-x="821" 
d="M-20 0l36 195q92 0 140 31t84 118l57 131l-104 983h221l39 -688l313 688h231l-589 -1177q-38 -76 -63 -117t-58.5 -78t-73.5 -53t-95.5 -24.5t-137.5 -8.5zM403 1778h140v-15q0 -40 24 -60t64 -20q100 0 127 95h139q-27 -119 -92.5 -174.5t-188.5 -55.5q-101 0 -159 48
t-58 130q0 6 4 52z" />
    <glyph glyph-name="afii10145" unicode="&#x40f;" horiz-adv-x="935" 
d="M8 0l291 1458h217l-252 -1263h273l251 1263h218l-291 -1458h-254l-60 -293h-198l59 293h-254z" />
    <glyph glyph-name="afii10017" unicode="&#x410;" horiz-adv-x="907" 
d="M791 0h-218l2 295h-321l-119 -295h-231l628 1458h213zM573 489l5 635l-246 -635h241z" />
    <glyph glyph-name="afii10018" unicode="&#x411;" horiz-adv-x="894" 
d="M8 0l291 1458h643l-39 -194h-426l-74 -373h115q158 0 236 -78q67 -67 67 -199q0 -85 -16 -170q-27 -132 -66 -220t-94 -136.5t-118.5 -68t-151.5 -19.5h-367zM264 195h121q85 0 129.5 54.5t73.5 194.5q14 68 14 129q0 63 -28 93t-95 30h-114z" />
    <glyph glyph-name="afii10019" unicode="&#x412;" horiz-adv-x="913" 
d="M8 0l291 1458h324q91 0 148.5 -20t94.5 -68q54 -69 54 -174q0 -56 -17 -137q-20 -97 -42 -149.5t-73 -98.5q-37 -34 -81 -51q38 -14 65 -53q41 -56 41 -138q0 -72 -16 -151q-27 -135 -61 -210t-87 -124q-54 -48 -120 -66t-175 -18h-346zM264 195h107q93 0 139 50.5
t72 180.5q12 64 12 109q0 69 -32 101t-101 32h-103zM395 852h92q85 0 131 48t68 155q12 53 12 94q0 59 -27.5 87t-95.5 28h-98z" />
    <glyph glyph-name="afii10020" unicode="&#x413;" horiz-adv-x="729" 
d="M8 0l291 1458h571l-39 -194h-354l-252 -1264h-217z" />
    <glyph glyph-name="afii10021" unicode="&#x414;" horiz-adv-x="1052" 
d="M-45 195h92q179 318 262 741l105 522h657l-252 -1263h115l-94 -471h-207l57 276h-565l-57 -276h-205zM270 195h332l213 1069h-229l-82 -408q-71 -359 -234 -661z" />
    <glyph glyph-name="afii10022" unicode="&#x415;" horiz-adv-x="768" 
d="M8 0l291 1458h582l-39 -194h-365l-86 -433h314l-39 -192h-314l-88 -444h365l-39 -195h-582z" />
    <glyph glyph-name="afii10024" unicode="&#x416;" horiz-adv-x="1384" 
d="M-109 0l517 793l-170 665h221l168 -698l-486 -760h-250zM1030 0l-178 756l440 702h248l-465 -713l182 -745h-227zM479 0l291 1458h217l-291 -1458h-217z" />
    <glyph glyph-name="afii10025" unicode="&#x417;" horiz-adv-x="868" 
d="M100 63q-75 75 -75 222q0 52 8 96h219q-8 -44 -8 -82q0 -59 26 -92q26 -29 84 -29q65 0 103 41q31 31 47.5 78t32.5 127q12 68 12 106q0 55 -23 84q-27 37 -90 37h-114l38 189h107q66 0 104 41q26 26 40.5 62.5t29.5 111.5q14 75 14 116q0 56 -22 78q-31 31 -78 31
q-61 0 -100 -41q-48 -51 -68 -162h-215q20 107 53 182.5t90 126.5q100 89 260 89q159 0 230 -80q69 -72 69 -181q0 -70 -18 -155q-20 -97 -40 -144.5t-58 -93.5q-27 -33 -99 -78q52 -32 79.5 -85t27.5 -117q0 -59 -16 -135q-28 -139 -57 -206.5t-87 -123.5q-92 -92 -264 -92
q-166 0 -242 79z" />
    <glyph glyph-name="afii10026" unicode="&#x418;" horiz-adv-x="950" 
d="M8 0l291 1458h217l-176 -876l496 876h184l-291 -1458h-217l174 874l-487 -874h-191z" />
    <glyph glyph-name="afii10027" unicode="&#x419;" horiz-adv-x="950" 
d="M8 0l291 1458h217l-176 -876l496 876h184l-291 -1458h-217l174 874l-487 -874h-191zM479 1778h139v-15q0 -40 24.5 -60t64.5 -20q100 0 127 95h139q-27 -119 -92.5 -174.5t-188.5 -55.5q-101 0 -159 48t-58 130q0 6 4 52z" />
    <glyph glyph-name="afii10028" unicode="&#x41a;" horiz-adv-x="923" 
d="M561 0l-182 750l446 708h242l-463 -706l195 -752h-238zM8 0l291 1458h217l-291 -1458h-217z" />
    <glyph glyph-name="afii10029" unicode="&#x41b;" horiz-adv-x="1003" 
d="M-82 0l39 195h20q48 0 83 17.5t69 66t63.5 139t57.5 231.5l164 809h659l-291 -1458h-219l252 1264h-231l-125 -623q-33 -168 -68.5 -281t-73.5 -185t-90 -110t-107 -51.5t-136 -13.5h-66z" />
    <glyph glyph-name="afii10030" unicode="&#x41c;" horiz-adv-x="1155" 
d="M8 0l291 1458h197l114 -753l418 753h197l-291 -1458h-217l180 905l-303 -579h-121l-65 583l-183 -909h-217z" />
    <glyph glyph-name="afii10031" unicode="&#x41d;" horiz-adv-x="935" 
d="M8 0l291 1458h217l-123 -620h271l124 620h218l-291 -1458h-217l129 645h-273l-129 -645h-217z" />
    <glyph glyph-name="afii10032" unicode="&#x41e;" horiz-adv-x="894" 
d="M117 729q69 332 111.5 454t113.5 191q54 53 118.5 77t151.5 24q184 0 256 -121q28 -43 39 -86.5t11 -108.5q0 -119 -64 -430q-67 -332 -110 -454t-115 -191q-100 -100 -269 -100q-187 0 -258 120q-26 42 -36.5 86t-10.5 109q0 114 62 430zM637 729q63 313 63 424
q0 127 -108 127q-60 0 -103 -43q-40 -40 -70.5 -140t-84.5 -368q-64 -318 -64 -424q0 -127 109 -127q59 0 102 43q40 40 71 141t85 367z" />
    <glyph glyph-name="afii10033" unicode="&#x41f;" horiz-adv-x="935" 
d="M8 0l291 1458h707l-291 -1458h-217l252 1264h-273l-252 -1264h-217z" />
    <glyph glyph-name="afii10034" unicode="&#x420;" horiz-adv-x="888" 
d="M8 0l291 1458h330q85 0 140 -18t95 -58q68 -68 68 -198q0 -76 -17 -170q-27 -132 -66 -220t-94 -137t-119 -68.5t-151 -19.5h-147l-113 -569h-217zM377 764h119q84 0 129 56t73 194q17 87 17 127q0 63 -29 93t-96 30h-113z" />
    <glyph glyph-name="afii10035" unicode="&#x421;" horiz-adv-x="866" 
d="M55 301q0 112 62 428q46 224 79 346t65.5 186t80.5 111q103 103 270 103q163 0 242 -97q61 -77 61 -204q0 -58 -6 -95h-217q6 31 6 82q0 119 -102 119q-64 0 -104 -43q-43 -44 -72.5 -140.5t-85.5 -367.5q-62 -312 -62 -426q0 -125 105 -125q69 0 112 53q47 56 68 150
h219q-24 -112 -61 -185t-99 -128q-96 -84 -260 -84q-178 0 -252 116q-27 44 -38 89t-11 112z" />
    <glyph glyph-name="afii10036" unicode="&#x422;" horiz-adv-x="759" 
d="M166 0l252 1264h-232l39 194h680l-39 -194h-231l-252 -1264h-217z" />
    <glyph glyph-name="afii10037" unicode="&#x423;" horiz-adv-x="821" 
d="M-20 0l36 195q92 0 140 31t84 118l57 131l-104 983h221l39 -688l313 688h231l-589 -1177q-38 -76 -63 -117t-58.5 -78t-73.5 -53t-95.5 -24.5t-137.5 -8.5z" />
    <glyph glyph-name="afii10038" unicode="&#x424;" horiz-adv-x="1210" 
d="M389 -10l35 172q-170 7 -254 96.5t-84 235.5q0 96 35 278q23 114 45 193t53.5 150.5t70 116.5t92.5 79.5t124 50.5t162 20l28 142h213l-28 -142q169 -7 253.5 -96t84.5 -233q0 -99 -35 -281q-22 -112 -44 -190.5t-53 -150t-69.5 -116.5t-93 -80t-125 -52t-162.5 -21
l-35 -172h-213zM305 532q0 -90 35.5 -131t126.5 -45l166 832q-121 -4 -185 -95t-110 -321q-33 -180 -33 -240zM670 356q121 4 186 96t111 320q32 174 32 242q0 89 -36 130t-127 44z" />
    <glyph glyph-name="afii10039" unicode="&#x425;" horiz-adv-x="835" 
d="M-78 0l410 764l-111 694h234l45 -479l231 479h246l-399 -708l129 -750h-236l-61 518l-242 -518h-246z" />
    <glyph glyph-name="afii10040" unicode="&#x426;" horiz-adv-x="985" 
d="M8 0l291 1458h217l-252 -1263h271l253 1263h218l-252 -1263h112l-96 -484h-209l57 289h-610z" />
    <glyph glyph-name="afii10041" unicode="&#x427;" horiz-adv-x="913" 
d="M475 0l100 504q-88 -12 -143 -12q-147 0 -216 57.5t-69 173.5q0 41 23 154l115 581h217l-117 -586q-10 -56 -10 -90q0 -96 110 -96q55 0 127 10l154 762h217l-291 -1458h-217z" />
    <glyph glyph-name="afii10042" unicode="&#x428;" horiz-adv-x="1361" 
d="M8 0l291 1458h217l-252 -1263h240l252 1263h217l-252 -1263h240l251 1263h218l-291 -1458h-1131z" />
    <glyph glyph-name="afii10043" unicode="&#x429;" horiz-adv-x="1409" 
d="M8 0l291 1458h217l-252 -1263h240l252 1263h217l-252 -1263h240l251 1263h218l-252 -1263h112l-96 -484h-209l59 289h-1036z" />
    <glyph glyph-name="afii10044" unicode="&#x42a;" horiz-adv-x="1024" 
d="M186 1264l39 194h418l-113 -567h115q158 0 236 -78q67 -67 67 -199q0 -85 -16 -170q-27 -132 -66 -220t-94 -136.5t-118.5 -68t-151.5 -19.5h-367l252 1264h-201zM391 195h121q85 0 129.5 54.5t73.5 194.5q14 68 14 129q0 63 -28 93t-95 30h-114z" />
    <glyph glyph-name="afii10045" unicode="&#x42b;" horiz-adv-x="1271" 
d="M8 0l291 1458h217l-113 -567h115q158 0 236 -78q67 -67 67 -199q0 -85 -16 -170q-27 -132 -66 -220t-94 -136.5t-118.5 -68t-151.5 -19.5h-367zM264 195h121q85 0 129.5 54.5t73.5 194.5q14 68 14 129q0 63 -28 93t-95 30h-114zM834 0l290 1458h217l-290 -1458h-217z" />
    <glyph glyph-name="afii10046" unicode="&#x42c;" horiz-adv-x="894" 
d="M8 0l291 1458h217l-113 -567h115q158 0 236 -78q67 -67 67 -199q0 -85 -16 -170q-27 -132 -66 -220t-94 -136.5t-118.5 -68t-151.5 -19.5h-367zM264 195h121q85 0 129.5 54.5t73.5 194.5q14 68 14 129q0 63 -28 93t-95 30h-114z" />
    <glyph glyph-name="afii10047" unicode="&#x42d;" horiz-adv-x="866" 
d="M330 639l39 192h260q43 234 43 324q0 125 -109 125q-68 0 -108 -43q-50 -56 -68 -160h-215q22 110 56.5 185.5t93.5 126.5q100 86 262 86q183 0 254 -117q27 -44 38 -89t11 -112q0 -127 -62 -428q-67 -328 -110 -451.5t-113 -191.5q-102 -102 -268 -102q-164 0 -240 82
q-76 79 -76 217q0 34 11 98h219q-8 -44 -8 -82q0 -61 28 -92q26 -29 80 -29q63 0 103 43q41 44 68.5 125t70.5 293h-260z" />
    <glyph glyph-name="afii10048" unicode="&#x42e;" horiz-adv-x="1292" 
d="M8 0l291 1458h217l-125 -620h144q56 262 96 367t106 169q104 101 271 101q184 0 256 -121q27 -42 38 -86t11 -109q0 -119 -64 -430q-67 -332 -110 -454t-115 -191q-100 -100 -268 -100q-187 0 -258 120q-26 42 -36.5 86t-10.5 109q0 104 45 346h-142l-129 -645h-217z
M1032 729q64 318 64 424q0 127 -109 127q-59 0 -102 -43q-40 -40 -71 -141t-85 -367q-63 -313 -63 -424q0 -127 108 -127q60 0 103 43q40 40 70.5 140t84.5 368z" />
    <glyph glyph-name="afii10049" unicode="&#x42f;" horiz-adv-x="925" 
d="M-55 0l350 655q-107 67 -107 232q0 48 19 141q27 133 62 216.5t89 131t120 65t167 17.5h350l-293 -1458h-217l123 606h-114l-312 -606h-237zM424 1028q-14 -68 -14 -113q0 -66 28 -94t94 -28h113l94 471h-116q-85 0 -129 -51.5t-70 -184.5z" />
    <glyph glyph-name="afii10065" unicode="&#x430;" horiz-adv-x="770" 
d="M29 76q-33 50 -33 141q0 39 12 107q14 71 51 135t88 104q46 37 101 52.5t141 15.5h103l26 139q8 36 8 59q0 39 -20.5 61.5t-59.5 22.5q-43 0 -75 -28q-36 -36 -49 -109h-205q34 165 125 244q82 76 227 76q153 0 215 -82q47 -58 47 -162q0 -46 -12 -104l-148 -748h-194
l18 90q-34 -46 -76 -72q-50 -34 -118 -34q-118 0 -172 92zM207 264q0 -46 22 -72t64 -26q51 0 87 42t48 109l35 168h-66q-46 0 -69.5 -7t-48.5 -27q-32 -27 -52 -80.5t-20 -106.5z" />
    <glyph glyph-name="afii10066" unicode="&#x431;" horiz-adv-x="776" 
d="M80 541q53 270 86.5 406.5t65 211t79.5 133.5q74 90 196 131t337 47l-37 -182q-237 -3 -326 -86q-55 -55 -102 -184q70 61 164 61q116 0 174 -96q31 -55 31 -154q0 -89 -41 -288q-42 -211 -75.5 -304.5t-86.5 -152.5q-87 -100 -248 -100q-165 0 -225 110q-33 62 -33 158
q0 84 41 289zM285 541q-45 -221 -45 -281q0 -48 20 -70q21 -24 57 -24q55 0 89 43q26 33 46 107t50 225q45 226 45 278q0 46 -21 70t-57 24q-54 0 -88 -43q-26 -35 -46 -108.5t-50 -220.5z" />
    <glyph glyph-name="afii10067" unicode="&#x432;" horiz-adv-x="788" 
d="M-6 0l215 1079h295q162 0 219 -71q43 -53 43 -131q0 -43 -6 -78q-14 -75 -33.5 -118t-60.5 -81q-33 -33 -74 -45q38 -17 59 -45q35 -46 35 -119q0 -36 -8 -80q-19 -102 -46 -154.5t-73 -90.5q-77 -66 -246 -66h-319zM319 637h95q60 0 92 28.5t47 98.5q6 27 6 53
q0 84 -94 84h-92zM229 178h90q68 0 103.5 32t50.5 109q6 35 6 58q0 94 -102 94h-90z" />
    <glyph glyph-name="afii10068" unicode="&#x433;" horiz-adv-x="659" 
d="M-6 0l215 1079h526l-37 -182h-321l-178 -897h-205z" />
    <glyph glyph-name="afii10069" unicode="&#x434;" horiz-adv-x="919" 
d="M-137 -270l92 452h86q81 143 120 250.5t79 308.5l67 338h582l-178 -897h96l-92 -452h-185l56 270h-484l-55 -270h-184zM250 182h256l143 715h-180l-39 -195q-34 -172 -76 -289.5t-104 -230.5z" />
    <glyph glyph-name="afii10070" unicode="&#x435;" horiz-adv-x="761" 
d="M61 96q-32 55 -32 154q0 86 41 291q42 204 75.5 300t83.5 154q87 101 256 101q146 0 209 -92q41 -59 41 -168t-49 -357h-424q-33 -165 -33 -221q0 -44 23 -70q19 -22 57 -22q47 0 76 29q37 34 57 118h205q-20 -83 -44.5 -135.5t-63.5 -95.5q-89 -98 -252 -98
q-164 0 -226 112zM293 635h219q27 126 27 184q0 94 -80 94q-52 0 -86 -43q-24 -29 -41 -82t-39 -153z" />
    <glyph glyph-name="afii10072" unicode="&#x436;" horiz-adv-x="1210" 
d="M-106 0l407 588l-145 491h211l139 -514l-375 -565h-237zM866 0l-149 559l344 520h237l-372 -530l159 -549h-219zM397 0l215 1079h205l-215 -1079h-205z" />
    <glyph glyph-name="afii10073" unicode="&#x437;" horiz-adv-x="735" 
d="M4 317h205q-6 -31 -6 -61q0 -90 82 -90q43 0 71.5 23.5t51.5 78.5q22 54 22 109q0 38 -22 63q-26 29 -86 29h-60l31 160h55q64 0 96 28q28 22 44 68t16 96q0 25 -6 43q-16 49 -72 49q-42 0 -74 -28q-35 -32 -55 -121h-201q19 90 46.5 147t76.5 103q85 82 230 82
q142 0 210 -74q54 -60 54 -145q0 -42 -8 -89q-13 -67 -31.5 -105.5t-52.5 -74.5q-23 -26 -82 -55q41 -26 61 -55q35 -44 35 -109q0 -49 -10 -100q-19 -90 -51 -145.5t-89 -98.5q-80 -61 -225 -61q-135 0 -199 67q-63 66 -63 187q0 42 6 79z" />
    <glyph glyph-name="afii10074" unicode="&#x438;" horiz-adv-x="823" 
d="M-6 0l215 1079h205l-121 -606l362 606h176l-215 -1079h-204l120 606l-362 -606h-176z" />
    <glyph glyph-name="afii10075" unicode="&#x439;" horiz-adv-x="823" 
d="M-6 0l215 1079h205l-121 -606l362 606h176l-215 -1079h-204l120 606l-362 -606h-176zM338 1425h139v-16q0 -39 24 -59.5t64 -20.5q100 0 127 96h139q-27 -120 -92 -175.5t-188 -55.5q-99 0 -158 49t-59 131q0 5 4 51z" />
    <glyph glyph-name="afii10076" unicode="&#x43a;" horiz-adv-x="811" 
d="M469 0l-154 561l340 518h232l-365 -530l162 -549h-215zM-6 0l215 1079h205l-215 -1079h-205z" />
    <glyph glyph-name="afii10077" unicode="&#x43b;" horiz-adv-x="870" 
d="M-80 0l35 182h29q34 0 58 10.5t49 40.5t45.5 90t39.5 154l121 602h582l-215 -1079h-205l178 897h-180l-90 -453q-28 -142 -63 -231.5t-84 -135.5t-101.5 -61.5t-132.5 -15.5h-66z" />
    <glyph glyph-name="afii10078" unicode="&#x43c;" horiz-adv-x="989" 
d="M-6 0l215 1079h180l105 -526l323 526h180l-215 -1079h-198l123 614l-209 -333h-111l-70 346l-124 -627h-199z" />
    <glyph glyph-name="afii10079" unicode="&#x43d;" horiz-adv-x="813" 
d="M-6 0l215 1079h205l-86 -436h200l86 436h205l-215 -1079h-205l93 461h-201l-92 -461h-205z" />
    <glyph glyph-name="afii10080" unicode="&#x43e;" 
d="M70 541q43 210 75.5 302.5t85.5 151.5q88 101 250 101q164 0 224 -111q34 -58 34 -156q0 -86 -41 -288q-42 -209 -75.5 -303.5t-85.5 -153.5q-87 -100 -250 -100q-166 0 -226 110q-32 60 -32 158q0 84 41 289zM494 541q43 208 43 278q0 48 -19 70q-21 24 -59 24
q-52 0 -86 -43q-27 -36 -48 -110t-51 -219q-43 -208 -43 -281q0 -48 19 -70q21 -24 59 -24q52 0 86 43q27 35 48 110t51 222z" />
    <glyph glyph-name="afii10081" unicode="&#x43f;" horiz-adv-x="813" 
d="M-6 0l215 1079h610l-215 -1079h-205l179 897h-201l-178 -897h-205z" />
    <glyph glyph-name="afii10082" unicode="&#x440;" horiz-adv-x="788" 
d="M723 541q-49 -240 -81.5 -335t-78.5 -140q-85 -82 -196 -82q-66 0 -105 30q-34 27 -49 56l-90 -449h-205l291 1458h197l-15 -78q12 17 34.5 37t39.5 29q56 29 106 29q119 0 166 -84q33 -54 33 -142q0 -100 -47 -329zM518 541q43 201 43 276q0 50 -20 70q-23 26 -58 26
q-44 0 -75 -28q-43 -43 -56 -113l-92 -465q-6 -34 -6 -55q0 -41 22 -66q17 -20 58 -20q43 0 78 35q30 28 53.5 110.5t52.5 229.5z" />
    <glyph glyph-name="afii10083" unicode="&#x441;" horiz-adv-x="743" 
d="M70 541q40 201 74 298t85 156q91 101 252 101q165 0 224 -109q34 -58 34 -147q0 -43 -6 -74h-201q5 34 5 59q0 42 -21 66q-19 22 -57 22q-52 0 -88 -45q-27 -34 -45.5 -101.5t-51.5 -225.5q-45 -221 -45 -283q0 -49 25 -74q21 -18 55 -18q43 0 76 29q36 34 57 118h203
q-36 -151 -104 -229q-90 -100 -254 -100q-155 0 -219 102q-41 65 -41 164q0 76 43 291z" />
    <glyph glyph-name="afii10084" unicode="&#x442;" horiz-adv-x="645" 
d="M115 0l178 897h-187l37 182h576l-37 -182h-184l-179 -897h-204z" />
    <glyph glyph-name="afii10085" unicode="&#x443;" horiz-adv-x="739" 
d="M-84 -197q97 3 147 50q20 19 49 66.5t44 82.5l-39 1077h213l-6 -760l290 760h232l-531 -1218q-28 -63 -62.5 -107.5t-71 -70t-87.5 -39.5t-99 -18.5t-118 -4.5z" />
    <glyph glyph-name="afii10086" unicode="&#x444;" horiz-adv-x="1073" 
d="M82 121q-41 71 -41 170t29 250q62 329 170 432q65 62 125.5 85t179.5 29l73 371h203l-73 -371q164 -7 241 -129q45 -71 45 -170q0 -95 -28 -247q-62 -330 -172 -437q-59 -58 -124 -82t-182 -30l-73 -371h-203l74 371q-172 7 -244 129zM563 172q32 0 65.5 14.5t57.5 38.5
q37 36 61.5 106.5t53.5 207.5q30 160 30 227q0 58 -18 88q-13 22 -41.5 35.5t-62.5 15.5zM262 223q33 -48 105 -51l145 733q-66 0 -123 -53q-38 -33 -63 -105.5t-52 -205.5q-30 -147 -30 -232q0 -60 18 -86z" />
    <glyph glyph-name="afii10087" unicode="&#x445;" horiz-adv-x="759" 
d="M-78 0l336 555l-119 524h215l64 -342l190 342h226l-342 -542l141 -537h-215l-72 348l-196 -348h-228z" />
    <glyph glyph-name="afii10088" unicode="&#x446;" horiz-adv-x="843" 
d="M-6 0l215 1079h205l-181 -897h197l180 897h205l-180 -897h96l-92 -452h-184l55 270h-516z" />
    <glyph glyph-name="afii10089" unicode="&#x447;" horiz-adv-x="759" 
d="M350 0l70 354q-49 -8 -111 -8q-110 0 -169.5 49t-59.5 133q0 40 14 117l86 434h205l-86 -426q-6 -35 -6 -55q0 -70 80 -70q41 0 82 9l108 542h205l-213 -1079h-205z" />
    <glyph glyph-name="afii10090" unicode="&#x448;" horiz-adv-x="1159" 
d="M-6 0l215 1079h205l-181 -897h175l178 897h205l-179 -897h170l181 897h204l-215 -1079h-958z" />
    <glyph glyph-name="afii10091" unicode="&#x449;" horiz-adv-x="1191" 
d="M-6 0l215 1079h205l-181 -897h175l178 897h205l-179 -897h170l181 897h204l-178 -897h92l-90 -452h-184l53 270h-866z" />
    <glyph glyph-name="afii10092" unicode="&#x44a;" horiz-adv-x="854" 
d="M102 891l39 188h363l-78 -385h106q129 0 189 -63q53 -53 53 -158q0 -75 -10 -127q-38 -194 -120 -270t-226 -76h-334l176 891h-158zM324 182h94q60 0 90.5 38t50.5 126q8 46 8 78q0 44 -20 66t-66 22h-90z" />
    <glyph glyph-name="afii10093" unicode="&#x44b;" horiz-adv-x="1128" 
d="M715 0l215 1079h205l-215 -1079h-205zM-6 0l215 1079h205l-78 -385h106q129 0 189 -63q53 -53 53 -158q0 -75 -10 -127q-38 -194 -120 -270t-226 -76h-334zM233 182h95q60 0 90.5 38t50.5 126q8 46 8 78q0 44 -20 66t-66 22h-90z" />
    <glyph glyph-name="afii10094" unicode="&#x44c;" horiz-adv-x="761" 
d="M-6 0l215 1079h205l-78 -385h106q129 0 189 -63q53 -53 53 -158q0 -75 -10 -127q-38 -194 -120 -270t-226 -76h-334zM233 182h95q60 0 90.5 38t50.5 126q8 46 8 78q0 44 -20 66t-66 22h-90z" />
    <glyph glyph-name="afii10095" unicode="&#x44d;" horiz-adv-x="743" 
d="M672 541q-41 -205 -73.5 -302.5t-82.5 -154.5q-90 -100 -256 -100q-162 0 -223 104q-39 59 -39 152q0 38 6 69h203q-4 -25 -4 -55q0 -43 20 -66q22 -22 60 -22q52 0 88 45q38 44 80 250h-199l35 174h198q27 142 27 186q0 52 -25 74q-21 18 -53 18q-48 0 -76 -28
q-37 -35 -57 -117h-201q33 146 105 227q91 101 250 101q151 0 217 -103q41 -65 41 -164q0 -89 -41 -288z" />
    <glyph glyph-name="afii10096" unicode="&#x44e;" horiz-adv-x="1153" 
d="M-6 0l215 1079h205l-86 -436h147q33 149 63.5 224.5t77.5 127.5q88 101 250 101q164 0 224 -111q34 -58 34 -156q0 -86 -41 -288q-42 -209 -75.5 -303.5t-85.5 -153.5q-87 -100 -250 -100q-166 0 -226 110q-32 60 -32 158q0 68 24 209h-147l-92 -461h-205zM879 541
q43 208 43 278q0 48 -19 70q-21 24 -59 24q-52 0 -86 -43q-27 -36 -48 -110t-51 -219q-43 -208 -43 -281q0 -48 19 -70q21 -24 59 -24q52 0 86 43q27 35 48 110t51 222z" />
    <glyph glyph-name="afii10097" unicode="&#x44f;" horiz-adv-x="776" 
d="M-72 0l254 467q-73 51 -73 168q0 70 10 119q37 185 111.5 255t211.5 70h342l-215 -1079h-204l84 418h-78l-221 -418h-222zM483 594l62 303h-90q-59 0 -87 -34.5t-46 -117.5q-9 -45 -9 -69q0 -82 84 -82h86z" />
    <glyph glyph-name="uni0450" unicode="&#x450;" horiz-adv-x="761" 
d="M61 96q-32 55 -32 154q0 86 41 291q42 204 75.5 300t83.5 154q87 101 256 101q146 0 209 -92q41 -59 41 -168t-49 -357h-424q-33 -165 -33 -221q0 -44 23 -70q19 -22 57 -22q47 0 76 29q37 34 57 118h205q-20 -83 -44.5 -135.5t-63.5 -95.5q-89 -98 -252 -98
q-164 0 -226 112zM293 635h219q27 126 27 184q0 94 -80 94q-52 0 -86 -43q-24 -29 -41 -82t-39 -153zM446 1198l-106 283h168l84 -283h-146z" />
    <glyph glyph-name="afii10071" unicode="&#x451;" horiz-adv-x="761" 
d="M61 96q-32 55 -32 154q0 86 41 291q42 204 75.5 300t83.5 154q87 101 256 101q146 0 209 -92q41 -59 41 -168t-49 -357h-424q-33 -165 -33 -221q0 -44 23 -70q19 -22 57 -22q47 0 76 29q37 34 57 118h205q-20 -83 -44.5 -135.5t-63.5 -95.5q-89 -98 -252 -98
q-164 0 -226 112zM293 635h219q27 126 27 184q0 94 -80 94q-52 0 -86 -43q-24 -29 -41 -82t-39 -153zM248 1217l39 202h192l-39 -202h-192zM586 1217l39 202h192l-39 -202h-192z" />
    <glyph glyph-name="afii10099" unicode="&#x452;" horiz-adv-x="806" 
d="M141 1206l25 131h92l25 121h204l-24 -121h291l-27 -131h-291l-37 -194q32 37 68 57q49 27 108 27q68 0 105.5 -23.5t62.5 -62.5q31 -53 31 -129q0 -27 -16 -115l-160 -809q-39 -185 -145 -260q-50 -37 -105.5 -48t-154.5 -11l36 182q71 0 111 37t55 114l158 793
q8 41 8 65q0 37 -21 60.5t-59 23.5q-103 0 -133 -149l-151 -764h-205l239 1206h-90z" />
    <glyph glyph-name="afii10100" unicode="&#x453;" horiz-adv-x="659" 
d="M-6 0l215 1079h526l-37 -182h-321l-178 -897h-205zM385 1196l197 283h182l-225 -283h-154z" />
    <glyph glyph-name="afii10101" unicode="&#x454;" horiz-adv-x="743" 
d="M70 541q40 201 74 298t85 156q91 101 252 101q165 0 224 -109q34 -58 34 -147q0 -43 -6 -74h-201q5 34 5 59q0 45 -21 66q-19 22 -57 22q-52 0 -88 -45q-40 -47 -78 -233h199l-35 -174h-201q-27 -155 -27 -203q0 -49 25 -74q21 -18 55 -18q43 0 76 29q36 34 57 118h203
q-36 -151 -104 -229q-90 -100 -254 -100q-157 0 -217 102q-43 61 -43 164q0 76 43 291z" />
    <glyph glyph-name="afii10102" unicode="&#x455;" horiz-adv-x="735" 
d="M55 68q-57 63 -57 165q0 37 8 78h203q-4 -16 -4 -47q0 -41 20 -67q27 -31 78 -31q54 0 88 37q41 44 41 119q0 40 -19 70.5t-69 58.5l-98 53q-142 75 -142 229q0 81 29.5 156.5t89.5 128.5q84 78 230 78q150 0 221 -88q49 -65 49 -152q0 -28 -10 -80h-195q4 18 4 49
q0 35 -20 62q-23 26 -72 26q-50 0 -78 -28q-43 -43 -43 -115q0 -64 76 -106l96 -54q158 -85 158 -256q0 -90 -33.5 -166.5t-85.5 -121.5q-95 -82 -239 -82q-148 0 -226 84z" />
    <glyph glyph-name="afii10103" unicode="&#x456;" horiz-adv-x="405" 
d="M-6 0l209 1049h205l-209 -1049h-205zM231 1219l45 221h216l-46 -221h-215z" />
    <glyph glyph-name="afii10104" unicode="&#x457;" horiz-adv-x="405" 
d="M-6 0l209 1049h205l-209 -1049h-205zM74 1217l39 202h192l-39 -202h-192zM412 1217l39 202h192l-39 -202h-192z" />
    <glyph glyph-name="afii10105" unicode="&#x458;" horiz-adv-x="405" 
d="M-14 -35l217 1084h205l-220 -1102q-19 -96 -53.5 -160t-93.5 -104q-54 -37 -110 -49.5t-154 -12.5l37 182q74 0 114 40t58 122zM231 1219l45 221h216l-46 -221h-215z" />
    <glyph glyph-name="afii10106" unicode="&#x459;" horiz-adv-x="1224" 
d="M455 0l178 897h-176l-90 -453q-37 -184 -85 -279.5t-114 -130t-178 -34.5h-72l35 182h31q23 0 40 4t39.5 21t40 47t36.5 85.5t34 133.5l121 606h579l-77 -385h106q129 0 189 -63q53 -53 53 -158q0 -75 -10 -127q-38 -194 -120.5 -270t-226.5 -76h-333zM694 182h94
q61 0 91.5 38.5t50.5 125.5q8 46 8 78q0 44 -20 66t-66 22h-90z" />
    <glyph glyph-name="afii10107" unicode="&#x45a;" horiz-adv-x="1163" 
d="M393 0l103 512h-195l-102 -512h-205l215 1079h205l-78 -385h194l78 385h205l-78 -385h107q128 0 188 -63q53 -53 53 -158q0 -75 -10 -127q-38 -194 -120 -270t-226 -76h-334zM633 182h94q60 0 90.5 38t50.5 126q9 52 9 78q0 44 -20 66t-66 22h-91z" />
    <glyph glyph-name="afii10108" unicode="&#x45b;" horiz-adv-x="806" 
d="M141 1206l25 131h92l25 121h204l-24 -121h291l-27 -131h-291l-37 -194q32 37 68 57q49 27 108 27q68 0 105.5 -23.5t62.5 -62.5q31 -53 31 -129q0 -27 -16 -115l-152 -766h-205l152 764q8 41 8 65q0 37 -21 60.5t-59 23.5q-103 0 -133 -149l-151 -764h-205l239 1206h-90z
" />
    <glyph glyph-name="afii10109" unicode="&#x45c;" horiz-adv-x="811" 
d="M469 0l-154 561l340 518h232l-365 -530l162 -549h-215zM-6 0l215 1079h205l-215 -1079h-205zM477 1196l197 283h182l-225 -283h-154z" />
    <glyph glyph-name="uni045D" unicode="&#x45d;" horiz-adv-x="823" 
d="M-6 0l215 1079h205l-121 -606l362 606h176l-215 -1079h-204l120 606l-362 -606h-176zM475 1198l-106 283h168l84 -283h-146z" />
    <glyph glyph-name="afii10110" unicode="&#x45e;" horiz-adv-x="739" 
d="M-84 -197q97 3 147 50q20 19 49 66.5t44 82.5l-39 1077h213l-6 -760l290 760h232l-531 -1218q-28 -63 -62.5 -107.5t-71 -70t-87.5 -39.5t-99 -18.5t-118 -4.5zM301 1425h139v-16q0 -39 24 -59.5t64 -20.5q100 0 127 96h140q-27 -120 -92.5 -175.5t-188.5 -55.5
q-99 0 -158 49t-59 131q0 5 4 51z" />
    <glyph glyph-name="afii10193" unicode="&#x45f;" horiz-adv-x="806" 
d="M-6 0l215 1079h205l-181 -897h197l180 897h205l-215 -1079h-211l-57 -274h-185l58 274h-211z" />
    <glyph glyph-name="afii10146" unicode="&#x462;" horiz-adv-x="972" 
d="M213 1128l35 170h94l33 160h217l-33 -160h141l-32 -170h-142l-47 -237h115q85 0 139.5 -18.5t95.5 -59.5q68 -68 68 -199q0 -85 -16 -170q-27 -132 -66 -220t-94 -136.5t-118.5 -68t-151.5 -19.5h-367l225 1128h-96zM340 195h121q85 0 129.5 54.5t73.5 194.5
q14 68 14 129q0 63 -28 93t-95 30h-115z" />
    <glyph glyph-name="afii10194" unicode="&#x463;" horiz-adv-x="792" 
d="M23 0l167 842h-92l29 137h90l21 100h204l-20 -100h170l-29 -137h-170l-28 -148h106q128 0 188 -63q54 -54 54 -158q0 -70 -11 -127q-38 -194 -120 -270t-226 -76h-333zM262 182h94q61 0 91.5 38.5t50.5 125.5q8 46 8 78q0 44 -20 66t-66 22h-90z" />
    <glyph glyph-name="afii10147" unicode="&#x472;" horiz-adv-x="894" 
d="M117 729q46 227 78.5 347.5t65 185t81.5 112.5q54 53 118.5 77t151.5 24q184 0 256 -121q28 -43 39 -86.5t11 -108.5q0 -119 -64 -430q-67 -332 -110 -454t-115 -191q-100 -100 -269 -100q-187 0 -258 120q-26 42 -36.5 86t-10.5 109q0 129 62 430zM481 221
q36 36 65 122.5t72 295.5h-303q-45 -242 -45 -334q0 -127 109 -127q59 0 102 43zM489 1237q-37 -37 -65 -120t-70 -286h303q43 218 43 322q0 127 -108 127q-60 0 -103 -43z" />
    <glyph glyph-name="afii10195" unicode="&#x473;" 
d="M70 541q43 210 75.5 302.5t85.5 151.5q88 101 250 101q164 0 224 -111q34 -58 34 -156q0 -86 -41 -288q-42 -209 -75.5 -303.5t-85.5 -153.5q-87 -100 -250 -100q-166 0 -226 110q-32 60 -32 158q0 84 41 289zM262 479q-33 -165 -33 -219q0 -43 21 -70q21 -24 57 -24
q54 0 88 43q45 58 84 270h-217zM373 870q-23 -29 -40.5 -82t-39.5 -153h217q27 138 27 184q0 48 -19 70q-21 24 -59 24q-52 0 -86 -43z" />
    <glyph glyph-name="afii10148" unicode="&#x474;" horiz-adv-x="970" 
d="M205 0l-12 1458h237l-45 -1112l311 854q49 137 140 197.5t270 60.5h24l-38 -194q-82 0 -126.5 -30.5t-74.5 -103.5l-461 -1130h-225z" />
    <glyph glyph-name="afii10196" unicode="&#x475;" horiz-adv-x="856" 
d="M895 897h-4q-73 0 -114 -25.5t-70 -93.5l-336 -778h-217l-37 1079h215l-6 -753l200 520q52 133 134 183t247 50h25z" />
    <glyph glyph-name="afii10050" unicode="&#x490;" horiz-adv-x="729" 
d="M8 0l291 1458h365l51 252h207l-91 -446h-354l-252 -1264h-217z" />
    <glyph glyph-name="afii10098" unicode="&#x491;" horiz-adv-x="659" 
d="M-6 0l215 1079h340l53 267h186l-90 -449h-321l-178 -897h-205z" />
    <glyph glyph-name="uni0492" unicode="&#x492;" horiz-adv-x="808" 
d="M121 649l35 170h98l127 639h571l-39 -194h-354l-90 -445h143l-34 -170h-142l-129 -649h-217l129 649h-98z" />
    <glyph glyph-name="uni0493" unicode="&#x493;" horiz-adv-x="690" 
d="M25 0l96 483h-94l26 138h94l93 458h526l-37 -182h-321l-56 -276h168l-28 -138h-166l-97 -483h-204z" />
    <glyph glyph-name="uni0496" unicode="&#x496;" horiz-adv-x="1384" 
d="M1030 0l-178 756l440 702h248l-465 -713l135 -550h86l-96 -484h-207l58 289h-21zM-109 0l517 793l-170 665h221l168 -698l-486 -760h-250zM479 0l291 1458h217l-291 -1458h-217z" />
    <glyph glyph-name="uni0497" unicode="&#x497;" horiz-adv-x="1210" 
d="M866 0l-149 559l344 520h237l-372 -530l106 -367h90l-92 -452h-184l55 270h-35zM-106 0l407 588l-145 491h211l139 -514l-375 -565h-237zM397 0l215 1079h205l-215 -1079h-205z" />
    <glyph glyph-name="uni049A" unicode="&#x49a;" horiz-adv-x="925" 
d="M561 0l-182 750l446 708h242l-463 -706l144 -557h90l-97 -484h-206l57 289h-31zM8 0l291 1458h217l-291 -1458h-217z" />
    <glyph glyph-name="uni049B" unicode="&#x49b;" horiz-adv-x="811" 
d="M469 0l-154 561l340 518h232l-365 -530l109 -367h92l-92 -452h-185l56 270h-33zM-6 0l215 1079h205l-215 -1079h-205z" />
    <glyph glyph-name="uni049C" unicode="&#x49c;" horiz-adv-x="1083" 
d="M8 0l291 1458h217l-119 -598h66l43 219h151l-43 -219h48l315 598h244l-377 -686l123 -772h-226l-92 666h-74l-43 -220h-151l43 220h-66l-133 -666h-217z" />
    <glyph glyph-name="uni049D" unicode="&#x49d;" horiz-adv-x="940" 
d="M-6 0l215 1079h205l-84 -426h59l45 230h121l-45 -230h43l223 426h232l-281 -510l96 -569h-219l-67 471h-64l-45 -229h-121l43 229h-59l-92 -471h-205z" />
    <glyph glyph-name="uni04A2" unicode="&#x4a2;" horiz-adv-x="935" 
d="M547 -289l57 289h-106l129 645h-273l-129 -645h-217l291 1458h217l-123 -620h271l124 620h218l-252 -1263h96l-96 -484h-207z" />
    <glyph glyph-name="uni04A3" unicode="&#x4a3;" horiz-adv-x="813" 
d="M-6 0l215 1079h205l-86 -436h200l86 436h205l-180 -897h84l-92 -452h-185l56 270h-103l93 461h-201l-92 -461h-205z" />
    <glyph glyph-name="uni04AE" unicode="&#x4ae;" horiz-adv-x="753" 
d="M162 0l114 582l-83 876h225l22 -590l250 590h238l-439 -897l-110 -561h-217z" />
    <glyph glyph-name="uni04AF" unicode="&#x4af;" horiz-adv-x="739" 
d="M84 -379l70 356l-37 1102h219l-10 -714l278 714h234l-480 -1099l-69 -359h-205z" />
    <glyph glyph-name="uni04B0" unicode="&#x4b0;" horiz-adv-x="753" 
d="M127 432l27 135h118l4 15l-83 876h225l22 -590l250 590h238l-436 -891h114l-26 -135h-117l-84 -432h-217l84 432h-119z" />
    <glyph glyph-name="uni04B1" unicode="&#x4b1;" horiz-adv-x="739" 
d="M0 -158l29 138h125l-37 1099h219l-10 -714l278 714h234l-480 -1099h129l-28 -138h-127l-43 -221h-205l43 221h-127z" />
    <glyph glyph-name="uni04B2" unicode="&#x4b2;" horiz-adv-x="835" 
d="M442 -289l58 289h-29l-61 518l-242 -518h-246l410 764l-111 694h234l45 -479l231 479h246l-399 -708l94 -555h73l-96 -484h-207z" />
    <glyph glyph-name="uni04B3" unicode="&#x4b3;" horiz-adv-x="759" 
d="M395 -270l56 270h-33l-72 348l-196 -348h-228l336 555l-119 524h215l64 -342l190 342h226l-342 -542l92 -355h88l-92 -452h-185z" />
    <glyph glyph-name="uni04B6" unicode="&#x4b6;" horiz-adv-x="913" 
d="M475 0l100 504q-88 -12 -143 -12q-147 0 -216 57.5t-69 173.5q0 41 23 154l115 581h217l-117 -586q-10 -56 -10 -90q0 -96 110 -96q55 0 127 10l154 762h217l-252 -1263h98l-96 -484h-207l58 289h-109z" />
    <glyph glyph-name="uni04B7" unicode="&#x4b7;" horiz-adv-x="759" 
d="M350 0l70 354q-49 -8 -111 -8q-110 0 -169.5 49t-59.5 133q0 40 14 117l86 434h205l-86 -426q-6 -35 -6 -55q0 -70 80 -70q41 0 82 9l108 542h205l-178 -897h84l-92 -452h-185l56 270h-103z" />
    <glyph glyph-name="uni04B8" unicode="&#x4b8;" horiz-adv-x="983" 
d="M760 0h-217l100 504q-58 -10 -94 -10l-41 -209h-148l41 211q-130 10 -190.5 66t-60.5 165q0 49 14 121l123 610h217l-121 -596q-6 -27 -6 -61q0 -82 65 -101l39 199h150l-41 -213q56 4 92 10l152 762h217z" />
    <glyph glyph-name="uni04B9" unicode="&#x4b9;" horiz-adv-x="827" 
d="M416 0l69 354q-48 -8 -63 -8l-43 -221h-121l43 221q-221 18 -221 193q0 47 8 86l90 454h205l-84 -426q-4 -28 -4 -41q0 -55 45 -69l43 211h121l-45 -224q29 0 63 9l107 540h205l-213 -1079h-205z" />
    <glyph glyph-name="uni04BA" unicode="&#x4ba;" horiz-adv-x="927" 
d="M8 0l291 1458h217l-100 -504q96 13 149 13q279 0 279 -238q0 -36 -19 -133l-118 -596h-220l119 598q8 41 8 76q0 55 -26.5 76.5t-83.5 21.5q-52 0 -127 -10l-152 -762h-217z" />
    <glyph glyph-name="uni04BB" unicode="&#x4bb;" horiz-adv-x="759" 
d="M-6 0l215 1079h205l-70 -354q62 10 107 10q116 0 174.5 -49.5t58.5 -142.5q0 -28 -16 -119l-84 -424h-205l84 426q6 34 6 55q0 40 -19 55t-59 15q-45 0 -84 -8l-108 -543h-205z" />
    <glyph glyph-name="uni04C0" unicode="&#x4c0;" horiz-adv-x="448" 
d="M8 0l291 1458h217l-291 -1458h-217z" />
    <glyph glyph-name="uni04CF" unicode="&#x4cf;" horiz-adv-x="405" 
d="M-6 0l291 1458h204l-290 -1458h-205z" />
    <glyph glyph-name="uni04D8" unicode="&#x4d8;" horiz-adv-x="890" 
d="M123 793h518q51 267 51 360q0 127 -114 127q-65 0 -103 -41q-48 -43 -74 -162h-215q24 111 58.5 186t93.5 126q100 86 262 86q96 0 156 -27t102 -88q28 -41 38.5 -87t10.5 -114q0 -125 -61 -430q-45 -227 -77.5 -347.5t-65 -184.5t-82.5 -113q-100 -100 -269 -100
q-187 0 -258 120q-26 42 -36.5 86t-10.5 109q0 118 76 494zM606 618h-301q-41 -223 -41 -313q0 -127 109 -127q60 0 100 43q36 34 63.5 115.5t69.5 281.5z" />
    <glyph glyph-name="afii10846" unicode="&#x4d9;" horiz-adv-x="761" 
d="M76 600h424q30 165 30 219q0 47 -22 72q-19 22 -59 22q-52 0 -87 -41q-34 -40 -47 -106h-200q19 81 48.5 141.5t82.5 110.5q86 78 233 78q142 0 207 -95q45 -62 45 -167q0 -114 -37 -293q-43 -211 -86 -320.5t-104 -161.5q-84 -75 -232 -75q-134 0 -204 92
q-41 62 -41 170q0 106 49 354zM469 444h-219q-25 -117 -25 -184q0 -94 78 -94q52 0 86 43q40 45 80 235z" />
    <glyph glyph-name="uni04E2" unicode="&#x4e2;" horiz-adv-x="950" 
d="M8 0l291 1458h217l-176 -876l496 876h184l-291 -1458h-217l174 874l-487 -874h-191zM442 1589l27 137h475l-26 -137h-476z" />
    <glyph glyph-name="uni04E3" unicode="&#x4e3;" horiz-adv-x="823" 
d="M-6 0l215 1079h205l-121 -606l362 606h176l-215 -1079h-204l120 606l-362 -606h-176zM301 1237l27 137h475l-27 -137h-475z" />
    <glyph glyph-name="uni04E8" unicode="&#x4e8;" horiz-adv-x="894" 
d="M117 729q46 227 78.5 347.5t65 185t81.5 112.5q54 53 118.5 77t151.5 24q184 0 256 -121q28 -43 39 -86.5t11 -108.5q0 -119 -64 -430q-67 -332 -110 -454t-115 -191q-100 -100 -269 -100q-187 0 -258 120q-26 42 -36.5 86t-10.5 109q0 129 62 430zM481 221
q36 36 65 122.5t72 295.5h-303q-45 -242 -45 -334q0 -127 109 -127q59 0 102 43zM489 1237q-37 -37 -65 -120t-70 -286h303q43 218 43 322q0 127 -108 127q-60 0 -103 -43z" />
    <glyph glyph-name="uni04E9" unicode="&#x4e9;" 
d="M70 541q43 210 75.5 302.5t85.5 151.5q88 101 250 101q164 0 224 -111q34 -58 34 -156q0 -86 -41 -288q-42 -209 -75.5 -303.5t-85.5 -153.5q-87 -100 -250 -100q-166 0 -226 110q-32 60 -32 158q0 84 41 289zM262 479q-33 -165 -33 -219q0 -43 21 -70q21 -24 57 -24
q54 0 88 43q45 58 84 270h-217zM373 870q-23 -29 -40.5 -82t-39.5 -153h217q27 138 27 184q0 48 -19 70q-21 24 -59 24q-52 0 -86 -43z" />
    <glyph glyph-name="uni04EE" unicode="&#x4ee;" horiz-adv-x="821" 
d="M-20 0l36 195q92 0 140 31t84 118l57 131l-104 983h221l39 -688l313 688h231l-589 -1177q-38 -76 -63 -117t-58.5 -78t-73.5 -53t-95.5 -24.5t-137.5 -8.5zM375 1589l26 137h476l-27 -137h-475z" />
    <glyph glyph-name="uni04EF" unicode="&#x4ef;" horiz-adv-x="739" 
d="M-84 -197q97 3 147 50q20 19 49 66.5t44 82.5l-39 1077h213l-6 -760l290 760h232l-531 -1218q-28 -63 -62.5 -107.5t-71 -70t-87.5 -39.5t-99 -18.5t-118 -4.5zM264 1237l27 137h475l-27 -137h-475z" />
    <glyph glyph-name="Wgrave" unicode="&#x1e80;" horiz-adv-x="1396" 
d="M158 0l41 1458h229l-74 -1120l410 1120h237l-20 -1120l356 1120h230l-527 -1458h-243l16 1108l-412 -1108h-243zM823 1550l-106 283h168l84 -283h-146z" />
    <glyph glyph-name="wgrave" unicode="&#x1e81;" horiz-adv-x="1134" 
d="M123 0v1079h211l-39 -743l295 743h168l-2 -745l254 745h217l-436 -1079h-187v717l-291 -717h-190zM625 1198l-107 283h168l84 -283h-145z" />
    <glyph glyph-name="Wacute" unicode="&#x1e82;" horiz-adv-x="1396" 
d="M158 0l41 1458h229l-74 -1120l410 1120h237l-20 -1120l356 1120h230l-527 -1458h-243l16 1108l-412 -1108h-243zM803 1550l196 283h183l-226 -283h-153z" />
    <glyph glyph-name="wacute" unicode="&#x1e83;" horiz-adv-x="1134" 
d="M123 0v1079h211l-39 -743l295 743h168l-2 -745l254 745h217l-436 -1079h-187v717l-291 -717h-190zM604 1196l197 283h182l-225 -283h-154z" />
    <glyph glyph-name="Wdieresis" unicode="&#x1e84;" horiz-adv-x="1396" 
d="M158 0l41 1458h229l-74 -1120l410 1120h237l-20 -1120l356 1120h230l-527 -1458h-243l16 1108l-412 -1108h-243zM625 1569l39 203h192l-39 -203h-192zM963 1569l38 203h193l-39 -203h-192z" />
    <glyph glyph-name="wdieresis" unicode="&#x1e85;" horiz-adv-x="1134" 
d="M123 0v1079h211l-39 -743l295 743h168l-2 -745l254 745h217l-436 -1079h-187v717l-291 -717h-190zM426 1217l39 202h192l-39 -202h-192zM764 1217l39 202h192l-39 -202h-192z" />
    <glyph glyph-name="uni1E8A" unicode="&#x1e8a;" horiz-adv-x="835" 
d="M-78 0l410 764l-111 694h234l45 -479l231 479h246l-399 -708l129 -750h-236l-61 518l-242 -518h-246zM520 1573l41 201h191l-39 -201h-193z" />
    <glyph glyph-name="uni1E8B" unicode="&#x1e8b;" horiz-adv-x="759" 
d="M-78 0l336 555l-119 524h215l64 -342l190 342h226l-342 -542l141 -537h-215l-72 348l-196 -348h-228zM416 1221l41 200h190l-39 -200h-192z" />
    <glyph glyph-name="Ygrave" unicode="&#x1ef2;" horiz-adv-x="753" 
d="M162 0l114 582l-83 876h225l22 -590l250 590h238l-439 -897l-110 -561h-217zM504 1550l-107 283h168l84 -283h-145z" />
    <glyph glyph-name="ygrave" unicode="&#x1ef3;" horiz-adv-x="739" 
d="M-84 -197q97 3 147 50q20 19 49 66.5t44 82.5l-39 1077h213l-6 -760l290 760h232l-531 -1218q-28 -63 -62.5 -107.5t-71 -70t-87.5 -39.5t-99 -18.5t-118 -4.5zM438 1198l-106 283h168l84 -283h-146z" />
    <glyph glyph-name="uni2007" unicode="&#x2007;" horiz-adv-x="776" 
 />
    <glyph glyph-name="uni2008" unicode="&#x2008;" horiz-adv-x="452" 
 />
    <glyph glyph-name="uni200B" unicode="&#x200b;" horiz-adv-x="0" 
 />
    <glyph glyph-name="endash" unicode="&#x2013;" horiz-adv-x="886" 
d="M78 494l39 194h714l-38 -194h-715z" />
    <glyph glyph-name="emdash" unicode="&#x2014;" horiz-adv-x="1368" 
d="M78 494l39 194h1196l-39 -194h-1196z" />
    <glyph glyph-name="afii00208" unicode="&#x2015;" horiz-adv-x="1368" 
d="M78 494l39 194h1196l-39 -194h-1196z" />
    <glyph glyph-name="quoteleft" unicode="&#x2018;" horiz-adv-x="442" 
d="M244 1204l51 254l258 174l-86 -428h-223z" />
    <glyph glyph-name="quoteright" unicode="&#x2019;" horiz-adv-x="442" 
d="M518 1458l-51 -254l-258 -174l86 428h223z" />
    <glyph glyph-name="quotesinglbase" unicode="&#x201a;" horiz-adv-x="442" 
d="M279 254l-52 -254l-258 -174l86 428h224z" />
    <glyph glyph-name="quotedblleft" unicode="&#x201c;" horiz-adv-x="811" 
d="M244 1204l51 254l258 174l-86 -428h-223zM608 1204l51 254l259 174l-87 -428h-223z" />
    <glyph glyph-name="quotedblright" unicode="&#x201d;" horiz-adv-x="811" 
d="M518 1458l-51 -254l-258 -174l86 428h223zM883 1458l-52 -254l-258 -174l86 428h224z" />
    <glyph glyph-name="quotedblbase" unicode="&#x201e;" horiz-adv-x="811" 
d="M276 244l-51 -254l-258 -174l86 428h223zM641 244l-51 -254l-258 -174l86 428h223z" />
    <glyph glyph-name="dagger" unicode="&#x2020;" horiz-adv-x="870" 
d="M233 0l181 907h-252l33 172h254l75 379h191l-76 -379h254l-35 -172h-254l-180 -907h-191z" />
    <glyph glyph-name="daggerdbl" unicode="&#x2021;" horiz-adv-x="870" 
d="M-20 0l36 172h252l146 735h-252l33 172h254l75 379h191l-76 -379h254l-35 -172h-254l-145 -735h254l-35 -172h-254l-76 -379h-192l77 379h-253z" />
    <glyph glyph-name="bullet" unicode="&#x2022;" horiz-adv-x="866" 
d="M145 684q0 129 92.5 221t221.5 92t221 -92t92 -221t-92 -221t-221 -92t-221.5 92t-92.5 221z" />
    <glyph glyph-name="ellipsis" unicode="&#x2026;" horiz-adv-x="1265" 
d="M2 0l47 236h236l-47 -236h-236zM408 0l47 236h235l-47 -236h-235zM813 0l47 236h236l-47 -236h-236z" />
    <glyph glyph-name="perthousand" unicode="&#x2030;" horiz-adv-x="2037" 
d="M1561 238q-9 -45 -9 -54q0 -63 70 -63q77 0 96 100l56 273q8 36 8 53q0 63 -70 63q-77 0 -96 -100zM1397 236l53 266q27 132 97 189t182 57q101 0 159 -53t58 -134q0 -25 -9 -65l-53 -267q-26 -132 -93.5 -188.5t-184.5 -56.5q-101 0 -159 52.5t-58 133.5q0 30 8 66z
M340 965q-8 -40 -8 -54q0 -63 69 -63q78 0 97 100l55 273q8 36 8 53q0 63 -69 63q-78 0 -97 -100zM176 963l53 266q27 132 97 189t182 57q101 0 159 -53t58 -134q0 -29 -8 -65l-53 -267q-26 -131 -93.5 -188t-185.5 -57q-101 0 -159 52.5t-58 133.5q0 30 8 66zM283 0
l774 1458h160l-777 -1458h-157zM944 238q-8 -40 -8 -54q0 -63 70 -63q77 0 96 100l55 273q8 36 8 53q0 63 -69 63q-78 0 -97 -100zM780 236l54 266q27 132 96.5 189t181.5 57q101 0 159 -53t58 -134q0 -29 -8 -65l-53 -267q-26 -131 -93.5 -188t-185.5 -57q-101 0 -159 52.5
t-58 133.5q0 30 8 66z" />
    <glyph glyph-name="guilsinglleft" unicode="&#x2039;" horiz-adv-x="446" 
d="M260 55l-209 510l414 508l-64 -317l-172 -205l90 -203z" />
    <glyph glyph-name="guilsinglright" unicode="&#x203a;" horiz-adv-x="446" 
d="M199 1073l209 -510l-414 -508l63 318l172 205l-90 202z" />
    <glyph glyph-name="fraction" unicode="&#x2044;" horiz-adv-x="229" 
d="M-305 0l772 1458h147l-772 -1458h-147z" />
    <glyph glyph-name="uni2070" unicode="&#x2070;" horiz-adv-x="643" 
d="M262 1270q21 103 80 151q58 47 154 47q91 0 139 -45q45 -40 45 -104q0 -32 -8 -64l-97 -483q-18 -101 -79 -151q-60 -48 -154 -48t-139 45q-42 39 -45 105q0 23 8 63zM399 1268l-98 -486q-4 -20 -4 -34q0 -24 16.5 -40t42.5 -16q29 0 51 20.5t31 61.5l99 486q4 20 4 34
q0 24 -16.5 40t-43.5 16q-28 0 -50.5 -20.5t-31.5 -61.5z" />
    <glyph glyph-name="uni2074" unicode="&#x2074;" horiz-adv-x="643" 
d="M123 719l24 115l349 624h139l-340 -620h117l28 147h138l-29 -147h63l-24 -119h-64l-26 -135h-138l25 135h-262z" />
    <glyph glyph-name="uni2075" unicode="&#x2075;" horiz-adv-x="643" 
d="M168 813h139l-6 -27q-4 -16 -4 -41q0 -53 57 -53q33 0 54 21q18 18 29 49t26 106q18 87 18 127q0 56 -57 56q-29 0 -52.5 -20.5t-33.5 -57.5l-4 -17h-129l102 502h398l-25 -119h-272l-43 -219q25 21 47 31q32 14 75 14q67 0 99 -37t35 -88q0 -62 -21 -172
q-25 -120 -42.5 -165t-53.5 -78q-58 -52 -162 -52q-99 0 -147 54q-37 43 -37 96q0 29 6 63z" />
    <glyph glyph-name="uni2076" unicode="&#x2076;" horiz-adv-x="643" 
d="M174 848q23 117 74 205l233 405h150l-213 -350q24 12 57 12q63 0 98 -39t37 -96q0 -53 -16 -137q-20 -92 -36 -134.5t-46 -72.5q-65 -68 -172 -68q-94 0 -141 54q-36 45 -39 104q0 46 14 117zM311 848q-14 -66 -14 -98q0 -58 55 -58q36 0 54 21q27 27 51 135
q12 59 12 100q0 58 -53 58q-35 0 -56 -21q-16 -16 -25.5 -45t-23.5 -92z" />
    <glyph glyph-name="uni2077" unicode="&#x2077;" horiz-adv-x="643" 
d="M197 584l358 755h-164l-20 -112h-131l47 231h434l-21 -104l-362 -770h-141z" />
    <glyph glyph-name="uni2078" unicode="&#x2078;" horiz-adv-x="643" 
d="M586 831q-18 -94 -33.5 -133t-50.5 -71q-60 -54 -164 -54q-96 0 -145 52q-37 40 -37 98q0 56 12 108q23 116 53 156q28 38 72 62q-20 14 -33 34q-14 25 -14 78q0 29 8 70q17 83 33.5 120.5t48.5 65.5q54 51 151 51q101 0 146 -51q37 -40 37 -100q0 -47 -8 -86
q-21 -99 -50 -139q-28 -41 -65 -60q17 -14 31 -35q18 -27 18 -77q0 -35 -10 -89zM387 1225q-8 -49 -8 -70q0 -27 12 -41q14 -14 39 -14q31 0 53 22q19 19 37 103q8 49 8 69q0 27 -12 41q-15 15 -39 15q-30 0 -53 -23q-20 -20 -37 -102zM449 831q12 61 12 91q0 26 -15 41
q-14 14 -40 14q-34 0 -58 -21q-14 -14 -22 -38.5t-21 -86.5q-12 -61 -12 -83q0 -27 14 -41q15 -15 41 -15q34 0 58 21q15 15 23 37t20 81z" />
    <glyph glyph-name="uni2079" unicode="&#x2079;" horiz-adv-x="643" 
d="M668 1194q-23 -117 -74 -205l-234 -405h-149l213 350q-24 -12 -57 -12q-63 0 -98.5 39t-37.5 96q0 48 17 137q20 92 36 134.5t46 72.5q64 67 172 67q94 0 141 -53q36 -45 39 -104q0 -46 -14 -117zM530 1194q15 70 15 98q0 27 -14.5 42.5t-41.5 15.5q-35 0 -53 -21
q-27 -27 -51 -135q-12 -59 -12 -100q0 -58 53 -58q34 0 55 21q16 16 25.5 45t23.5 92z" />
    <glyph glyph-name="uni2080" unicode="&#x2080;" horiz-adv-x="643" 
d="M86 379q21 103 80 151q60 48 153 48q91 0 140 -46q45 -40 45 -104q0 -31 -8 -63l-97 -484q-18 -100 -80 -151q-58 -47 -153 -47q-94 0 -139 45q-42 39 -45 104q0 24 8 64zM223 377l-98 -486q-4 -20 -4 -34q0 -24 16.5 -40t42.5 -16q29 0 51 20.5t31 61.5l98 486
q5 25 5 34q0 24 -16.5 40t-43.5 16q-28 0 -50.5 -20.5t-31.5 -61.5z" />
    <glyph glyph-name="uni2081" unicode="&#x2081;" horiz-adv-x="643" 
d="M115 -307l143 717l-141 -99l30 156l144 100h137l-174 -874h-139z" />
    <glyph glyph-name="uni2082" unicode="&#x2082;" horiz-adv-x="643" 
d="M-47 -307l22 108l310 424q75 101 75 174q0 60 -55 60q-63 0 -80 -78l-10 -55h-139l10 51q22 115 90 162q52 39 139 39q93 0 140 -50q43 -46 43 -112q0 -103 -99 -238l-270 -366h262l-24 -119h-414z" />
    <glyph glyph-name="uni2083" unicode="&#x2083;" horiz-adv-x="643" 
d="M72 322l10 57q11 58 30.5 94.5t59.5 65.5q53 39 141 39q94 0 138 -50q34 -37 34 -110q0 -32 -10 -84q-17 -89 -49 -129q-27 -31 -61 -47q61 -36 61 -115q0 -30 -12 -100q-22 -98 -38.5 -139t-51.5 -70q-57 -51 -160 -51q-101 0 -148 53q-36 39 -36 98q0 44 6 68l8 39h137
l-8 -43q-4 -18 -4 -41q0 -27 15 -41.5t40 -14.5q30 0 55 21q15 13 24 37.5t21 83.5q15 69 15 102q0 25 -15 39t-43 14h-45l25 113h37q27 0 49 18q15 15 23 34t18 69q10 55 10 71q0 56 -49 56q-61 0 -76 -74l-12 -63h-139z" />
    <glyph glyph-name="uni2084" unicode="&#x2084;" horiz-adv-x="643" 
d="M-55 -172l24 115l348 624h140l-340 -620h116l29 147h137l-28 -147h63l-24 -119h-64l-27 -135h-137l25 135h-262z" />
    <glyph glyph-name="uni2085" unicode="&#x2085;" horiz-adv-x="643" 
d="M-10 -78h139l-6 -26q-4 -16 -4 -41t15 -39.5t42 -14.5q32 0 53 21q18 18 30 49t26 106q18 87 18 127q0 56 -57 56q-29 0 -52.5 -20.5t-33.5 -57.5l-4 -16h-129l102 501h397l-24 -118h-273l-43 -220q24 21 47 31q32 14 76 14q68 0 99 -36t34 -88q0 -69 -20 -173
q-25 -120 -42.5 -165t-53.5 -78q-57 -51 -162 -51q-101 0 -148 53q-36 41 -36 96q0 30 6 64z" />
    <glyph glyph-name="uni2086" unicode="&#x2086;" horiz-adv-x="643" 
d="M-4 -43q23 117 74 205l233 405h150l-213 -350q24 12 57 12q63 0 98 -39t37 -96q0 -53 -16 -137q-20 -92 -36 -134.5t-46 -72.5q-64 -67 -172 -67q-95 0 -142 53q-35 43 -38 104q0 46 14 117zM133 -43q-14 -66 -14 -98q0 -58 55 -58q35 0 53 21q28 28 52 135q12 59 12 100
q0 58 -53 58q-35 0 -56 -21q-16 -16 -25.5 -45t-23.5 -92z" />
    <glyph glyph-name="uni2087" unicode="&#x2087;" horiz-adv-x="643" 
d="M18 -307l359 756h-164l-20 -113h-132l48 231h434l-21 -104l-362 -770h-142z" />
    <glyph glyph-name="uni2088" unicode="&#x2088;" horiz-adv-x="643" 
d="M408 -59q-18 -94 -33.5 -133.5t-50.5 -71.5q-58 -53 -164 -53q-98 0 -146 51q-37 40 -37 98q0 53 13 109q13 67 24.5 99.5t28.5 55.5q28 38 72 62q-18 13 -33 35q-14 25 -14 77q0 29 8 70q17 83 33.5 120.5t48.5 65.5q55 52 151 52q100 0 146 -52q37 -40 37 -100
q0 -42 -9 -86q-22 -101 -49 -139q-28 -41 -65 -60q15 -12 30 -35q19 -29 19 -77q0 -34 -10 -88zM209 334q-8 -49 -8 -70q0 -27 12 -41q14 -14 39 -14q31 0 53 22q19 19 37 103q8 49 8 69q0 27 -12 41q-15 15 -39 15q-30 0 -53 -23q-20 -20 -37 -102zM270 -59q13 66 13 90
q0 26 -15 41q-14 14 -41 14q-34 0 -57 -20q-14 -14 -22 -38.5t-21 -86.5q-12 -61 -12 -84q0 -27 14 -41q15 -15 41 -15q33 0 57 21q15 15 23 37.5t20 81.5z" />
    <glyph glyph-name="uni2089" unicode="&#x2089;" horiz-adv-x="643" 
d="M489 305q-23 -120 -73 -205l-234 -405h-149l213 350q-24 -12 -58 -12q-63 0 -98 39t-37 96q0 48 17 137q20 92 36 134.5t46 72.5q65 68 172 68q94 0 141 -54q36 -45 39 -104q0 -40 -15 -117zM352 305q15 71 15 98t-14.5 42.5t-41.5 15.5q-35 0 -53 -21q-27 -27 -51 -135
q-12 -59 -12 -100q0 -58 53 -58q34 0 55 21q16 16 25.5 45t23.5 92z" />
    <glyph glyph-name="Euro" unicode="&#x20ac;" horiz-adv-x="980" 
d="M131 813l33 156h106q41 179 78.5 262.5t95.5 140.5q103 103 271 103q162 0 241 -97q62 -78 62 -204q0 -58 -6 -95h-217q6 31 6 82q0 119 -103 119q-64 0 -104 -43q-33 -33 -55.5 -89t-51.5 -179h213l-30 -156h-217l-33 -168h215l-31 -156h-211q-18 -117 -18 -186
q0 -125 104 -125q70 0 113 53q46 54 67 150h220q-24 -112 -61 -185t-99 -128q-96 -84 -260 -84q-178 0 -252 116q-27 44 -38 89t-11 112q0 68 18 188h-110l32 156h105l33 168h-105z" />
    <glyph glyph-name="uni20B4" unicode="&#x20b4;" horiz-adv-x="968" 
d="M903 541h-524q-34 -50 -51 -138q-9 -39 -9 -94q0 -67 27 -94q32 -37 88 -37q66 0 107 41q26 25 40 61.5t29 106.5h215q-26 -131 -54 -194t-83 -117q-49 -47 -112 -69.5t-158 -22.5q-90 0 -146.5 20t-99.5 66q-76 79 -76 231q0 66 10 121q12 67 35 119h-73l26 125h131
q56 53 154 102l65 33h-325l24 125h529q47 45 67 143q6 33 6 90q0 62 -26 88q-30 33 -80 33q-60 0 -100 -43q-26 -29 -40 -66.5t-26 -97.5h-215q22 112 55.5 187t94.5 129q103 86 249 86q82 0 136 -20.5t96 -65.5q74 -74 74 -222q0 -50 -11 -114q-14 -73 -39 -127h68
l-27 -125h-145q-51 -35 -102 -60l-152 -75h375z" />
    <glyph glyph-name="afii61352" unicode="&#x2116;" horiz-adv-x="1460" 
d="M8 0l291 1458h195l135 -870l174 870h215l-291 -1458h-188l-142 870l-174 -870h-215zM1040 1106q46 228 105 293q63 69 172 69q122 0 164 -75q24 -47 24 -115q0 -49 -24 -172q-46 -228 -105 -293q-64 -70 -172 -70q-122 0 -164 76q-24 47 -24 115q0 49 24 172zM1325 1106
q25 137 25 178q0 55 -43 55q-28 0 -50 -28q-30 -40 -61 -205q-25 -137 -25 -178q0 -56 43 -56q27 0 50 29q35 46 61 205zM944 553l25 121h411l-24 -121h-412z" />
    <glyph glyph-name="trademark" unicode="&#x2122;" horiz-adv-x="1220" 
d="M567 563l178 895h121l70 -461l252 461h123l-178 -895h-136l107 537l-174 -336h-82l-39 342l-107 -543h-135zM195 563l151 768h-139l26 127h414l-26 -127h-140l-151 -768h-135z" />
    <glyph glyph-name="Omega" unicode="&#x2126;" horiz-adv-x="894" 
d="M334 729q-70 -343 -70 -450q0 -83 53 -115l-32 -164h-324l37 186h121q-30 26 -44 62.5t-14 99.5q0 106 56 381q69 332 111.5 454t113.5 191q54 53 118.5 77t151.5 24q184 0 256 -121q28 -43 39 -86.5t11 -108.5q0 -119 -64 -430q-37 -180 -67 -292.5t-64 -170.5
q-26 -45 -76 -80h109l-37 -186h-324l33 164q60 33 94 110q28 66 51.5 163t63.5 292q63 313 63 424q0 127 -108 127q-60 0 -103 -43q-40 -40 -70.5 -140t-84.5 -368z" />
    <glyph glyph-name="uni2150" unicode="&#x2150;" horiz-adv-x="1515" 
d="M293 584l143 716l-141 -98l31 156l143 100h137l-174 -874h-139zM338 0l772 1458h147l-772 -1458h-147zM952 0l359 756h-164l-21 -113h-131l47 231h435l-21 -104l-362 -770h-142z" />
    <glyph glyph-name="uni2151" unicode="&#x2151;" horiz-adv-x="1515" 
d="M293 584l143 716l-141 -98l31 156l143 100h137l-174 -874h-139zM338 0l772 1458h147l-772 -1458h-147zM1417 610q-23 -116 -74 -204l-233 -406h-149l213 350q-24 -12 -58 -12q-63 0 -98 39t-37 96q0 53 16 137q20 92 36 134.5t46 72.5q65 68 172 68q95 0 142 -54
q36 -45 39 -104q0 -40 -15 -117zM1280 610q14 66 14 99q0 57 -55 57q-35 0 -53 -21q-27 -27 -51 -135q-13 -64 -13 -100q0 -57 54 -57q35 0 55 20q16 16 25.5 45t23.5 92z" />
    <glyph glyph-name="uni2152" unicode="&#x2152;" horiz-adv-x="2158" 
d="M293 584l143 716l-141 -98l31 156l143 100h137l-174 -874h-139zM338 0l772 1458h147l-772 -1458h-147zM1049 0l143 717l-141 -99l30 156l144 100h137l-174 -874h-139zM1661 686q21 104 80 152q58 47 153 47q92 0 140 -45q45 -40 45 -105q0 -31 -8 -63l-97 -484
q-18 -100 -80 -151q-58 -47 -153 -47q-94 0 -139 45q-43 40 -46 104q0 19 9 64zM1798 684l-98 -485q-4 -20 -4 -35q0 -24 16.5 -39.5t42.5 -15.5q65 0 82 81l98 486q4 20 4 35q0 24 -16 39.5t-43 15.5q-28 0 -50.5 -20.5t-31.5 -61.5z" />
    <glyph glyph-name="onethird" unicode="&#x2153;" horiz-adv-x="1515" 
d="M293 584l143 716l-141 -98l31 156l143 100h137l-174 -874h-139zM338 0l772 1458h147l-772 -1458h-147zM1004 629l10 57q11 58 30.5 94.5t59.5 65.5q53 39 141 39q94 0 137 -49q35 -38 35 -111q0 -32 -10 -84q-17 -89 -49 -129q-27 -30 -62 -47q62 -37 62 -115
q0 -30 -12 -100q-21 -97 -38.5 -138t-52.5 -71q-57 -51 -159 -51q-101 0 -148 53q-37 40 -37 98q0 40 7 68l8 39h137l-8 -43q-4 -18 -4 -41q0 -55 55 -55q32 0 55 20q15 13 24 37.5t21 83.5q15 69 15 102q0 25 -15.5 39.5t-42.5 14.5h-45l25 112h37q26 0 49 19
q16 16 23.5 34t17.5 68q10 55 10 72q0 55 -49 55q-61 0 -76 -74l-12 -63h-139z" />
    <glyph glyph-name="twothirds" unicode="&#x2154;" horiz-adv-x="1515" 
d="M131 584l23 108l309 424q76 102 76 174q0 60 -56 60q-63 0 -80 -78l-10 -55h-139l10 51q22 115 90 162q51 38 140 38q93 0 139 -49q43 -46 43 -112q0 -104 -98 -238l-271 -367h262l-24 -118h-414zM338 0l772 1458h147l-772 -1458h-147zM1004 629l10 57q11 58 30.5 94.5
t59.5 65.5q53 39 141 39q94 0 137 -49q35 -38 35 -111q0 -32 -10 -84q-17 -89 -49 -129q-27 -30 -62 -47q62 -37 62 -115q0 -30 -12 -100q-21 -97 -38.5 -138t-52.5 -71q-57 -51 -159 -51q-101 0 -148 53q-37 40 -37 98q0 40 7 68l8 39h137l-8 -43q-4 -18 -4 -41
q0 -55 55 -55q32 0 55 20q15 13 24 37.5t21 83.5q15 69 15 102q0 25 -15.5 39.5t-42.5 14.5h-45l25 112h37q26 0 49 19q16 16 23.5 34t17.5 68q10 55 10 72q0 55 -49 55q-61 0 -76 -74l-12 -63h-139z" />
    <glyph glyph-name="uni2155" unicode="&#x2155;" horiz-adv-x="1515" 
d="M293 584l143 716l-141 -98l31 156l143 100h137l-174 -874h-139zM338 0l772 1458h147l-772 -1458h-147zM924 229h139l-6 -26q-4 -16 -4 -41q0 -53 57 -53q33 0 53 20q18 18 30 49.5t26 106.5q18 87 18 127q0 55 -57 55q-29 0 -52.5 -20.5t-33.5 -57.5l-4 -16h-129l102 501
h397l-24 -118h-273l-43 -219q22 19 47 30q34 15 76 15q66 0 98 -37t35 -88q0 -68 -20 -172q-25 -121 -43 -166.5t-53 -77.5q-57 -51 -162 -51q-101 0 -148 53q-37 43 -37 96q0 24 7 64z" />
    <glyph glyph-name="uni2156" unicode="&#x2156;" horiz-adv-x="1515" 
d="M131 584l23 108l309 424q76 102 76 174q0 60 -56 60q-63 0 -80 -78l-10 -55h-139l10 51q22 115 90 162q51 38 140 38q93 0 139 -49q43 -46 43 -112q0 -104 -98 -238l-271 -367h262l-24 -118h-414zM338 0l772 1458h147l-772 -1458h-147zM924 229h139l-6 -26q-4 -16 -4 -41
q0 -53 57 -53q33 0 53 20q18 18 30 49.5t26 106.5q18 87 18 127q0 55 -57 55q-29 0 -52.5 -20.5t-33.5 -57.5l-4 -16h-129l102 501h397l-24 -118h-273l-43 -219q22 19 47 30q34 15 76 15q66 0 98 -37t35 -88q0 -68 -20 -172q-25 -121 -43 -166.5t-53 -77.5q-57 -51 -162 -51
q-101 0 -148 53q-37 43 -37 96q0 24 7 64z" />
    <glyph glyph-name="uni2157" unicode="&#x2157;" horiz-adv-x="1515" 
d="M248 1212l10 58q11 58 30.5 94.5t59.5 65.5q52 38 141 38q95 0 138 -49q35 -38 35 -110q0 -27 -11 -84q-17 -89 -49 -129q-27 -31 -61 -47q61 -36 61 -115q0 -30 -12 -100q-22 -98 -38.5 -139t-51.5 -70q-58 -52 -160 -52q-99 0 -147 54q-37 40 -37 98q0 44 6 68l8 38
h137l-8 -43q-4 -18 -4 -40q0 -27 15 -41.5t40 -14.5q32 0 56 21q15 13 24 37.5t21 83.5q14 64 14 102q0 53 -57 53h-46l25 113h37q27 0 49 18q15 15 23 34t18 69q10 55 10 71q0 56 -49 56q-61 0 -76 -74l-12 -64h-139zM338 0l772 1458h147l-772 -1458h-147zM924 229h139
l-6 -26q-4 -16 -4 -41q0 -53 57 -53q33 0 53 20q18 18 30 49.5t26 106.5q18 87 18 127q0 55 -57 55q-29 0 -52.5 -20.5t-33.5 -57.5l-4 -16h-129l102 501h397l-24 -118h-273l-43 -219q22 19 47 30q34 15 76 15q66 0 98 -37t35 -88q0 -68 -20 -172q-25 -121 -43 -166.5
t-53 -77.5q-57 -51 -162 -51q-101 0 -148 53q-37 43 -37 96q0 24 7 64z" />
    <glyph glyph-name="uni2158" unicode="&#x2158;" horiz-adv-x="1515" 
d="M123 719l24 115l349 624h139l-340 -620h117l28 147h138l-29 -147h63l-24 -119h-64l-26 -135h-138l25 135h-262zM338 0l772 1458h147l-772 -1458h-147zM924 229h139l-6 -26q-4 -16 -4 -41q0 -53 57 -53q33 0 53 20q18 18 30 49.5t26 106.5q18 87 18 127q0 55 -57 55
q-29 0 -52.5 -20.5t-33.5 -57.5l-4 -16h-129l102 501h397l-24 -118h-273l-43 -219q22 19 47 30q34 15 76 15q66 0 98 -37t35 -88q0 -68 -20 -172q-25 -121 -43 -166.5t-53 -77.5q-57 -51 -162 -51q-101 0 -148 53q-37 43 -37 96q0 24 7 64z" />
    <glyph glyph-name="uni2159" unicode="&#x2159;" horiz-adv-x="1515" 
d="M293 584l143 716l-141 -98l31 156l143 100h137l-174 -874h-139zM338 0l772 1458h147l-772 -1458h-147zM930 264q23 117 74 205l233 405h149l-212 -350q26 13 57 13q63 0 98 -39t37 -97q0 -53 -16 -137q-20 -92 -36 -134.5t-46 -72.5q-64 -67 -172 -67q-95 0 -142 53
q-36 45 -39 104q0 41 15 117zM1067 264q-14 -66 -14 -98q0 -57 55 -57q36 0 53 20q27 27 51 135q13 64 13 101q0 57 -54 57q-34 0 -55 -21q-16 -16 -25.5 -45t-23.5 -92z" />
    <glyph glyph-name="uni215A" unicode="&#x215a;" horiz-adv-x="1515" 
d="M168 813h139l-6 -27q-4 -16 -4 -41q0 -53 57 -53q33 0 54 21q18 18 29 49t26 106q18 87 18 127q0 56 -57 56q-29 0 -52.5 -20.5t-33.5 -57.5l-4 -17h-129l102 502h398l-25 -119h-272l-43 -219q25 21 47 31q32 14 75 14q67 0 99 -37t35 -88q0 -62 -21 -172
q-25 -120 -42.5 -165t-53.5 -78q-58 -52 -162 -52q-99 0 -147 54q-37 43 -37 96q0 29 6 63zM338 0l772 1458h147l-772 -1458h-147zM930 264q23 117 74 205l233 405h149l-212 -350q26 13 57 13q63 0 98 -39t37 -97q0 -53 -16 -137q-20 -92 -36 -134.5t-46 -72.5
q-64 -67 -172 -67q-95 0 -142 53q-36 45 -39 104q0 41 15 117zM1067 264q-14 -66 -14 -98q0 -57 55 -57q36 0 53 20q27 27 51 135q13 64 13 101q0 57 -54 57q-34 0 -55 -21q-16 -16 -25.5 -45t-23.5 -92z" />
    <glyph glyph-name="oneeighth" unicode="&#x215b;" horiz-adv-x="1515" 
d="M293 584l143 716l-141 -98l31 156l143 100h137l-174 -874h-139zM338 0l772 1458h147l-772 -1458h-147zM1341 248q-18 -94 -33.5 -133.5t-50.5 -71.5q-58 -53 -163 -53q-98 0 -146 51q-37 40 -37 98q0 53 13 109q13 67 24.5 99.5t28.5 55.5q28 38 72 62q-18 13 -33 35
q-15 27 -15 78q0 22 9 69q17 83 34 121t48 66q54 51 151 51q101 0 146 -51q36 -39 36 -101q0 -47 -8 -86q-22 -101 -49 -139q-27 -39 -65 -59q15 -13 30 -35q19 -28 19 -78q0 -29 -11 -88zM1143 641q-8 -49 -8 -70q0 -27 12 -41q14 -14 39 -14q30 0 53 23q20 20 37 102
q8 49 8 70q0 27 -12 41q-14 14 -39 14q-30 0 -53 -23q-20 -20 -37 -102zM1204 248q13 66 13 90q0 26 -15 41q-14 14 -41 14q-34 0 -57 -20q-14 -14 -22 -38.5t-21 -86.5q-12 -61 -12 -84q0 -27 14 -41t41 -14q34 0 57 20q15 15 23 37.5t20 81.5z" />
    <glyph glyph-name="threeeighths" unicode="&#x215c;" horiz-adv-x="1515" 
d="M248 1212l10 58q11 58 30.5 94.5t59.5 65.5q52 38 141 38q95 0 138 -49q35 -38 35 -110q0 -27 -11 -84q-17 -89 -49 -129q-27 -31 -61 -47q61 -36 61 -115q0 -30 -12 -100q-22 -98 -38.5 -139t-51.5 -70q-58 -52 -160 -52q-99 0 -147 54q-37 40 -37 98q0 44 6 68l8 38
h137l-8 -43q-4 -18 -4 -40q0 -27 15 -41.5t40 -14.5q32 0 56 21q15 13 24 37.5t21 83.5q14 64 14 102q0 53 -57 53h-46l25 113h37q27 0 49 18q15 15 23 34t18 69q10 55 10 71q0 56 -49 56q-61 0 -76 -74l-12 -64h-139zM338 0l772 1458h147l-772 -1458h-147zM1341 248
q-18 -94 -33.5 -133.5t-50.5 -71.5q-58 -53 -163 -53q-98 0 -146 51q-37 40 -37 98q0 53 13 109q13 67 24.5 99.5t28.5 55.5q28 38 72 62q-18 13 -33 35q-15 27 -15 78q0 22 9 69q17 83 34 121t48 66q54 51 151 51q101 0 146 -51q36 -39 36 -101q0 -47 -8 -86
q-22 -101 -49 -139q-27 -39 -65 -59q15 -13 30 -35q19 -28 19 -78q0 -29 -11 -88zM1143 641q-8 -49 -8 -70q0 -27 12 -41q14 -14 39 -14q30 0 53 23q20 20 37 102q8 49 8 70q0 27 -12 41q-14 14 -39 14q-30 0 -53 -23q-20 -20 -37 -102zM1204 248q13 66 13 90q0 26 -15 41
q-14 14 -41 14q-34 0 -57 -20q-14 -14 -22 -38.5t-21 -86.5q-12 -61 -12 -84q0 -27 14 -41t41 -14q34 0 57 20q15 15 23 37.5t20 81.5z" />
    <glyph glyph-name="fiveeighths" unicode="&#x215d;" horiz-adv-x="1515" 
d="M168 813h139l-6 -27q-4 -16 -4 -41q0 -53 57 -53q33 0 54 21q18 18 29 49t26 106q18 87 18 127q0 56 -57 56q-29 0 -52.5 -20.5t-33.5 -57.5l-4 -17h-129l102 502h398l-25 -119h-272l-43 -219q25 21 47 31q32 14 75 14q67 0 99 -37t35 -88q0 -62 -21 -172
q-25 -120 -42.5 -165t-53.5 -78q-58 -52 -162 -52q-99 0 -147 54q-37 43 -37 96q0 29 6 63zM338 0l772 1458h147l-772 -1458h-147zM1341 248q-18 -94 -33.5 -133.5t-50.5 -71.5q-58 -53 -163 -53q-98 0 -146 51q-37 40 -37 98q0 53 13 109q13 67 24.5 99.5t28.5 55.5
q28 38 72 62q-18 13 -33 35q-15 27 -15 78q0 22 9 69q17 83 34 121t48 66q54 51 151 51q101 0 146 -51q36 -39 36 -101q0 -47 -8 -86q-22 -101 -49 -139q-27 -39 -65 -59q15 -13 30 -35q19 -28 19 -78q0 -29 -11 -88zM1143 641q-8 -49 -8 -70q0 -27 12 -41q14 -14 39 -14
q30 0 53 23q20 20 37 102q8 49 8 70q0 27 -12 41q-14 14 -39 14q-30 0 -53 -23q-20 -20 -37 -102zM1204 248q13 66 13 90q0 26 -15 41q-14 14 -41 14q-34 0 -57 -20q-14 -14 -22 -38.5t-21 -86.5q-12 -61 -12 -84q0 -27 14 -41t41 -14q34 0 57 20q15 15 23 37.5t20 81.5z
" />
    <glyph glyph-name="seveneighths" unicode="&#x215e;" horiz-adv-x="1515" 
d="M197 584l358 755h-164l-20 -112h-131l47 231h434l-21 -104l-362 -770h-141zM338 0l772 1458h147l-772 -1458h-147zM1341 248q-18 -94 -33.5 -133.5t-50.5 -71.5q-58 -53 -163 -53q-98 0 -146 51q-37 40 -37 98q0 53 13 109q13 67 24.5 99.5t28.5 55.5q28 38 72 62
q-18 13 -33 35q-15 27 -15 78q0 22 9 69q17 83 34 121t48 66q54 51 151 51q101 0 146 -51q36 -39 36 -101q0 -47 -8 -86q-22 -101 -49 -139q-27 -39 -65 -59q15 -13 30 -35q19 -28 19 -78q0 -29 -11 -88zM1143 641q-8 -49 -8 -70q0 -27 12 -41q14 -14 39 -14q30 0 53 23
q20 20 37 102q8 49 8 70q0 27 -12 41q-14 14 -39 14q-30 0 -53 -23q-20 -20 -37 -102zM1204 248q13 66 13 90q0 26 -15 41q-14 14 -41 14q-34 0 -57 -20q-14 -14 -22 -38.5t-21 -86.5q-12 -61 -12 -84q0 -27 14 -41t41 -14q34 0 57 20q15 15 23 37.5t20 81.5z" />
    <glyph glyph-name="uni215F" unicode="&#x215f;" horiz-adv-x="872" 
d="M293 584l143 716l-141 -98l31 156l143 100h137l-174 -874h-139zM338 0l772 1458h147l-772 -1458h-147z" />
    <glyph glyph-name="uni2189" unicode="&#x2189;" horiz-adv-x="1515" 
d="M262 1270q21 103 80 151q58 47 154 47q91 0 139 -45q45 -40 45 -104q0 -32 -8 -64l-97 -483q-18 -101 -79 -151q-60 -48 -154 -48t-139 45q-42 39 -45 105q0 23 8 63zM399 1268l-98 -486q-4 -20 -4 -34q0 -24 16.5 -40t42.5 -16q29 0 51 20.5t31 61.5l99 486q4 20 4 34
q0 24 -16.5 40t-43.5 16q-28 0 -50.5 -20.5t-31.5 -61.5zM338 0l772 1458h147l-772 -1458h-147zM1004 629l10 57q11 58 30.5 94.5t59.5 65.5q53 39 141 39q94 0 137 -49q35 -38 35 -111q0 -32 -10 -84q-17 -89 -49 -129q-27 -30 -62 -47q62 -37 62 -115q0 -30 -12 -100
q-21 -97 -38.5 -138t-52.5 -71q-57 -51 -159 -51q-101 0 -148 53q-37 40 -37 98q0 40 7 68l8 39h137l-8 -43q-4 -18 -4 -41q0 -55 55 -55q32 0 55 20q15 13 24 37.5t21 83.5q15 69 15 102q0 25 -15.5 39.5t-42.5 14.5h-45l25 112h37q26 0 49 19q16 16 23.5 34t17.5 68
q10 55 10 72q0 55 -49 55q-61 0 -76 -74l-12 -63h-139z" />
    <glyph glyph-name="arrowleft" unicode="&#x2190;" horiz-adv-x="1472" 
d="M584 55l-531 529l531 528h278l-430 -424h948v-207h-948l430 -426h-278z" />
    <glyph glyph-name="arrowup" unicode="&#x2191;" horiz-adv-x="1472" 
d="M211 461v278l528 529l531 -529v-278l-426 428v-948h-207v948z" />
    <glyph glyph-name="arrowright" unicode="&#x2192;" horiz-adv-x="1472" 
d="M100 481v207h949l-431 424h279l530 -528l-530 -529h-279l431 426h-949z" />
    <glyph glyph-name="arrowdown" unicode="&#x2193;" horiz-adv-x="1472" 
d="M211 430v279l426 -430v948h207v-948l426 430v-279l-531 -530z" />
    <glyph glyph-name="uni2196" unicode="&#x2196;" horiz-adv-x="1472" 
d="M270 326v747h750l194 -196l-602 4l670 -672l-145 -148l-672 672l2 -604z" />
    <glyph glyph-name="uni2197" unicode="&#x2197;" horiz-adv-x="1472" 
d="M199 209l669 672l-602 -4l195 196h747v-747l-194 -197l2 604l-672 -672z" />
    <glyph glyph-name="uni2198" unicode="&#x2198;" horiz-adv-x="1472" 
d="M264 293l604 -4l-669 672l147 145l670 -670l-4 602l196 -196v-748h-747z" />
    <glyph glyph-name="uni2199" unicode="&#x2199;" horiz-adv-x="1472" 
d="M272 94v748l197 196l-4 -602l672 670l145 -145l-670 -672l605 2l-197 -197h-748z" />
    <glyph glyph-name="partialdiff" unicode="&#x2202;" horiz-adv-x="796" 
d="M61 98q-32 54 -32 152q0 63 37 252q46 222 76 311t79 137q75 72 193 72q59 0 104 -31q37 -25 53 -57l27 135q16 81 16 129q0 43 -18 66q-24 28 -70 28q-72 0 -133 -61l-102 131q57 60 121 86.5t153 26.5q139 0 207 -84q51 -63 51 -158q0 -68 -26 -195l-99 -497
q-35 -177 -72.5 -290t-86.5 -169q-87 -98 -252 -98q-85 0 -139.5 27t-86.5 87zM483 502q37 180 37 248q0 41 -22 61t-49 20q-19 0 -35 -8q-86 -39 -142 -321q-36 -190 -36 -248q0 -41 22.5 -61.5t48.5 -20.5q19 0 35 8q19 9 35.5 25.5t30.5 47.5t22.5 50t21 65.5t15 58
t13.5 62.5q2 9 3 13z" />
    <glyph glyph-name="Delta" unicode="&#x2206;" horiz-adv-x="907" 
d="M-96 0l628 1458h213l46 -1458h-887zM223 195h350l11 929z" />
    <glyph glyph-name="product" unicode="&#x220f;" horiz-adv-x="935" 
d="M-70 -389l389 1945h707l-389 -1945h-217l350 1751h-272l-351 -1751h-217z" />
    <glyph glyph-name="summation" unicode="&#x2211;" horiz-adv-x="759" 
d="M-82 -233l434 854l-110 778l32 157h615l-39 -194h-387l80 -645l-41 -221l-344 -695h391l-39 -194h-623z" />
    <glyph glyph-name="minus" unicode="&#x2212;" horiz-adv-x="886" 
d="M78 494l39 194h714l-38 -194h-715z" />
    <glyph glyph-name="uni2219" unicode="&#x2219;" horiz-adv-x="886" 
d="M133 590q0 129 92 221t221 92t221.5 -92t92.5 -221t-92.5 -221.5t-221.5 -92.5t-221 92.5t-92 221.5z" />
    <glyph glyph-name="radical" unicode="&#x221a;" horiz-adv-x="952" 
d="M137 0l-22 1069h219l-19 -741l437 1130h342l-39 -194h-160l-530 -1264h-228z" />
    <glyph glyph-name="infinity" unicode="&#x221e;" horiz-adv-x="1318" 
d="M285 584q0 -47 30 -75t72 -28q38 0 69 25.5t74 77.5q-29 35 -45.5 53t-43.5 34.5t-54 16.5q-42 0 -72 -28.5t-30 -75.5zM670 455q-137 -154 -283 -154q-136 0 -213.5 82t-77.5 207t77 206t214 81q148 0 283 -152q135 152 282 152q137 0 214 -81t77 -206t-77.5 -207
t-213.5 -82q-145 0 -282 154zM1055 584q0 47 -30.5 75.5t-72.5 28.5q-38 0 -69 -25.5t-74 -78.5q28 -35 45.5 -53t44 -34t53.5 -16q42 0 72.5 28t30.5 75z" />
    <glyph glyph-name="integral" unicode="&#x222b;" horiz-adv-x="602" 
d="M731 1473l-37 -185q-143 0 -174 -158l-235 -1179q-37 -187 -148 -266q-54 -37 -111 -50.5t-157 -13.5l37 186q75 0 117 39t57 117l237 1182q39 190 148 266q52 36 108.5 49t157.5 13z" />
    <glyph glyph-name="approxequal" unicode="&#x2248;" horiz-adv-x="886" 
d="M197 643l-103 135q85 74 145 104.5t123 30.5q48 0 83 -13t79 -42q66 -41 119 -41q39 0 74 18t80 62l104 -135q-80 -70 -142 -100.5t-126 -30.5q-80 0 -162 53q-62 41 -119 41q-70 0 -155 -82zM123 270l-103 136q85 73 145.5 104t123.5 31q47 0 82 -13.5t80 -42.5
q66 -41 118 -41q39 0 74 18t80 62l104 -135q-80 -70 -142 -100.5t-126 -30.5q-80 0 -162 53q-62 41 -118 41q-71 0 -156 -82z" />
    <glyph glyph-name="notequal" unicode="&#x2260;" horiz-adv-x="886" 
d="M-2 178l113 129h-70l39 195h192l144 166h-301l39 194h424l202 240l131 -107l-114 -133h69l-39 -194h-192l-143 -166h303l-39 -195h-426l-203 -233z" />
    <glyph glyph-name="lessequal" unicode="&#x2264;" horiz-adv-x="776" 
d="M33 377l47 227l565 -397l-47 -230zM115 780l30 158l725 397l-51 -252l-444 -239l350 -242l-45 -221z" />
    <glyph glyph-name="greaterequal" unicode="&#x2265;" horiz-adv-x="776" 
d="M-47 -23l45 230l727 397l-47 -227zM791 932l-31 -158l-725 -397l51 252l444 239l-350 242l45 221z" />
    <glyph glyph-name="dotmath" unicode="&#x22c5;" horiz-adv-x="886" 
d="M268 438l62 303h309l-61 -303h-310z" />
    <glyph glyph-name="lozenge" unicode="&#x25ca;" horiz-adv-x="956" 
d="M897 668l-496 -557l-284 589l495 557zM334 684l121 -258l225 258l-121 258z" />
    <glyph glyph-name="fi" unicode="&#xfb01;" horiz-adv-x="894" 
d="M483 0l209 1049h205l-209 -1049h-205zM721 1219l45 221h215l-45 -221h-215zM33 0l178 895h-102l30 154h105l18 94q20 95 54.5 159t93.5 105q50 36 107.5 49.5t158.5 13.5l-37 -182q-76 0 -118.5 -39.5t-57.5 -118.5l-14 -81h141l-31 -154h-143l-178 -895h-205z" />
    <glyph glyph-name="fl" unicode="&#xfb02;" horiz-adv-x="966" 
d="M602 72q-61 61 -61 166q0 53 8 92l225 1128h205l-221 -1114q-6 -31 -6 -65q0 -45 27.5 -71t82.5 -26l-35 -182q-153 0 -225 72zM33 0l178 895h-102l30 154h105l18 94q20 95 54.5 159t93.5 105q50 36 107.5 49.5t158.5 13.5l-37 -182q-76 0 -118.5 -39.5t-57.5 -118.5
l-14 -81h141l-31 -154h-143l-178 -895h-205z" />
    <glyph glyph-name="uniFEFF" unicode="&#xfeff;" horiz-adv-x="0" 
 />
    <glyph glyph-name="i.latn_TRK" horiz-adv-x="405" 
d="M-6 0l209 1049h205l-209 -1049h-205zM231 1219l45 221h216l-46 -221h-215z" />
    <glyph glyph-name="Ldot.latn_CAT" horiz-adv-x="761" 
d="M8 0l291 1458h217l-252 -1263h365l-39 -195h-582zM516 633l41 201h191l-39 -201h-193z" />
    <glyph glyph-name="ldot.latn_CAT" horiz-adv-x="632" 
d="M410 516l41 201h190l-39 -201h-192zM106 72q-61 61 -61 166q0 53 8 92l226 1128h204l-221 -1114q-6 -31 -6 -65q0 -45 28 -71t83 -26l-35 -182q-154 0 -226 72z" />
    <glyph glyph-name="zero.numr" horiz-adv-x="643" 
d="M262 1270q21 103 80 151q58 47 154 47q91 0 139 -45q45 -40 45 -104q0 -32 -8 -64l-97 -483q-18 -101 -79 -151q-60 -48 -154 -48t-139 45q-42 39 -45 105q0 23 8 63zM399 1268l-98 -486q-4 -20 -4 -34q0 -24 16.5 -40t42.5 -16q29 0 51 20.5t31 61.5l99 486q4 20 4 34
q0 24 -16.5 40t-43.5 16q-28 0 -50.5 -20.5t-31.5 -61.5z" />
    <glyph glyph-name="one.numr" horiz-adv-x="643" 
d="M293 584l143 716l-141 -98l31 156l143 100h137l-174 -874h-139z" />
    <glyph glyph-name="two.numr" horiz-adv-x="643" 
d="M131 584l23 108l309 424q76 102 76 174q0 60 -56 60q-63 0 -80 -78l-10 -55h-139l10 51q22 115 90 162q51 38 140 38q93 0 139 -49q43 -46 43 -112q0 -104 -98 -238l-271 -367h262l-24 -118h-414z" />
    <glyph glyph-name="three.numr" horiz-adv-x="643" 
d="M248 1212l10 58q11 58 30.5 94.5t59.5 65.5q52 38 141 38q95 0 138 -49q35 -38 35 -110q0 -27 -11 -84q-17 -89 -49 -129q-27 -31 -61 -47q61 -36 61 -115q0 -30 -12 -100q-22 -98 -38.5 -139t-51.5 -70q-58 -52 -160 -52q-99 0 -147 54q-37 40 -37 98q0 44 6 68l8 38
h137l-8 -43q-4 -18 -4 -40q0 -27 15 -41.5t40 -14.5q32 0 56 21q15 13 24 37.5t21 83.5q14 64 14 102q0 53 -57 53h-46l25 113h37q27 0 49 18q15 15 23 34t18 69q10 55 10 71q0 56 -49 56q-61 0 -76 -74l-12 -64h-139z" />
    <glyph glyph-name="four.numr" horiz-adv-x="643" 
d="M123 719l24 115l349 624h139l-340 -620h117l28 147h138l-29 -147h63l-24 -119h-64l-26 -135h-138l25 135h-262z" />
    <glyph glyph-name="five.numr" horiz-adv-x="643" 
d="M168 813h139l-6 -27q-4 -16 -4 -41q0 -53 57 -53q33 0 54 21q18 18 29 49t26 106q18 87 18 127q0 56 -57 56q-29 0 -52.5 -20.5t-33.5 -57.5l-4 -17h-129l102 502h398l-25 -119h-272l-43 -219q25 21 47 31q32 14 75 14q67 0 99 -37t35 -88q0 -62 -21 -172
q-25 -120 -42.5 -165t-53.5 -78q-58 -52 -162 -52q-99 0 -147 54q-37 43 -37 96q0 29 6 63z" />
    <glyph glyph-name="six.numr" horiz-adv-x="643" 
d="M174 848q23 117 74 205l233 405h150l-213 -350q24 12 57 12q63 0 98 -39t37 -96q0 -53 -16 -137q-20 -92 -36 -134.5t-46 -72.5q-65 -68 -172 -68q-94 0 -141 54q-36 45 -39 104q0 46 14 117zM311 848q-14 -66 -14 -98q0 -58 55 -58q36 0 54 21q27 27 51 135
q12 59 12 100q0 58 -53 58q-35 0 -56 -21q-16 -16 -25.5 -45t-23.5 -92z" />
    <glyph glyph-name="seven.numr" horiz-adv-x="643" 
d="M197 584l358 755h-164l-20 -112h-131l47 231h434l-21 -104l-362 -770h-141z" />
    <glyph glyph-name="eight.numr" horiz-adv-x="643" 
d="M586 831q-18 -94 -33.5 -133t-50.5 -71q-60 -54 -164 -54q-96 0 -145 52q-37 40 -37 98q0 56 12 108q23 116 53 156q28 38 72 62q-20 14 -33 34q-14 25 -14 78q0 29 8 70q17 83 33.5 120.5t48.5 65.5q54 51 151 51q101 0 146 -51q37 -40 37 -100q0 -47 -8 -86
q-21 -99 -50 -139q-28 -41 -65 -60q17 -14 31 -35q18 -27 18 -77q0 -35 -10 -89zM387 1225q-8 -49 -8 -70q0 -27 12 -41q14 -14 39 -14q31 0 53 22q19 19 37 103q8 49 8 69q0 27 -12 41q-15 15 -39 15q-30 0 -53 -23q-20 -20 -37 -102zM449 831q12 61 12 91q0 26 -15 41
q-14 14 -40 14q-34 0 -58 -21q-14 -14 -22 -38.5t-21 -86.5q-12 -61 -12 -83q0 -27 14 -41q15 -15 41 -15q34 0 58 21q15 15 23 37t20 81z" />
    <glyph glyph-name="nine.numr" horiz-adv-x="643" 
d="M668 1194q-23 -117 -74 -205l-234 -405h-149l213 350q-24 -12 -57 -12q-63 0 -98.5 39t-37.5 96q0 48 17 137q20 92 36 134.5t46 72.5q64 67 172 67q94 0 141 -53q36 -45 39 -104q0 -46 -14 -117zM530 1194q15 70 15 98q0 27 -14.5 42.5t-41.5 15.5q-35 0 -53 -21
q-27 -27 -51 -135q-12 -59 -12 -100q0 -58 53 -58q34 0 55 21q16 16 25.5 45t23.5 92z" />
    <glyph glyph-name="zero.dnom" horiz-adv-x="643" 
d="M145 686q21 104 80 152q58 47 154 47q91 0 139 -45q45 -40 45 -105q0 -31 -8 -63l-96 -484q-18 -100 -80 -151q-58 -47 -154 -47q-94 0 -139 45q-42 39 -45 104q0 24 8 64zM283 684l-99 -485q-4 -20 -4 -35q0 -23 17 -39t43 -16q65 0 82 81l98 486q4 20 4 35
q0 24 -16 39.5t-43 15.5q-28 0 -50.5 -20.5t-31.5 -61.5z" />
    <glyph glyph-name="one.dnom" horiz-adv-x="643" 
d="M176 0l143 717l-141 -99l31 156l143 100h137l-174 -874h-139z" />
    <glyph glyph-name="two.dnom" horiz-adv-x="643" 
d="M14 0l23 109l309 423q76 102 76 175q0 59 -55 59q-63 0 -80 -78l-11 -55h-139l10 51q22 114 91 162q52 39 139 39q93 0 139 -49q43 -46 43 -113q0 -104 -98 -238l-271 -366h263l-25 -119h-414z" />
    <glyph glyph-name="three.dnom" horiz-adv-x="643" 
d="M131 629l10 57q11 58 30.5 94.5t59.5 65.5q53 39 142 39q94 0 137 -49q35 -38 35 -111q0 -32 -10 -84q-17 -88 -50 -129q-27 -31 -61 -47q61 -36 61 -115q0 -30 -12 -100q-22 -98 -38.5 -139t-51.5 -70q-57 -51 -160 -51q-100 0 -147 53q-37 40 -37 98q0 44 6 68l8 39
h137l-8 -43q-4 -18 -4 -41q0 -55 55 -55q33 0 56 20q15 13 24 37.5t21 83.5q14 64 14 102q0 25 -15 39.5t-42 14.5h-45l24 112h37q26 0 49 19q16 16 23.5 34t17.5 68q11 61 11 72q0 55 -50 55q-60 0 -75 -74l-13 -63h-139z" />
    <glyph glyph-name="four.dnom" horiz-adv-x="643" 
d="M6 135l25 115l348 624h139l-340 -620h117l29 147h137l-29 -147h64l-25 -119h-63l-27 -135h-137l24 135h-262z" />
    <glyph glyph-name="five.dnom" horiz-adv-x="643" 
d="M51 229h139l-6 -26q-4 -16 -4 -41t15 -39t43 -14q33 0 53 20q18 18 29 49t26 107q19 92 19 127q0 55 -58 55q-29 0 -52.5 -20.5t-33.5 -57.5l-4 -16h-129l102 501h398l-25 -118h-272l-43 -219q22 19 47 30q35 15 76 15q66 0 98 -37t35 -88q0 -62 -21 -172
q-25 -121 -43 -166.5t-53 -77.5q-57 -51 -162 -51q-100 0 -147 53q-37 43 -37 96q0 29 6 64z" />
    <glyph glyph-name="six.dnom" horiz-adv-x="643" 
d="M57 264q23 117 74 205l234 405h149l-213 -350q26 13 57 13q63 0 98.5 -39.5t37.5 -96.5q0 -48 -17 -137q-20 -92 -36 -134.5t-46 -72.5q-64 -67 -172 -67q-94 0 -141 53q-36 45 -39 104q0 46 14 117zM195 264q-15 -70 -15 -98q0 -57 56 -57q36 0 53 20q27 27 51 135
q12 59 12 101q0 57 -53 57q-34 0 -55 -21q-16 -16 -25.5 -45t-23.5 -92z" />
    <glyph glyph-name="seven.dnom" horiz-adv-x="643" 
d="M80 0l358 756h-164l-20 -113h-131l47 231h434l-20 -104l-363 -770h-141z" />
    <glyph glyph-name="eight.dnom" horiz-adv-x="643" 
d="M469 248q-18 -94 -33.5 -133.5t-50.5 -71.5q-58 -53 -164 -53q-97 0 -145 51q-37 40 -37 98q0 57 12 109q13 67 24.5 99.5t28.5 55.5q28 38 72 62q-18 13 -33 35q-14 25 -14 78q0 28 8 69q17 83 34 121t48 66q54 51 152 51q100 0 145 -51q37 -40 37 -101q0 -47 -8 -86
q-22 -101 -49 -139q-27 -39 -66 -59q17 -14 31 -35q18 -27 18 -78q0 -34 -10 -88zM270 641q-8 -49 -8 -70q0 -27 12 -41q14 -14 39 -14q31 0 54 23q18 18 36 102q9 55 9 70q0 25 -13 41q-14 14 -39 14q-30 0 -53 -23q-20 -20 -37 -102zM332 248q12 61 12 90q0 27 -14 41
t-41 14q-35 0 -58 -20q-14 -14 -22 -38.5t-21 -86.5q-12 -61 -12 -84q0 -27 14 -41t41 -14q35 0 58 20q15 15 23 37.5t20 81.5z" />
    <glyph glyph-name="nine.dnom" horiz-adv-x="643" 
d="M545 610q-23 -116 -74 -204l-233 -406h-150l213 350q-24 -12 -57 -12q-63 0 -98 39t-37 96q0 53 16 137q20 92 36 134.5t46 72.5q65 68 172 68q94 0 141 -54q36 -45 39 -104q0 -46 -14 -117zM408 610q14 66 14 99q0 57 -55 57q-36 0 -54 -21q-27 -27 -51 -135
q-12 -59 -12 -100q0 -57 53 -57q35 0 55 20q26 26 50 137z" />
    <glyph glyph-name="space.frac" horiz-adv-x="67" 
 />
    <glyph glyph-name="zero.osf" 
d="M150 905q31 174 124 252q91 76 230 76q141 0 205 -74q35 -39 48 -78.5t13 -93.5q0 -43 -12 -102l-115 -574q-36 -176 -127 -252q-87 -75 -227 -75q-141 0 -207 73q-62 65 -62 172q0 40 13 103zM354 913l-121 -600q-6 -34 -6 -61q0 -40 23 -63t61 -23q43 0 77 32.5
t48 104.5l121 600q6 35 6 62q0 40 -23 63t-61 23q-43 0 -77 -32.5t-48 -105.5z" />
    <glyph glyph-name="one.osf" horiz-adv-x="638" 
d="M180 0l191 967l-226 -164l52 250l225 164h205l-242 -1217h-205z" />
    <glyph glyph-name="two.osf" horiz-adv-x="749" 
d="M-39 0l33 172l426 508q127 150 127 276q0 44 -20.5 69.5t-57.5 25.5q-94 0 -125 -150l-12 -61h-205l14 67q20 100 52.5 161t85.5 101q88 64 210 64q123 0 193 -70q36 -36 53 -82t17 -116q0 -95 -43 -181t-138 -200l-333 -402h387l-35 -182h-629z" />
    <glyph glyph-name="three.osf" horiz-adv-x="751" 
d="M129 821l18 88q18 95 47.5 154.5t86.5 105.5q84 64 211 64q143 0 206 -80q50 -66 50 -154q0 -64 -19 -161q-20 -94 -37 -142.5t-45 -83.5q-39 -51 -92 -80q88 -53 88 -172q0 -47 -27 -186q-32 -160 -58.5 -228.5t-80.5 -121.5q-82 -82 -237 -82q-69 0 -128 22.5t-92 63.5
q-51 64 -51 156q0 51 11 110l12 60h205l-13 -68q-8 -46 -8 -66q0 -46 22 -71t60 -25q47 0 80 33q23 25 37.5 67t36.5 150q26 133 26 178q0 40 -21 64t-61 24h-67l37 181h57q47 0 72 28q25 26 35.5 58t31.5 127q21 99 21 139q0 35 -18 56.5t-54 21.5q-42 0 -73 -31t-44 -96
l-20 -103h-205z" />
    <glyph glyph-name="four.osf" horiz-adv-x="802" 
d="M-35 61l35 183l563 1044h207l-549 -1044h174l56 270h198l-53 -270h102l-34 -183h-105l-63 -313h-199l63 313h-395z" />
    <glyph glyph-name="five.osf" horiz-adv-x="768" 
d="M35 139h205l-11 -49q-8 -39 -8 -70q0 -44 21.5 -70t60.5 -26q45 0 82 37q24 26 42.5 81.5t43.5 188.5q33 175 33 218t-19.5 69.5t-60.5 26.5q-45 0 -81.5 -36t-49.5 -99l-6 -33h-195l170 840h592l-37 -183h-407l-76 -387q29 33 74 55q52 25 110 25q97 0 148 -61
q47 -56 47 -146q0 -98 -37 -289q-39 -197 -68 -273.5t-84 -131.5q-84 -84 -241 -84q-148 0 -217 84q-54 68 -54 158q0 43 13 106z" />
    <glyph glyph-name="six.osf" horiz-adv-x="753" 
d="M20 242q0 68 27 200q40 204 119 344l375 672h221l-342 -588q33 23 84 23q96 0 146 -63.5t50 -159.5q0 -72 -30 -228q-30 -157 -57 -228.5t-72 -119.5q-51 -56 -112.5 -83t-147.5 -27q-137 0 -207 86q-54 72 -54 172zM225 262q0 -96 78 -96q48 0 82 37q26 29 42 79t40 164
q25 132 25 181q0 40 -19 65t-59 25q-48 0 -82 -37q-43 -47 -80 -234q-27 -132 -27 -184z" />
    <glyph glyph-name="seven.osf" horiz-adv-x="763" 
d="M-23 -242l619 1276h-244l-41 -203h-192l76 386h651l-35 -170l-621 -1289h-213z" />
    <glyph glyph-name="eight.osf" horiz-adv-x="770" 
d="M193 1081q26 131 55 199.5t76 112.5q82 82 225 82q148 0 215 -82q49 -62 49 -154q0 -81 -18 -174q-32 -157 -76 -219q-43 -59 -98 -96q29 -26 47 -56q26 -48 26 -108q0 -67 -22 -174q-32 -164 -57 -227t-76 -113q-91 -88 -242 -88q-70 0 -128 22.5t-91 63.5
q-51 67 -51 157q0 83 22 185q25 122 42.5 176t45.5 92q37 51 105 96q-31 31 -45 58q-21 44 -21 102q0 64 17 145zM590 1073q20 113 20 129q0 43 -20 66q-18 24 -55 24q-44 0 -72 -32q-38 -41 -68 -187q-20 -113 -20 -131q0 -42 20 -65q19 -25 56 -25q42 0 71 33
q38 41 68 188zM469 418q25 134 25 160q0 45 -21 69q-24 27 -63 27q-45 0 -80 -35q-23 -25 -38.5 -70t-37.5 -151q-23 -124 -23 -156q0 -45 21 -69q24 -27 63 -27q45 0 80 35q23 25 37.5 67.5t36.5 149.5z" />
    <glyph glyph-name="nine.osf" horiz-adv-x="753" 
d="M762 975q0 -69 -27 -201q-40 -204 -119 -344l-374 -672h-222l342 588q-32 -22 -83 -22q-96 0 -146.5 63.5t-50.5 159.5q0 66 31 227q30 157 57 228.5t72 119.5q52 56 113 83.5t147 27.5q137 0 207 -86q53 -70 53 -172zM557 954q0 97 -78 97q-48 0 -82 -37
q-26 -29 -42 -79.5t-40 -164.5q-24 -127 -24 -180q0 -40 19 -65t59 -25q48 0 82 37q42 46 79 233q27 132 27 184z" />
    <glyph glyph-name="zero.lf" horiz-adv-x="776" 
d="M205 1147q31 173 125 252q91 76 229 76q141 0 205 -74q35 -39 48 -78.5t13 -93.5q0 -45 -12 -103l-162 -815q-36 -176 -127 -252q-87 -75 -227 -75q-141 0 -207 73q-61 64 -61 172q0 45 12 103zM410 1155l-168 -842q-6 -34 -6 -61q0 -40 22.5 -63t60.5 -23q43 0 77 32.5
t48 104.5l168 842q6 35 6 61q0 40 -22.5 63t-60.5 23q-43 0 -77 -32.5t-48 -104.5z" />
    <glyph glyph-name="one.lf" horiz-adv-x="606" 
d="M164 0l239 1206l-241 -176l51 252l242 176h204l-290 -1458h-205z" />
    <glyph glyph-name="two.lf" horiz-adv-x="724" 
d="M-43 0l33 172l483 719q117 177 117 307q0 45 -20 69.5t-58 24.5q-94 0 -121 -137l-16 -88h-205l14 82q35 185 138 262q85 64 206 64q144 0 211 -84q58 -71 58 -181q0 -164 -158 -397l-428 -631h393l-35 -182h-612z" />
    <glyph glyph-name="three.lf" horiz-adv-x="745" 
d="M166 1063l18 88q18 95 47.5 155t85.5 105q84 64 211 64q144 0 207 -80q49 -65 49 -154q0 -71 -18 -162q-20 -93 -37 -141.5t-45 -83.5q-39 -51 -92 -80q88 -53 88 -172q0 -47 -27 -186q-32 -160 -58.5 -228.5t-80.5 -121.5q-82 -82 -238 -82q-68 0 -127 22.5t-92 63.5
q-51 64 -51 155q0 57 10 111l13 59h204l-12 -67q-8 -46 -8 -66q0 -46 22 -71t60 -25q47 0 80 33q23 25 37.5 67t36.5 150q26 133 26 178q0 40 -21 64t-61 24h-67l36 180h58q46 0 72 29q25 26 36 58t31 126q21 99 21 139q0 35 -18 56.5t-54 21.5q-42 0 -73 -31t-44 -96
l-20 -102h-205z" />
    <glyph glyph-name="four.lf" horiz-adv-x="784" 
d="M-20 227l36 183l564 1048h204l-551 -1048h173l53 268h205l-54 -268h95l-37 -183h-95l-45 -227h-204l45 227h-389z" />
    <glyph glyph-name="five.lf" horiz-adv-x="763" 
d="M47 381h205l-10 -49q-9 -44 -9 -70q0 -44 21.5 -70t60.5 -26q45 0 82 37q24 26 42.5 81.5t43.5 188.5q33 175 33 217q0 43 -19.5 69.5t-60.5 26.5q-45 0 -81.5 -36t-49.5 -99l-6 -33h-195l170 840h592l-37 -182h-407l-76 -387q29 33 74 55q52 25 110 25q96 0 148 -62
q47 -56 47 -145q0 -98 -37 -289q-40 -198 -68.5 -274.5t-82.5 -130.5q-84 -84 -242 -84q-148 0 -217 84q-53 67 -53 157q0 49 12 107z" />
    <glyph glyph-name="six.lf" horiz-adv-x="747" 
d="M18 242q0 68 27 200q40 204 119 344l375 672h221l-342 -588q33 23 84 23q96 0 146 -63.5t50 -159.5q0 -72 -30 -228q-30 -157 -57 -228.5t-72 -119.5q-51 -56 -112.5 -83t-147.5 -27q-137 0 -207 86q-54 72 -54 172zM223 262q0 -96 78 -96q48 0 82 37q26 29 42 79t40 164
q24 127 24 181q0 90 -77 90q-48 0 -82 -37q-43 -47 -80 -234q-27 -132 -27 -184z" />
    <glyph glyph-name="seven.lf" horiz-adv-x="745" 
d="M41 0l606 1276h-246l-41 -199h-190l76 381h647l-35 -170l-606 -1288h-211z" />
    <glyph glyph-name="eight.lf" horiz-adv-x="761" 
d="M188 1081q26 131 55 199.5t76 112.5q82 82 226 82q148 0 215 -82q49 -62 49 -154q0 -81 -18 -174q-32 -157 -76 -219q-42 -58 -99 -96q31 -27 48 -56q26 -48 26 -108q0 -67 -22 -174q-32 -164 -57 -227t-76 -113q-91 -88 -242 -88q-70 0 -128 22.5t-91 63.5
q-51 67 -51 157q0 83 22 185q25 122 42.5 176t45.5 92q37 51 105 96q-31 31 -45 58q-21 44 -21 102q0 69 16 145zM586 1073q20 113 20 129q0 43 -20 66q-18 24 -56 24q-43 0 -71 -32q-38 -41 -68 -187q-20 -113 -20 -131q0 -42 20 -65q19 -25 55 -25q43 0 72 33
q38 41 68 188zM465 418q24 129 24 160q0 46 -20 69q-24 27 -63 27q-45 0 -80 -35q-23 -25 -38.5 -70t-37.5 -151q-23 -124 -23 -156q0 -45 21 -69q24 -27 63 -27q45 0 80 35q23 25 37.5 67.5t36.5 149.5z" />
    <glyph glyph-name="nine.lf" horiz-adv-x="747" 
d="M807 1217q0 -69 -27 -201q-40 -206 -118 -344l-375 -672h-221l342 588q-33 -23 -84 -23q-96 0 -146.5 63.5t-50.5 159.5q0 67 31 228q30 157 57 228.5t72 119.5q52 56 113 83.5t147 27.5q137 0 207 -86q53 -70 53 -172zM602 1196q0 96 -78 96q-48 0 -82 -37
q-26 -29 -42 -79t-40 -164q-24 -127 -24 -181q0 -40 19 -65t59 -25q48 0 82 37q41 46 79 234q27 132 27 184z" />
    <glyph glyph-name="zero.tosf" horiz-adv-x="776" 
d="M156 905q31 173 125 252q91 76 229 76q141 0 205 -74q35 -39 48 -78.5t13 -93.5q0 -43 -12 -102l-115 -574q-36 -176 -127 -252q-87 -75 -227 -75q-141 0 -207 73q-61 64 -61 172q0 45 12 103zM360 913l-120 -600q-7 -40 -7 -61q0 -40 23 -63t61 -23q43 0 77 32.5
t48 104.5l121 600q6 35 6 62q0 40 -23 63t-61 23q-43 0 -77 -32.5t-48 -105.5z" />
    <glyph glyph-name="one.tosf" horiz-adv-x="776" 
d="M229 0l191 967l-225 -164l51 250l225 164h205l-242 -1217h-205z" />
    <glyph glyph-name="two.tosf" horiz-adv-x="776" 
d="M-25 0l33 172l426 508q127 150 127 276q0 44 -20.5 69.5t-57.5 25.5q-94 0 -125 -150l-12 -61h-205l15 67q20 100 52 161t85 101q88 64 211 64q122 0 192 -70q36 -36 53 -82t17 -116q0 -95 -42.5 -181t-137.5 -200l-334 -402h387l-35 -182h-629z" />
    </font>
</defs>
</svg>
